SplineFontDB: 3.2
FontName: Normalfraktur
FullName: Normalfraktur
FamilyName: Normalfraktur
Weight: Normal
Copyright: Copyright (c) 2010 by UZ. Alle Rechte vorbehalten zur Schrift und ihrer OpenType-Programmierung
Version: 6.0
ItalicAngle: 0
UnderlinePosition: -100
UnderlineWidth: 50
Ascent: 800
Descent: 200
InvalidEm: 0
sfntRevision: 0x00070000
LayerCount: 2
Layer: 0 1 "Hinten" 1
Layer: 1 1 "Vorne" 0
XUID: [1021 440 24186468 15501]
StyleMap: 0x0040
FSType: 0
OS2Version: 3
OS2_WeightWidthSlopeOnly: 0
OS2_UseTypoMetrics: 0
CreationTime: 1270069200
ModificationTime: 1721555040
PfmFamily: 17
TTFWeight: 400
TTFWidth: 5
LineGap: 53
VLineGap: 0
Panose: 2 0 5 0 6 0 0 2 0 4
OS2TypoAscent: 711
OS2TypoAOffset: 0
OS2TypoDescent: -155
OS2TypoDOffset: 0
OS2TypoLinegap: 53
OS2WinAscent: 900
OS2WinAOffset: 0
OS2WinDescent: 184
OS2WinDOffset: 0
HheadAscent: 711
HheadAOffset: 0
HheadDescent: -155
HheadDOffset: 0
OS2SubXSize: 204
OS2SubYSize: 204
OS2SubXOff: 0
OS2SubYOff: 286
OS2SupXSize: 204
OS2SupYSize: 204
OS2SupXOff: 0
OS2SupYOff: 286
OS2StrikeYSize: 50
OS2StrikeYPos: 250
OS2CapHeight: 714
OS2XHeight: 567
OS2Vendor: 'lfsz'
OS2CodePages: 00000001.00000000
OS2UnicodeRanges: a000002f.1000e8ea.00008020.00000000
Lookup: 6 0 0 "'hlig' Historische Ligaturen in Lateinisch Nachschlagetabelle 0" { "'hlig' Historische Ligaturen in Lateinisch Nachschlagetabelle 0 kontextuelle 0"  "'hlig' Historische Ligaturen in Lateinisch Nachschlagetabelle 0 kontextuelle 1"  "'hlig' Historische Ligaturen in Lateinisch Nachschlagetabelle 0 kontextuelle 2"  "'hlig' Historische Ligaturen in Lateinisch Nachschlagetabelle 0 kontextuelle 3"  "'hlig' Historische Ligaturen in Lateinisch Nachschlagetabelle 0 kontextuelle 4"  "'hlig' Historische Ligaturen in Lateinisch Nachschlagetabelle 0 kontextuelle 5"  } ['hlig' ('latn' <'dflt' > ) ]

StartChar: .notdef
Encoding: 65536 -1 0
Width: 558
GlyphClass: 1
Flags: W
LayerCount: 2
Fore
SplineSet
50 0 m 1,0,-1
 50 700 l 1,1,-1
 508 700 l 1,2,-1
 508 0 l 1,3,-1
 50 0 l 1,0,-1
92 42 m 1,4,-1
 466 42 l 1,5,-1
 466 658 l 1,6,-1
 92 658 l 1,7,-1
 92 42 l 1,4,-1
EndSplineSet
EndChar

StartChar: exclam
Encoding: 33 33 1
Width: 311
GlyphClass: 1
Flags: W
LayerCount: 2
Fore
SplineSet
168 709 m 256,0,1
 190 709 190 709 208.5 689 c 128,-1,2
 227 669 227 669 227 632 c 0,3,4
 227 572 227 572 226.5 526 c 128,-1,5
 226 480 226 480 223.5 436.5 c 128,-1,6
 221 393 221 393 215 345.5 c 128,-1,7
 209 298 209 298 199 237 c 0,8,9
 197 226 197 226 187 212.5 c 128,-1,10
 177 199 177 199 168 199 c 0,11,12
 158 199 158 199 150 212.5 c 128,-1,13
 142 226 142 226 140 237 c 0,14,15
 131 294 131 294 125 340.5 c 128,-1,16
 119 387 119 387 115.5 432 c 128,-1,17
 112 477 112 477 110.5 524.5 c 128,-1,18
 109 572 109 572 109 632 c 0,19,20
 109 669 109 669 127.5 689 c 128,-1,21
 146 709 146 709 168 709 c 256,0,1
169 -12 m 256,22,23
 164 -12 164 -12 153 -1.5 c 128,-1,24
 142 9 142 9 127 23 c 256,25,26
 112 37 112 37 96.5 48 c 128,-1,27
 81 59 81 59 81 67 c 256,28,29
 81 75 81 75 96.5 86 c 128,-1,30
 112 97 112 97 128 113 c 0,31,32
 142 128 142 128 153 141.5 c 128,-1,33
 164 155 164 155 169 155 c 256,34,35
 174 155 174 155 184.5 139 c 128,-1,36
 195 123 195 123 209 108 c 0,37,38
 224 92 224 92 237 83.5 c 128,-1,39
 250 75 250 75 250 67 c 256,40,41
 250 59 250 59 237 50 c 128,-1,42
 224 41 224 41 209 27 c 0,43,44
 195 14 195 14 184.5 1 c 128,-1,45
 174 -12 174 -12 169 -12 c 256,22,23
EndSplineSet
EndChar

StartChar: quotedbl
Encoding: 34 34 2
Width: 384
GlyphClass: 1
Flags: W
LayerCount: 2
Fore
SplineSet
148 667 m 0,0,1
 148 655 148 655 147 633 c 128,-1,2
 146 611 146 611 143 584.5 c 128,-1,3
 140 558 140 558 135 528.5 c 128,-1,4
 130 499 130 499 122 471 c 0,5,6
 114 442 114 442 102 442 c 0,7,8
 92 442 92 442 83 471 c 0,9,10
 75 498 75 498 70 527 c 128,-1,11
 65 556 65 556 62 582.5 c 128,-1,12
 59 609 59 609 58 631 c 128,-1,13
 57 653 57 653 57 667 c 0,14,15
 57 696 57 696 71 707.5 c 128,-1,16
 85 719 85 719 102 719 c 0,17,18
 120 719 120 719 134 707.5 c 128,-1,19
 148 696 148 696 148 667 c 0,0,1
322 667 m 0,20,21
 322 655 322 655 321 633 c 128,-1,22
 320 611 320 611 317 584.5 c 128,-1,23
 314 558 314 558 309 528.5 c 128,-1,24
 304 499 304 499 296 471 c 0,25,26
 288 442 288 442 276 442 c 0,27,28
 266 442 266 442 257 471 c 0,29,30
 249 498 249 498 244 527 c 128,-1,31
 239 556 239 556 236 582.5 c 128,-1,32
 233 609 233 609 232 631 c 128,-1,33
 231 653 231 653 231 667 c 0,34,35
 231 696 231 696 245 707.5 c 128,-1,36
 259 719 259 719 276 719 c 0,37,38
 294 719 294 719 308 707.5 c 128,-1,39
 322 696 322 696 322 667 c 0,20,21
EndSplineSet
EndChar

StartChar: numbersign
Encoding: 35 35 3
Width: 520
GlyphClass: 1
Flags: W
LayerCount: 2
Fore
SplineSet
55 0 m 1,0,-1
 89 176 l 1,1,-1
 9 176 l 1,2,-1
 19 233 l 1,3,-1
 100 233 l 1,4,-1
 145 475 l 1,5,-1
 65 475 l 1,6,-1
 77 533 l 1,7,-1
 156 533 l 1,8,-1
 190 710 l 1,9,-1
 247 710 l 1,10,-1
 215 533 l 1,11,-1
 346 533 l 1,12,-1
 379 710 l 1,13,-1
 438 710 l 1,14,-1
 404 533 l 1,15,-1
 488 533 l 1,16,-1
 477 475 l 1,17,-1
 392 475 l 1,18,-1
 347 233 l 1,19,-1
 431 233 l 1,20,-1
 420 176 l 1,21,-1
 337 176 l 1,22,-1
 303 0 l 1,23,-1
 244 0 l 1,24,-1
 277 176 l 1,25,-1
 147 176 l 1,26,-1
 112 0 l 1,27,-1
 55 0 l 1,0,-1
204 475 m 1,28,-1
 158 233 l 1,29,-1
 289 233 l 1,30,-1
 334 475 l 1,31,-1
 204 475 l 1,28,-1
EndSplineSet
EndChar

StartChar: percent
Encoding: 37 37 4
Width: 721
GlyphClass: 1
Flags: W
LayerCount: 2
Fore
SplineSet
209 710 m 256,0,1
 240 710 240 710 265.5 698 c 128,-1,2
 291 686 291 686 309.5 664 c 128,-1,3
 328 642 328 642 338 611.5 c 128,-1,4
 348 581 348 581 348 545 c 0,5,6
 348 470 348 470 309.5 425.5 c 128,-1,7
 271 381 271 381 209 381 c 256,8,9
 147 381 147 381 108 425.5 c 128,-1,10
 69 470 69 470 69 545 c 0,11,12
 69 581 69 581 79.5 611.5 c 128,-1,13
 90 642 90 642 108.5 664 c 128,-1,14
 127 686 127 686 152.5 698 c 128,-1,15
 178 710 178 710 209 710 c 256,0,1
677 151 m 256,16,17
 677 76 677 76 639 31.5 c 128,-1,18
 601 -13 601 -13 538 -13 c 0,19,20
 506 -13 506 -13 480.5 -1 c 128,-1,21
 455 11 455 11 436.5 32.5 c 128,-1,22
 418 54 418 54 408 84 c 128,-1,23
 398 114 398 114 398 151 c 256,24,25
 398 188 398 188 408 218 c 128,-1,26
 418 248 418 248 436.5 270 c 128,-1,27
 455 292 455 292 480.5 304 c 128,-1,28
 506 316 506 316 538 316 c 0,29,30
 601 316 601 316 639 271 c 128,-1,31
 677 226 677 226 677 151 c 256,16,17
638 700 m 1,32,-1
 168 0 l 1,33,-1
 111 0 l 1,34,-1
 580 700 l 1,35,-1
 638 700 l 1,32,-1
612 151 m 0,36,37
 612 170 612 170 606.5 192.5 c 128,-1,38
 601 215 601 215 591 233.5 c 128,-1,39
 581 252 581 252 567.5 264.5 c 128,-1,40
 554 277 554 277 538 277 c 256,41,42
 522 277 522 277 508 264.5 c 128,-1,43
 494 252 494 252 484 233.5 c 128,-1,44
 474 215 474 215 468.5 192.5 c 128,-1,45
 463 170 463 170 463 151 c 0,46,47
 463 131 463 131 468.5 109 c 128,-1,48
 474 87 474 87 484 68.5 c 128,-1,49
 494 50 494 50 508 38 c 128,-1,50
 522 26 522 26 538 26 c 256,51,52
 554 26 554 26 567.5 38 c 128,-1,53
 581 50 581 50 591 68.5 c 128,-1,54
 601 87 601 87 606.5 109 c 128,-1,55
 612 131 612 131 612 151 c 0,36,37
283 545 m 0,56,57
 283 564 283 564 277.5 586.5 c 128,-1,58
 272 609 272 609 262 627.5 c 128,-1,59
 252 646 252 646 238.5 658.5 c 128,-1,60
 225 671 225 671 209 671 c 256,61,62
 193 671 193 671 179 658.5 c 128,-1,63
 165 646 165 646 155 627.5 c 128,-1,64
 145 609 145 609 139.5 586.5 c 128,-1,65
 134 564 134 564 134 545 c 0,66,67
 134 525 134 525 139.5 503 c 128,-1,68
 145 481 145 481 155 462.5 c 128,-1,69
 165 444 165 444 179 432 c 128,-1,70
 193 420 193 420 209 420 c 256,71,72
 225 420 225 420 238.5 432 c 128,-1,73
 252 444 252 444 262 462.5 c 128,-1,74
 272 481 272 481 277.5 503 c 128,-1,75
 283 525 283 525 283 545 c 0,56,57
EndSplineSet
EndChar

StartChar: ampersand
Encoding: 38 38 5
Width: 666
GlyphClass: 1
Flags: W
LayerCount: 2
Fore
SplineSet
581 253 m 1,0,1
 570 266 570 266 561.5 276 c 128,-1,2
 553 286 553 286 544 294.5 c 128,-1,3
 535 303 535 303 523.5 311 c 128,-1,4
 512 319 512 319 494 328 c 1,5,6
 480 293 480 293 459.5 251 c 128,-1,7
 439 209 439 209 397 156 c 1,8,9
 427 102 427 102 463.5 77.5 c 128,-1,10
 500 53 500 53 535 53 c 0,11,12
 550 53 550 53 563.5 62.5 c 128,-1,13
 577 72 577 72 588 83.5 c 128,-1,14
 599 95 599 95 607 104.5 c 128,-1,15
 615 114 615 114 621 114 c 0,16,17
 629 114 629 114 629 106 c 0,18,19
 627 92 627 92 619.5 72 c 128,-1,20
 612 52 612 52 597 32.5 c 128,-1,21
 582 13 582 13 558 -0.5 c 128,-1,22
 534 -14 534 -14 500 -14 c 0,23,24
 476 -14 476 -14 456.5 -6 c 128,-1,25
 437 2 437 2 419 17 c 128,-1,26
 401 32 401 32 383.5 52.5 c 128,-1,27
 366 73 366 73 345 98 c 1,28,29
 322 71 322 71 303.5 50.5 c 128,-1,30
 285 30 285 30 266 15.5 c 128,-1,31
 247 1 247 1 225 -6.5 c 128,-1,32
 203 -14 203 -14 174 -14 c 0,33,34
 147 -14 147 -14 122 2 c 128,-1,35
 97 18 97 18 77 41.5 c 128,-1,36
 57 65 57 65 45 92.5 c 128,-1,37
 33 120 33 120 33 144 c 0,38,39
 33 193 33 193 40.5 229 c 128,-1,40
 48 265 48 265 66 295 c 128,-1,41
 84 325 84 325 113.5 352 c 128,-1,42
 143 379 143 379 187 409 c 1,43,44
 176 436 176 436 171 455 c 128,-1,45
 166 474 166 474 163.5 488.5 c 128,-1,46
 161 503 161 503 161 515 c 128,-1,47
 161 527 161 527 161 540 c 0,48,49
 161 621 161 621 197 665.5 c 128,-1,50
 233 710 233 710 315 710 c 0,51,52
 343 710 343 710 365.5 699.5 c 128,-1,53
 388 689 388 689 404 671 c 128,-1,54
 420 653 420 653 429 629.5 c 128,-1,55
 438 606 438 606 438 580 c 0,56,57
 438 544 438 544 424.5 520 c 128,-1,58
 411 496 411 496 387.5 478 c 128,-1,59
 364 460 364 460 333 444 c 128,-1,60
 302 428 302 428 268 408 c 1,61,62
 277 382 277 382 291 352 c 128,-1,63
 305 322 305 322 320.5 291 c 128,-1,64
 336 260 336 260 352 231.5 c 128,-1,65
 368 203 368 203 382 181 c 1,66,67
 405 212 405 212 426 253 c 128,-1,68
 447 294 447 294 463.5 330.5 c 128,-1,69
 480 367 480 367 491.5 392 c 128,-1,70
 503 417 503 417 509 417 c 0,71,72
 516 417 516 417 530.5 407.5 c 128,-1,73
 545 398 545 398 561 384 c 128,-1,74
 577 370 577 370 592.5 354 c 128,-1,75
 608 338 608 338 618 326 c 1,76,-1
 581 253 l 1,0,1
235 61 m 0,77,78
 255 61 255 61 275 74 c 128,-1,79
 295 87 295 87 327 122 c 1,80,81
 307 154 307 154 287 190 c 128,-1,82
 267 226 267 226 250 260.5 c 128,-1,83
 233 295 233 295 219 325 c 128,-1,84
 205 355 205 355 198 376 c 1,85,86
 158 347 158 347 131 303.5 c 128,-1,87
 104 260 104 260 104 212 c 0,88,89
 104 181 104 181 114 153.5 c 128,-1,90
 124 126 124 126 142 105.5 c 128,-1,91
 160 85 160 85 184 73 c 128,-1,92
 208 61 208 61 235 61 c 0,77,78
225 590 m 2,93,94
 225 564 225 564 228.5 540 c 128,-1,95
 232 516 232 516 237 496.5 c 128,-1,96
 242 477 242 477 247.5 462.5 c 128,-1,97
 253 448 253 448 257 441 c 1,98,99
 303 466 303 466 329.5 501.5 c 128,-1,100
 356 537 356 537 356 562 c 0,101,102
 356 579 356 579 351.5 598 c 128,-1,103
 347 617 347 617 339 633 c 128,-1,104
 331 649 331 649 320 659.5 c 128,-1,105
 309 670 309 670 296 670 c 0,106,107
 270 670 270 670 247.5 651 c 128,-1,108
 225 632 225 632 225 600 c 2,109,-1
 225 590 l 2,93,94
EndSplineSet
EndChar

StartChar: parenleft
Encoding: 40 40 6
Width: 320
GlyphClass: 1
Flags: W
LayerCount: 2
Fore
SplineSet
121 281 m 0,0,1
 121 228 121 228 127.5 185 c 128,-1,2
 134 142 134 142 143.5 106 c 128,-1,3
 153 70 153 70 165 41.5 c 128,-1,4
 177 13 177 13 188 -9 c 0,5,6
 210 -54 210 -54 236.5 -80 c 128,-1,7
 263 -106 263 -106 287 -123 c 1,8,-1
 287 -156 l 1,9,10
 244 -138 244 -138 198.5 -100.5 c 128,-1,11
 153 -63 153 -63 116 -7.5 c 128,-1,12
 79 48 79 48 55 120.5 c 128,-1,13
 31 193 31 193 31 282 c 256,14,15
 31 371 31 371 55 444 c 128,-1,16
 79 517 79 517 116 572.5 c 128,-1,17
 153 628 153 628 198.5 665 c 128,-1,18
 244 702 244 702 287 720 c 1,19,-1
 287 688 l 1,20,21
 243 647 243 647 212 607.5 c 128,-1,22
 181 568 181 568 160.5 522 c 128,-1,23
 140 476 140 476 130.5 418 c 128,-1,24
 121 360 121 360 121 281 c 0,0,1
EndSplineSet
EndChar

StartChar: parenright
Encoding: 41 41 7
Width: 320
GlyphClass: 1
Flags: W
LayerCount: 2
Fore
SplineSet
198 281 m 256,0,1
 198 359 198 359 188 418 c 128,-1,2
 178 477 178 477 157.5 523.5 c 128,-1,3
 137 570 137 570 106 609.5 c 128,-1,4
 75 649 75 649 33 688 c 1,5,-1
 33 720 l 1,6,7
 77 702 77 702 122.5 664.5 c 128,-1,8
 168 627 168 627 204.5 572 c 128,-1,9
 241 517 241 517 264.5 444 c 128,-1,10
 288 371 288 371 288 282 c 256,11,12
 288 193 288 193 264.5 120.5 c 128,-1,13
 241 48 241 48 204.5 -7.5 c 128,-1,14
 168 -63 168 -63 122.5 -100.5 c 128,-1,15
 77 -138 77 -138 33 -156 c 1,16,-1
 33 -123 l 1,17,18
 75 -84 75 -84 106 -45.5 c 128,-1,19
 137 -7 137 -7 157.5 39.5 c 128,-1,20
 178 86 178 86 188 144.5 c 128,-1,21
 198 203 198 203 198 281 c 256,0,1
EndSplineSet
EndChar

StartChar: asterisk
Encoding: 42 42 8
Width: 360
GlyphClass: 1
Flags: W
LayerCount: 2
Fore
SplineSet
286 447 m 0,0,1
 270 447 270 447 258 454 c 128,-1,2
 246 461 246 461 235.5 471.5 c 128,-1,3
 225 482 225 482 215 493.5 c 128,-1,4
 205 505 205 505 193 514 c 1,5,6
 197 495 197 495 204 473.5 c 128,-1,7
 211 452 211 452 211 433 c 0,8,9
 211 412 211 412 202 398.5 c 128,-1,10
 193 385 193 385 176 385 c 0,11,12
 161 385 161 385 151 398.5 c 128,-1,13
 141 412 141 412 141 433 c 0,14,15
 141 453 141 453 148.5 473.5 c 128,-1,16
 156 494 156 494 161 514 c 1,17,18
 149 506 149 506 138.5 494.5 c 128,-1,19
 128 483 128 483 117.5 472.5 c 128,-1,20
 107 462 107 462 95 454.5 c 128,-1,21
 83 447 83 447 68 447 c 0,22,23
 54 447 54 447 44.5 457.5 c 128,-1,24
 35 468 35 468 35 478 c 0,25,26
 35 497 35 497 47 507 c 128,-1,27
 59 517 59 517 76 523 c 128,-1,28
 93 529 93 529 112 532.5 c 128,-1,29
 131 536 131 536 145 542 c 1,30,31
 131 549 131 549 112 553.5 c 128,-1,32
 93 558 93 558 76 564 c 128,-1,33
 59 570 59 570 47 579.5 c 128,-1,34
 35 589 35 589 35 607 c 0,35,36
 35 618 35 618 44.5 627 c 128,-1,37
 54 636 54 636 68 636 c 0,38,39
 83 636 83 636 95 629 c 128,-1,40
 107 622 107 622 117.5 611.5 c 128,-1,41
 128 601 128 601 138 589.5 c 128,-1,42
 148 578 148 578 160 569 c 1,43,44
 155 589 155 589 148 609.5 c 128,-1,45
 141 630 141 630 141 650 c 0,46,47
 141 672 141 672 151 686 c 128,-1,48
 161 700 161 700 176 700 c 0,49,50
 193 700 193 700 202 686 c 128,-1,51
 211 672 211 672 211 650 c 0,52,53
 211 631 211 631 203.5 610 c 128,-1,54
 196 589 196 589 193 569 c 1,55,56
 204 578 204 578 214.5 589.5 c 128,-1,57
 225 601 225 601 236 611.5 c 128,-1,58
 247 622 247 622 259 629 c 128,-1,59
 271 636 271 636 286 636 c 0,60,61
 299 636 299 636 307.5 627 c 128,-1,62
 316 618 316 618 316 607 c 0,63,64
 316 589 316 589 304 579 c 128,-1,65
 292 569 292 569 275.5 563 c 128,-1,66
 259 557 259 557 240 553 c 128,-1,67
 221 549 221 549 208 542 c 1,68,69
 222 535 222 535 240.5 531 c 128,-1,70
 259 527 259 527 276 521.5 c 128,-1,71
 293 516 293 516 304.5 506.5 c 128,-1,72
 316 497 316 497 316 478 c 0,73,74
 316 468 316 468 307.5 457.5 c 128,-1,75
 299 447 299 447 286 447 c 0,0,1
EndSplineSet
EndChar

StartChar: plus
Encoding: 43 43 9
Width: 574
GlyphClass: 1
Flags: W
LayerCount: 2
Fore
SplineSet
526 329 m 1,0,-1
 526 269 l 1,1,-1
 313 269 l 1,2,-1
 313 56 l 1,3,-1
 253 56 l 1,4,-1
 253 269 l 1,5,-1
 40 269 l 1,6,-1
 40 329 l 1,7,-1
 253 329 l 1,8,-1
 253 542 l 1,9,-1
 313 542 l 1,10,-1
 313 329 l 1,11,-1
 526 329 l 1,0,-1
EndSplineSet
EndChar

StartChar: hyphen
Encoding: 45 45 10
Width: 352
GlyphClass: 1
Flags: W
LayerCount: 2
Fore
SplineSet
59 332 m 1,0,-1
 213 431 l 1,1,-1
 237 384 l 1,2,-1
 83 285 l 1,3,-1
 59 332 l 1,0,-1
116 216 m 1,4,-1
 270 315 l 1,5,-1
 293 268 l 1,6,-1
 139 169 l 1,7,-1
 116 216 l 1,4,-1
EndSplineSet
EndChar

StartChar: period
Encoding: 46 46 11
Width: 307
GlyphClass: 1
Flags: W
LayerCount: 2
Fore
SplineSet
148 -12 m 256,0,1
 143 -12 143 -12 132 -1.5 c 128,-1,2
 121 9 121 9 106 23 c 256,3,4
 91 37 91 37 75.5 48 c 128,-1,5
 60 59 60 59 60 67 c 256,6,7
 60 75 60 75 75.5 86 c 128,-1,8
 91 97 91 97 107 113 c 0,9,10
 121 128 121 128 132 141.5 c 128,-1,11
 143 155 143 155 148 155 c 256,12,13
 153 155 153 155 163.5 139 c 128,-1,14
 174 123 174 123 188 108 c 0,15,16
 203 92 203 92 216 83.5 c 128,-1,17
 229 75 229 75 229 67 c 256,18,19
 229 59 229 59 216 50 c 128,-1,20
 203 41 203 41 188 27 c 0,21,22
 174 14 174 14 163.5 1 c 128,-1,23
 153 -12 153 -12 148 -12 c 256,0,1
EndSplineSet
EndChar

StartChar: slash
Encoding: 47 47 12
Width: 424
GlyphClass: 1
Flags: W
LayerCount: 2
Fore
SplineSet
410 700 m 1,0,-1
 65 0 l 1,1,-1
 10 0 l 1,2,-1
 355 700 l 1,3,-1
 410 700 l 1,0,-1
EndSplineSet
EndChar

StartChar: zero
Encoding: 48 48 13
Width: 532
GlyphClass: 1
Flags: W
LayerCount: 2
Fore
SplineSet
491 349 m 0,0,1
 491 278 491 278 479.5 223.5 c 128,-1,2
 468 169 468 169 448.5 128.5 c 128,-1,3
 429 88 429 88 405 61 c 128,-1,4
 381 34 381 34 355.5 17.5 c 128,-1,5
 330 1 330 1 305.5 -6 c 128,-1,6
 281 -13 281 -13 262 -13 c 0,7,8
 229 -13 229 -13 189 3.5 c 128,-1,9
 149 20 149 20 114.5 61 c 128,-1,10
 80 102 80 102 56.5 172 c 128,-1,11
 33 242 33 242 33 349 c 0,12,13
 33 451 33 451 56.5 520.5 c 128,-1,14
 80 590 80 590 114.5 632 c 128,-1,15
 149 674 149 674 189 692.5 c 128,-1,16
 229 711 229 711 261 711 c 0,17,18
 280 711 280 711 304.5 703 c 128,-1,19
 329 695 329 695 354.5 677.5 c 128,-1,20
 380 660 380 660 404.5 632 c 128,-1,21
 429 604 429 604 448 564 c 128,-1,22
 467 524 467 524 479 470.5 c 128,-1,23
 491 417 491 417 491 349 c 0,0,1
133 349 m 0,24,25
 130 259 130 259 138.5 198 c 128,-1,26
 147 137 147 137 164.5 100.5 c 128,-1,27
 182 64 182 64 207 48 c 128,-1,28
 232 32 232 32 262 32 c 0,29,30
 287 32 287 32 311 48 c 128,-1,31
 335 64 335 64 353.5 100.5 c 128,-1,32
 372 137 372 137 382.5 198 c 128,-1,33
 393 259 393 259 391 349 c 0,34,35
 393 452 393 452 383.5 514.5 c 128,-1,36
 374 577 374 577 356 611 c 128,-1,37
 338 645 338 645 313.5 655.5 c 128,-1,38
 289 666 289 666 261 666 c 0,39,40
 234 666 234 666 210.5 652.5 c 128,-1,41
 187 639 187 639 170 603.5 c 128,-1,42
 153 568 153 568 143 506.5 c 128,-1,43
 133 445 133 445 133 349 c 0,24,25
EndSplineSet
EndChar

StartChar: one
Encoding: 49 49 14
Width: 450
GlyphClass: 1
Flags: W
LayerCount: 2
Fore
SplineSet
46 581 m 0,0,1
 46 587 46 587 48.5 594 c 128,-1,2
 51 601 51 601 58 601 c 0,3,4
 115 601 115 601 147 608 c 128,-1,5
 179 615 179 615 196 638 c 0,6,7
 202 645 202 645 207.5 656.5 c 128,-1,8
 213 668 213 668 219.5 679 c 128,-1,9
 226 690 226 690 233.5 698 c 128,-1,10
 241 706 241 706 249 706 c 0,11,12
 255 706 255 706 266.5 702 c 128,-1,13
 278 698 278 698 278 686 c 2,14,-1
 278 60 l 2,15,16
 278 54 278 54 285 49 c 128,-1,17
 292 44 292 44 303 44 c 2,18,-1
 408 44 l 2,19,20
 415 44 415 44 417.5 35 c 128,-1,21
 420 26 420 26 420 20 c 0,22,23
 420 1 420 1 417.5 -4 c 128,-1,24
 415 -9 415 -9 408 -9 c 0,25,26
 373 -9 373 -9 332.5 -4.5 c 128,-1,27
 292 0 292 0 233 0 c 0,28,29
 201 0 201 0 176.5 -1.5 c 128,-1,30
 152 -3 152 -3 131.5 -4.5 c 128,-1,31
 111 -6 111 -6 93 -7.5 c 128,-1,32
 75 -9 75 -9 58 -9 c 0,33,34
 45 -9 45 -9 45 17 c 0,35,36
 45 31 45 31 50.5 37.5 c 128,-1,37
 56 44 56 44 62 44 c 2,38,-1
 160 44 l 2,39,40
 171 44 171 44 179.5 49 c 128,-1,41
 188 54 188 54 188 60 c 2,42,-1
 188 495 l 2,43,44
 188 516 188 516 177.5 527.5 c 128,-1,45
 167 539 167 539 151 545 c 128,-1,46
 135 551 135 551 117 553.5 c 128,-1,47
 99 556 99 556 83 558.5 c 128,-1,48
 67 561 67 561 56.5 565.5 c 128,-1,49
 46 570 46 570 46 581 c 0,0,1
EndSplineSet
EndChar

StartChar: two
Encoding: 50 50 15
Width: 513
GlyphClass: 1
Flags: W
LayerCount: 2
Fore
SplineSet
420 238 m 0,0,1
 431 238 431 238 437 228.5 c 128,-1,2
 443 219 443 219 443 202 c 0,3,4
 443 179 443 179 439.5 152 c 128,-1,5
 436 125 436 125 432.5 98 c 128,-1,6
 429 71 429 71 425.5 46 c 128,-1,7
 422 21 422 21 422 2 c 0,8,9
 422 -5 422 -5 418.5 -7 c 128,-1,10
 415 -9 415 -9 410 -9 c 0,11,12
 387 -9 387 -9 365.5 -4.5 c 128,-1,13
 344 0 344 0 329 0 c 2,14,-1
 129 0 l 2,15,16
 123 0 123 0 114 -1.5 c 128,-1,17
 105 -3 105 -3 96 -5 c 128,-1,18
 87 -7 87 -7 79.5 -8.5 c 128,-1,19
 72 -10 72 -10 68 -10 c 0,20,21
 50 -10 50 -10 44 -8 c 128,-1,22
 38 -6 38 -6 38 0 c 0,23,24
 38 16 38 16 43.5 43 c 128,-1,25
 49 70 49 70 58 98.5 c 128,-1,26
 67 127 67 127 78 152.5 c 128,-1,27
 89 178 89 178 100 190 c 0,28,29
 126 224 126 224 155 249 c 128,-1,30
 184 274 184 274 211.5 294 c 128,-1,31
 239 314 239 314 264 332 c 128,-1,32
 289 350 289 350 308 372 c 128,-1,33
 327 394 327 394 338 422.5 c 128,-1,34
 349 451 349 451 349 492 c 0,35,36
 349 582 349 582 315 622 c 128,-1,37
 281 662 281 662 226 662 c 0,38,39
 200 662 200 662 172 652.5 c 128,-1,40
 144 643 144 643 120 626 c 128,-1,41
 96 609 96 609 80.5 584.5 c 128,-1,42
 65 560 65 560 65 530 c 0,43,44
 65 516 65 516 72.5 499.5 c 128,-1,45
 80 483 80 483 95 474 c 1,46,47
 105 482 105 482 112.5 487.5 c 128,-1,48
 120 493 120 493 137 493 c 256,49,50
 154 493 154 493 167 478 c 128,-1,51
 180 463 180 463 180 447 c 0,52,53
 180 430 180 430 174 417.5 c 128,-1,54
 168 405 168 405 158.5 397 c 128,-1,55
 149 389 149 389 137 385 c 128,-1,56
 125 381 125 381 114 381 c 0,57,58
 93 381 93 381 76 391.5 c 128,-1,59
 59 402 59 402 47.5 419 c 128,-1,60
 36 436 36 436 30 456 c 128,-1,61
 24 476 24 476 24 496 c 0,62,63
 24 537 24 537 36.5 575.5 c 128,-1,64
 49 614 49 614 74.5 643.5 c 128,-1,65
 100 673 100 673 138 691 c 128,-1,66
 176 709 176 709 226 709 c 0,67,68
 270 709 270 709 311 693.5 c 128,-1,69
 352 678 352 678 383.5 650.5 c 128,-1,70
 415 623 415 623 434 585 c 128,-1,71
 453 547 453 547 453 502 c 0,72,73
 453 445 453 445 438.5 406.5 c 128,-1,74
 424 368 424 368 395.5 339.5 c 128,-1,75
 367 311 367 311 325 288 c 128,-1,76
 283 265 283 265 228 239 c 0,77,78
 192 220 192 220 167 199 c 128,-1,79
 142 178 142 178 127 158.5 c 128,-1,80
 112 139 112 139 106 121 c 128,-1,81
 100 103 100 103 101 90 c 1,82,-1
 347 90 l 2,83,84
 375 90 375 90 387 113 c 128,-1,85
 399 136 399 136 403 164 c 128,-1,86
 407 192 407 192 409 215 c 128,-1,87
 411 238 411 238 420 238 c 0,0,1
EndSplineSet
EndChar

StartChar: three
Encoding: 51 51 16
Width: 496
GlyphClass: 1
Flags: W
LayerCount: 2
Fore
SplineSet
229 354 m 0,0,1
 220 354 220 354 205 349 c 128,-1,2
 190 344 190 344 179 344 c 0,3,4
 171 344 171 344 163.5 351 c 128,-1,5
 156 358 156 358 156 375 c 0,6,7
 156 390 156 390 162 396 c 128,-1,8
 168 402 168 402 179 402 c 0,9,10
 186 402 186 402 201.5 399.5 c 128,-1,11
 217 397 217 397 229 397 c 0,12,13
 259 397 259 397 277.5 410 c 128,-1,14
 296 423 296 423 306.5 442 c 128,-1,15
 317 461 317 461 320.5 483.5 c 128,-1,16
 324 506 324 506 324 524 c 0,17,18
 324 552 324 552 319.5 577.5 c 128,-1,19
 315 603 315 603 303 622 c 128,-1,20
 291 641 291 641 269 652.5 c 128,-1,21
 247 664 247 664 212 664 c 0,22,23
 190 664 190 664 169.5 657.5 c 128,-1,24
 149 651 149 651 133.5 639 c 128,-1,25
 118 627 118 627 109 610 c 128,-1,26
 100 593 100 593 100 573 c 1,27,28
 107 573 107 573 119 570.5 c 128,-1,29
 131 568 131 568 141.5 562 c 128,-1,30
 152 556 152 556 160 546 c 128,-1,31
 168 536 168 536 168 521 c 0,32,33
 168 492 168 492 151 476 c 128,-1,34
 134 460 134 460 102 460 c 0,35,36
 66 460 66 460 49.5 487 c 128,-1,37
 33 514 33 514 33 553 c 0,38,39
 33 584 33 584 49.5 612 c 128,-1,40
 66 640 66 640 93 661 c 128,-1,41
 120 682 120 682 154 694.5 c 128,-1,42
 188 707 188 707 223 707 c 0,43,44
 263 707 263 707 299 692 c 128,-1,45
 335 677 335 677 362 652.5 c 128,-1,46
 389 628 389 628 405 595.5 c 128,-1,47
 421 563 421 563 421 529 c 0,48,49
 421 478 421 478 385.5 435.5 c 128,-1,50
 350 393 350 393 281 376 c 1,51,52
 317 373 317 373 345 360 c 128,-1,53
 373 347 373 347 393 327 c 128,-1,54
 413 307 413 307 424 282 c 128,-1,55
 435 257 435 257 435 230 c 0,56,57
 435 179 435 179 416.5 136 c 128,-1,58
 398 93 398 93 368 61.5 c 128,-1,59
 338 30 338 30 299.5 12 c 128,-1,60
 261 -6 261 -6 220 -6 c 0,61,62
 169 -6 169 -6 132 14 c 128,-1,63
 95 34 95 34 71 62.5 c 128,-1,64
 47 91 47 91 35.5 123.5 c 128,-1,65
 24 156 24 156 24 182 c 0,66,67
 24 224 24 224 44 246.5 c 128,-1,68
 64 269 64 269 102 269 c 0,69,70
 120 269 120 269 133.5 262 c 128,-1,71
 147 255 147 255 155.5 245.5 c 128,-1,72
 164 236 164 236 168 224.5 c 128,-1,73
 172 213 172 213 172 204 c 0,74,75
 172 181 172 181 165.5 167.5 c 128,-1,76
 159 154 159 154 148.5 146 c 128,-1,77
 138 138 138 138 125.5 135.5 c 128,-1,78
 113 133 113 133 102 133 c 1,79,80
 105 121 105 121 116 107.5 c 128,-1,81
 127 94 127 94 143 83.5 c 128,-1,82
 159 73 159 73 179 66 c 128,-1,83
 199 59 199 59 220 59 c 0,84,85
 244 59 244 59 264.5 71.5 c 128,-1,86
 285 84 285 84 300.5 103.5 c 128,-1,87
 316 123 316 123 325 147 c 128,-1,88
 334 171 334 171 334 193 c 0,89,90
 334 249 334 249 324 281.5 c 128,-1,91
 314 314 314 314 298.5 330 c 128,-1,92
 283 346 283 346 264.5 350 c 128,-1,93
 246 354 246 354 229 354 c 0,0,1
EndSplineSet
EndChar

StartChar: four
Encoding: 52 52 17
Width: 523
GlyphClass: 1
Flags: W
LayerCount: 2
Fore
SplineSet
145 23 m 0,0,1
 145 39 145 39 149.5 45 c 128,-1,2
 154 51 154 51 165 51 c 2,3,-1
 265 51 l 2,4,5
 273 51 273 51 277 56 c 128,-1,6
 281 61 281 61 281 67 c 2,7,-1
 281 176 l 1,8,-1
 63 176 l 2,9,10
 58 176 58 176 52.5 178.5 c 128,-1,11
 47 181 47 181 47 189 c 2,12,-1
 47 232 l 1,13,-1
 322 672 l 2,14,15
 333 687 333 687 340 696 c 128,-1,16
 347 705 347 705 352 705 c 0,17,18
 363 705 363 705 367 701.5 c 128,-1,19
 371 698 371 698 371 692 c 2,20,-1
 371 232 l 1,21,-1
 460 232 l 2,22,23
 471 232 471 232 474.5 226.5 c 128,-1,24
 478 221 478 221 478 204 c 0,25,26
 478 186 478 186 474.5 181 c 128,-1,27
 471 176 471 176 460 176 c 2,28,-1
 371 176 l 1,29,-1
 371 63 l 2,30,31
 371 58 371 58 374.5 54.5 c 128,-1,32
 378 51 378 51 383 51 c 2,33,-1
 444 51 l 2,34,35
 450 51 450 51 455 46 c 128,-1,36
 460 41 460 41 460 35 c 2,37,-1
 460 5 l 2,38,39
 460 -6 460 -6 439 -6 c 0,40,41
 431 -6 431 -6 423.5 -5 c 128,-1,42
 416 -4 416 -4 404 -3 c 128,-1,43
 392 -2 392 -2 373.5 -1 c 128,-1,44
 355 0 355 0 326 0 c 0,45,46
 287 0 287 0 261.5 -1 c 128,-1,47
 236 -2 236 -2 218 -3 c 128,-1,48
 200 -4 200 -4 188 -5 c 128,-1,49
 176 -6 176 -6 166 -6 c 0,50,51
 154 -6 154 -6 149.5 -0.5 c 128,-1,52
 145 5 145 5 145 23 c 0,0,1
98 232 m 1,53,-1
 281 232 l 1,54,-1
 281 526 l 1,55,-1
 98 232 l 1,53,-1
EndSplineSet
EndChar

StartChar: five
Encoding: 53 53 18
Width: 516
GlyphClass: 1
Flags: W
LayerCount: 2
Fore
SplineSet
52 171 m 0,0,1
 52 190 52 190 56.5 207 c 128,-1,2
 61 224 61 224 70.5 237 c 128,-1,3
 80 250 80 250 95.5 258 c 128,-1,4
 111 266 111 266 133 266 c 0,5,6
 160 266 160 266 180.5 252 c 128,-1,7
 201 238 201 238 201 207 c 0,8,9
 201 183 201 183 194 168.5 c 128,-1,10
 187 154 187 154 176 146 c 128,-1,11
 165 138 165 138 152 135.5 c 128,-1,12
 139 133 139 133 127 133 c 1,13,14
 130 113 130 113 140.5 98.5 c 128,-1,15
 151 84 151 84 165 75 c 128,-1,16
 179 66 179 66 196 61.5 c 128,-1,17
 213 57 213 57 229 57 c 0,18,19
 257 57 257 57 280.5 71.5 c 128,-1,20
 304 86 304 86 320.5 112 c 128,-1,21
 337 138 337 138 346.5 174.5 c 128,-1,22
 356 211 356 211 356 255 c 0,23,24
 356 290 356 290 348.5 320.5 c 128,-1,25
 341 351 341 351 328.5 374 c 128,-1,26
 316 397 316 397 298 410.5 c 128,-1,27
 280 424 280 424 259 424 c 0,28,29
 218 424 218 424 191 415 c 128,-1,30
 164 406 164 406 144 389 c 1,31,32
 141 351 141 351 134.5 334 c 128,-1,33
 128 317 128 317 105 317 c 0,34,35
 92 317 92 317 78.5 326 c 128,-1,36
 65 335 65 335 65 352 c 0,37,38
 65 362 65 362 68 374 c 128,-1,39
 71 386 71 386 82 399 c 1,40,-1
 97 684 l 2,41,42
 98 692 98 692 102.5 695.5 c 128,-1,43
 107 699 107 699 110 699 c 0,44,45
 121 699 121 699 133 694 c 128,-1,46
 145 689 145 689 160.5 683 c 128,-1,47
 176 677 176 677 195.5 672 c 128,-1,48
 215 667 215 667 240 667 c 0,49,50
 279 667 279 667 305.5 677 c 128,-1,51
 332 687 332 687 350 698.5 c 128,-1,52
 368 710 368 710 380 720 c 128,-1,53
 392 730 392 730 403 730 c 0,54,55
 410 730 410 730 422 719.5 c 128,-1,56
 434 709 434 709 434 702 c 0,57,58
 434 686 434 686 414 664.5 c 128,-1,59
 394 643 394 643 366.5 623.5 c 128,-1,60
 339 604 339 604 310.5 590.5 c 128,-1,61
 282 577 282 577 264 577 c 0,62,63
 236 577 236 577 207.5 578.5 c 128,-1,64
 179 580 179 580 153 584 c 1,65,-1
 146 442 l 1,66,67
 170 456 170 456 197 464.5 c 128,-1,68
 224 473 224 473 250 473 c 0,69,70
 295 473 295 473 333.5 459.5 c 128,-1,71
 372 446 372 446 400.5 420 c 128,-1,72
 429 394 429 394 445 355.5 c 128,-1,73
 461 317 461 317 461 267 c 256,74,75
 461 217 461 217 447 168.5 c 128,-1,76
 433 120 433 120 404.5 81.5 c 128,-1,77
 376 43 376 43 332 19 c 128,-1,78
 288 -5 288 -5 229 -5 c 0,79,80
 190 -5 190 -5 157.5 8 c 128,-1,81
 125 21 125 21 101.5 44.5 c 128,-1,82
 78 68 78 68 65 100 c 128,-1,83
 52 132 52 132 52 171 c 0,0,1
EndSplineSet
EndChar

StartChar: six
Encoding: 54 54 19
Width: 504
GlyphClass: 1
Flags: W
LayerCount: 2
Fore
SplineSet
425 565 m 0,0,1
 425 530 425 530 407 505 c 128,-1,2
 389 480 389 480 354 480 c 0,3,4
 324 480 324 480 305 497 c 128,-1,5
 286 514 286 514 286 543 c 0,6,7
 286 552 286 552 289 562.5 c 128,-1,8
 292 573 292 573 298 582 c 128,-1,9
 304 591 304 591 312 596.5 c 128,-1,10
 320 602 320 602 329 602 c 1,11,12
 326 615 326 615 318 623.5 c 128,-1,13
 310 632 310 632 301 636.5 c 128,-1,14
 292 641 292 641 283.5 643 c 128,-1,15
 275 645 275 645 270 645 c 0,16,17
 247 645 247 645 226 631.5 c 128,-1,18
 205 618 205 618 188.5 583.5 c 128,-1,19
 172 549 172 549 162 491 c 128,-1,20
 152 433 152 433 152 345 c 1,21,22
 168 368 168 368 187 383 c 128,-1,23
 206 398 206 398 226 407 c 128,-1,24
 246 416 246 416 265.5 419.5 c 128,-1,25
 285 423 285 423 303 423 c 0,26,27
 334 423 334 423 360.5 409.5 c 128,-1,28
 387 396 387 396 406.5 371 c 128,-1,29
 426 346 426 346 437 312 c 128,-1,30
 448 278 448 278 448 237 c 0,31,32
 448 187 448 187 431.5 142.5 c 128,-1,33
 415 98 415 98 388.5 65 c 128,-1,34
 362 32 362 32 328 12.5 c 128,-1,35
 294 -7 294 -7 259 -7 c 0,36,37
 162 -7 162 -7 106.5 82 c 128,-1,38
 51 171 51 171 51 335 c 0,39,40
 51 413 51 413 66 480.5 c 128,-1,41
 81 548 81 548 109 598 c 128,-1,42
 137 648 137 648 175.5 676.5 c 128,-1,43
 214 705 214 705 262 705 c 0,44,45
 295 705 295 705 324.5 692.5 c 128,-1,46
 354 680 354 680 376.5 660 c 128,-1,47
 399 640 399 640 412 615 c 128,-1,48
 425 590 425 590 425 565 c 0,0,1
259 76 m 0,49,50
 271 76 271 76 286 82 c 128,-1,51
 301 88 301 88 314.5 103 c 128,-1,52
 328 118 328 118 337 143 c 128,-1,53
 346 168 346 168 346 206 c 0,54,55
 346 229 346 229 341 257.5 c 128,-1,56
 336 286 336 286 325.5 311.5 c 128,-1,57
 315 337 315 337 298.5 354 c 128,-1,58
 282 371 282 371 258 371 c 0,59,60
 236 371 236 371 205 345.5 c 128,-1,61
 174 320 174 320 152 273 c 1,62,63
 152 220 152 220 160.5 183 c 128,-1,64
 169 146 169 146 183.5 122 c 128,-1,65
 198 98 198 98 217.5 87 c 128,-1,66
 237 76 237 76 259 76 c 0,49,50
EndSplineSet
EndChar

StartChar: seven
Encoding: 55 55 20
Width: 446
GlyphClass: 1
Flags: W
LayerCount: 2
Fore
SplineSet
122 131 m 0,0,1
 122 180 122 180 146 239 c 128,-1,2
 170 298 170 298 203.5 360 c 128,-1,3
 237 422 237 422 273.5 484.5 c 128,-1,4
 310 547 310 547 335 605 c 1,5,-1
 138 605 l 2,6,7
 109 605 109 605 98 586 c 128,-1,8
 87 567 87 567 81.5 543.5 c 128,-1,9
 76 520 76 520 70.5 501 c 128,-1,10
 65 482 65 482 46 482 c 0,11,12
 26 482 26 482 18.5 498 c 128,-1,13
 11 514 11 514 11 531 c 0,14,15
 11 551 11 551 17.5 587.5 c 128,-1,16
 24 624 24 624 24 679 c 0,17,18
 24 688 24 688 31.5 697.5 c 128,-1,19
 39 707 39 707 53 706 c 2,20,-1
 129 700 l 1,21,-1
 344 700 l 2,22,23
 364 700 364 700 377.5 704.5 c 128,-1,24
 391 709 391 709 408 709 c 0,25,26
 419 709 419 709 423 702.5 c 128,-1,27
 427 696 427 696 427 687 c 0,28,29
 427 673 427 673 421.5 654 c 128,-1,30
 416 635 416 635 408 614.5 c 128,-1,31
 400 594 400 594 390 574 c 128,-1,32
 380 554 380 554 370 538 c 0,33,34
 356 516 356 516 335.5 475 c 128,-1,35
 315 434 315 434 296.5 389.5 c 128,-1,36
 278 345 278 345 264.5 306.5 c 128,-1,37
 251 268 251 268 251 250 c 0,38,39
 249 221 249 221 252.5 191.5 c 128,-1,40
 256 162 256 162 256 128 c 0,41,42
 256 109 256 109 252.5 85.5 c 128,-1,43
 249 62 249 62 241 41 c 128,-1,44
 233 20 233 20 221 6 c 128,-1,45
 209 -8 209 -8 192 -8 c 0,46,47
 167 -8 167 -8 153 6 c 128,-1,48
 139 20 139 20 132 41 c 128,-1,49
 125 62 125 62 123.5 86.5 c 128,-1,50
 122 111 122 111 122 131 c 0,0,1
EndSplineSet
EndChar

StartChar: eight
Encoding: 56 56 21
Width: 504
GlyphClass: 1
Flags: W
LayerCount: 2
Fore
SplineSet
45 207 m 2,0,1
 45 237 45 237 51.5 260 c 128,-1,2
 58 283 58 283 71.5 302.5 c 128,-1,3
 85 322 85 322 106 338.5 c 128,-1,4
 127 355 127 355 155 372 c 1,5,6
 128 390 128 390 109.5 406 c 128,-1,7
 91 422 91 422 79.5 440.5 c 128,-1,8
 68 459 68 459 63 481 c 128,-1,9
 58 503 58 503 58 532 c 0,10,11
 58 565 58 565 73 595.5 c 128,-1,12
 88 626 88 626 113.5 649.5 c 128,-1,13
 139 673 139 673 172.5 687.5 c 128,-1,14
 206 702 206 702 242 702 c 0,15,16
 279 702 279 702 311 685.5 c 128,-1,17
 343 669 343 669 367 644.5 c 128,-1,18
 391 620 391 620 404.5 592 c 128,-1,19
 418 564 418 564 418 542 c 0,20,21
 418 494 418 494 394.5 463.5 c 128,-1,22
 371 433 371 433 326 405 c 1,23,24
 365 385 365 385 388 364.5 c 128,-1,25
 411 344 411 344 423 320.5 c 128,-1,26
 435 297 435 297 439 270 c 128,-1,27
 443 243 443 243 443 210 c 0,28,29
 443 176 443 176 434 138 c 128,-1,30
 425 100 425 100 403 68.5 c 128,-1,31
 381 37 381 37 344.5 16 c 128,-1,32
 308 -5 308 -5 253 -5 c 0,33,34
 202 -5 202 -5 163.5 13 c 128,-1,35
 125 31 125 31 98.5 59.5 c 128,-1,36
 72 88 72 88 58.5 124.5 c 128,-1,37
 45 161 45 161 45 198 c 2,38,-1
 45 207 l 2,0,1
363 203 m 2,39,40
 363 237 363 237 351.5 258.5 c 128,-1,41
 340 280 340 280 318 296 c 128,-1,42
 296 312 296 312 264.5 324.5 c 128,-1,43
 233 337 233 337 193 352 c 1,44,45
 173 338 173 338 159 326 c 128,-1,46
 145 314 145 314 136 300.5 c 128,-1,47
 127 287 127 287 123 271 c 128,-1,48
 119 255 119 255 119 234 c 0,49,50
 119 198 119 198 130.5 169.5 c 128,-1,51
 142 141 142 141 161 121.5 c 128,-1,52
 180 102 180 102 205 92 c 128,-1,53
 230 82 230 82 257 82 c 0,54,55
 289 82 289 82 309.5 93.5 c 128,-1,56
 330 105 330 105 342 122 c 128,-1,57
 354 139 354 139 358.5 159.5 c 128,-1,58
 363 180 363 180 363 198 c 2,59,-1
 363 203 l 2,39,40
136 535 m 2,60,61
 136 506 136 506 171 477 c 128,-1,62
 206 448 206 448 278 422 c 1,63,64
 299 435 299 435 312 445 c 128,-1,65
 325 455 325 455 332.5 465 c 128,-1,66
 340 475 340 475 343 488 c 128,-1,67
 346 501 346 501 346 520 c 0,68,69
 346 559 346 559 333 583 c 128,-1,70
 320 607 320 607 301 621 c 128,-1,71
 282 635 282 635 261.5 640 c 128,-1,72
 241 645 241 645 226 645 c 0,73,74
 182 645 182 645 159 616.5 c 128,-1,75
 136 588 136 588 136 545 c 2,76,-1
 136 535 l 2,60,61
EndSplineSet
EndChar

StartChar: colon
Encoding: 58 58 22
Width: 307
GlyphClass: 1
Flags: W
LayerCount: 2
Fore
SplineSet
148 -11 m 256,0,1
 143 -11 143 -11 132 -0.5 c 128,-1,2
 121 10 121 10 106 24 c 256,3,4
 91 38 91 38 75.5 49 c 128,-1,5
 60 60 60 60 60 68 c 256,6,7
 60 76 60 76 75.5 87 c 128,-1,8
 91 98 91 98 107 114 c 0,9,10
 121 129 121 129 132 142.5 c 128,-1,11
 143 156 143 156 148 156 c 256,12,13
 153 156 153 156 163.5 140 c 128,-1,14
 174 124 174 124 188 109 c 0,15,16
 203 93 203 93 216 84.5 c 128,-1,17
 229 76 229 76 229 68 c 256,18,19
 229 60 229 60 216 51 c 128,-1,20
 203 42 203 42 188 28 c 0,21,22
 174 15 174 15 163.5 2 c 128,-1,23
 153 -11 153 -11 148 -11 c 256,0,1
141 327 m 256,24,25
 136 327 136 327 125 337.5 c 128,-1,26
 114 348 114 348 99 362 c 256,27,28
 84 376 84 376 68.5 387 c 128,-1,29
 53 398 53 398 53 406 c 256,30,31
 53 414 53 414 68.5 425 c 128,-1,32
 84 436 84 436 100 452 c 0,33,34
 114 467 114 467 125 480.5 c 128,-1,35
 136 494 136 494 141 494 c 256,36,37
 146 494 146 494 156.5 478 c 128,-1,38
 167 462 167 462 181 447 c 0,39,40
 196 431 196 431 209 422.5 c 128,-1,41
 222 414 222 414 222 406 c 256,42,43
 222 398 222 398 209 389 c 128,-1,44
 196 380 196 380 181 366 c 0,45,46
 167 353 167 353 156.5 340 c 128,-1,47
 146 327 146 327 141 327 c 256,24,25
EndSplineSet
EndChar

StartChar: less
Encoding: 60 60 23
Width: 473
GlyphClass: 1
Flags: W
LayerCount: 2
Fore
SplineSet
40 315 m 1,0,-1
 431 487 l 1,1,-1
 431 426 l 1,2,-1
 147 300 l 1,3,-1
 431 173 l 1,4,-1
 431 112 l 1,5,-1
 40 284 l 1,6,-1
 40 315 l 1,0,-1
EndSplineSet
EndChar

StartChar: equal
Encoding: 61 61 24
Width: 541
GlyphClass: 1
Flags: W
LayerCount: 2
Fore
SplineSet
71 390 m 1,0,-1
 461 390 l 1,1,-1
 461 336 l 1,2,-1
 71 336 l 1,3,-1
 71 390 l 1,0,-1
71 265 m 1,4,-1
 461 265 l 1,5,-1
 461 211 l 1,6,-1
 71 211 l 1,7,-1
 71 265 l 1,4,-1
EndSplineSet
EndChar

StartChar: greater
Encoding: 62 62 25
Width: 473
GlyphClass: 1
Flags: W
LayerCount: 2
Fore
SplineSet
431 284 m 1,0,-1
 40 112 l 1,1,-1
 40 173 l 1,2,-1
 324 300 l 1,3,-1
 40 426 l 1,4,-1
 40 487 l 1,5,-1
 431 315 l 1,6,-1
 431 284 l 1,0,-1
EndSplineSet
EndChar

StartChar: question
Encoding: 63 63 26
Width: 500
GlyphClass: 1
Flags: W
LayerCount: 2
Fore
SplineSet
225 384 m 0,0,1
 256 394 256 394 282.5 406 c 128,-1,2
 309 418 309 418 328.5 435 c 128,-1,3
 348 452 348 452 359.5 475.5 c 128,-1,4
 371 499 371 499 371 534 c 0,5,6
 371 552 371 552 364.5 573 c 128,-1,7
 358 594 358 594 343 612.5 c 128,-1,8
 328 631 328 631 305 643.5 c 128,-1,9
 282 656 282 656 249 656 c 0,10,11
 201 656 201 656 178.5 640 c 128,-1,12
 156 624 156 624 151 586 c 1,13,14
 161 586 161 586 172 583.5 c 128,-1,15
 183 581 183 581 192.5 574.5 c 128,-1,16
 202 568 202 568 208 557 c 128,-1,17
 214 546 214 546 214 529 c 0,18,19
 214 496 214 496 197 481 c 128,-1,20
 180 466 180 466 151 466 c 0,21,22
 130 466 130 466 117 473.5 c 128,-1,23
 104 481 104 481 96.5 493.5 c 128,-1,24
 89 506 89 506 86.5 521.5 c 128,-1,25
 84 537 84 537 84 554 c 0,26,27
 84 583 84 583 97 610.5 c 128,-1,28
 110 638 110 638 133 659 c 128,-1,29
 156 680 156 680 189 693 c 128,-1,30
 222 706 222 706 262 706 c 0,31,32
 305 706 305 706 339.5 689 c 128,-1,33
 374 672 374 672 398.5 643.5 c 128,-1,34
 423 615 423 615 436 577.5 c 128,-1,35
 449 540 449 540 449 500 c 0,36,37
 449 435 449 435 421.5 399 c 128,-1,38
 394 363 394 363 345 343 c 0,39,40
 294 322 294 322 272.5 303 c 128,-1,41
 251 284 251 284 251 273 c 2,42,-1
 251 227 l 2,43,44
 251 217 251 217 243 209.5 c 128,-1,45
 235 202 235 202 227 202 c 0,46,47
 217 202 217 202 208 207.5 c 128,-1,48
 199 213 199 213 199 228 c 2,49,-1
 199 351 l 2,50,51
 199 359 199 359 206 369.5 c 128,-1,52
 213 380 213 380 225 384 c 0,0,1
228 -12 m 256,53,54
 223 -12 223 -12 212 -1.5 c 128,-1,55
 201 9 201 9 186 23 c 256,56,57
 171 37 171 37 155.5 48 c 128,-1,58
 140 59 140 59 140 67 c 256,59,60
 140 75 140 75 155.5 86 c 128,-1,61
 171 97 171 97 187 113 c 0,62,63
 201 128 201 128 212 141.5 c 128,-1,64
 223 155 223 155 228 155 c 256,65,66
 233 155 233 155 243.5 139 c 128,-1,67
 254 123 254 123 268 108 c 0,68,69
 283 92 283 92 296 83.5 c 128,-1,70
 309 75 309 75 309 67 c 256,71,72
 309 59 309 59 296 50 c 128,-1,73
 283 41 283 41 268 27 c 0,74,75
 254 14 254 14 243.5 1 c 128,-1,76
 233 -12 233 -12 228 -12 c 256,53,54
EndSplineSet
EndChar

StartChar: at
Encoding: 64 64 27
Width: 977
GlyphClass: 1
Flags: W
LayerCount: 2
Fore
SplineSet
268 220 m 0,0,1
 268 272 268 272 279 309.5 c 128,-1,2
 290 347 290 347 308.5 373.5 c 128,-1,3
 327 400 327 400 352 418.5 c 128,-1,4
 377 437 377 437 405 452 c 0,5,6
 409 454 409 454 415 459.5 c 128,-1,7
 421 465 421 465 427.5 471 c 128,-1,8
 434 477 434 477 440 482 c 128,-1,9
 446 487 446 487 449 487 c 0,10,11
 453 487 453 487 471 475 c 128,-1,12
 489 463 489 463 515 448.5 c 128,-1,13
 541 434 541 434 570.5 423 c 128,-1,14
 600 412 600 412 627 414 c 0,15,16
 632 414 632 414 633.5 411 c 128,-1,17
 635 408 635 408 635 405 c 0,18,19
 635 399 635 399 626.5 394.5 c 128,-1,20
 618 390 618 390 607.5 384.5 c 128,-1,21
 597 379 597 379 588.5 371 c 128,-1,22
 580 363 580 363 580 350 c 2,23,-1
 580 100 l 2,24,25
 580 91 580 91 588.5 82.5 c 128,-1,26
 597 74 597 74 608 74 c 0,27,28
 616 74 616 74 639 88 c 128,-1,29
 662 102 662 102 686 129.5 c 128,-1,30
 710 157 710 157 729 197.5 c 128,-1,31
 748 238 748 238 748 291 c 0,32,33
 748 343 748 343 731.5 395.5 c 128,-1,34
 715 448 715 448 679.5 491 c 128,-1,35
 644 534 644 534 588 561 c 128,-1,36
 532 588 532 588 454 588 c 0,37,38
 380 588 380 588 319.5 563 c 128,-1,39
 259 538 259 538 215.5 493 c 128,-1,40
 172 448 172 448 148 385 c 128,-1,41
 124 322 124 322 124 245 c 0,42,43
 124 175 124 175 147 112 c 128,-1,44
 170 49 170 49 212.5 1 c 128,-1,45
 255 -47 255 -47 316 -75.5 c 128,-1,46
 377 -104 377 -104 454 -104 c 0,47,48
 527 -104 527 -104 591.5 -84.5 c 128,-1,49
 656 -65 656 -65 707 -22.5 c 128,-1,50
 758 20 758 20 793 86 c 128,-1,51
 828 152 828 152 841 245 c 1,52,-1
 888 245 l 1,53,54
 880 160 880 160 844.5 87 c 128,-1,55
 809 14 809 14 752 -40 c 128,-1,56
 695 -94 695 -94 619 -124.5 c 128,-1,57
 543 -155 543 -155 454 -155 c 0,58,59
 355 -155 355 -155 280.5 -122.5 c 128,-1,60
 206 -90 206 -90 156 -35.5 c 128,-1,61
 106 19 106 19 81 91.5 c 128,-1,62
 56 164 56 164 56 245 c 0,63,64
 56 335 56 335 85 408 c 128,-1,65
 114 481 114 481 166.5 532 c 128,-1,66
 219 583 219 583 292 611 c 128,-1,67
 365 639 365 639 454 639 c 0,68,69
 550 639 550 639 615.5 607 c 128,-1,70
 681 575 681 575 721 525 c 128,-1,71
 761 475 761 475 778.5 413 c 128,-1,72
 796 351 796 351 796 291 c 0,73,74
 796 226 796 226 770 171 c 128,-1,75
 744 116 744 116 706.5 75 c 128,-1,76
 669 34 669 34 626 11 c 128,-1,77
 583 -12 583 -12 549 -12 c 0,78,79
 545 -12 545 -12 537 -2.5 c 128,-1,80
 529 7 529 7 521.5 21.5 c 128,-1,81
 514 36 514 36 508 52 c 128,-1,82
 502 68 502 68 502 81 c 1,83,84
 488 71 488 71 478 64.5 c 128,-1,85
 468 58 468 58 458.5 52 c 128,-1,86
 449 46 449 46 438.5 40 c 128,-1,87
 428 34 428 34 414 25 c 0,88,89
 409 22 409 22 399.5 16 c 128,-1,90
 390 10 390 10 380 3.5 c 128,-1,91
 370 -3 370 -3 360.5 -7.5 c 128,-1,92
 351 -12 351 -12 347 -12 c 0,93,94
 341 -12 341 -12 328 2 c 128,-1,95
 315 16 315 16 301.5 44.5 c 128,-1,96
 288 73 288 73 278 116.5 c 128,-1,97
 268 160 268 160 268 220 c 0,0,1
349 251 m 0,98,99
 349 240 349 240 350 210.5 c 128,-1,100
 351 181 351 181 357 148.5 c 128,-1,101
 363 116 363 116 374.5 90.5 c 128,-1,102
 386 65 386 65 407 63 c 0,103,104
 416 63 416 63 428.5 68.5 c 128,-1,105
 441 74 441 74 454.5 83 c 128,-1,106
 468 92 468 92 480.5 103 c 128,-1,107
 493 114 493 114 502 126 c 1,108,-1
 502 367 l 1,109,110
 491 371 491 371 478.5 378 c 128,-1,111
 466 385 466 385 454 392.5 c 128,-1,112
 442 400 442 400 432 405.5 c 128,-1,113
 422 411 422 411 418 411 c 0,114,115
 410 411 410 411 398.5 404 c 128,-1,116
 387 397 387 397 376 379 c 128,-1,117
 365 361 365 361 357 330 c 128,-1,118
 349 299 349 299 349 251 c 0,98,99
EndSplineSet
EndChar

StartChar: A
Encoding: 65 65 28
Width: 663
GlyphClass: 1
Flags: W
LayerCount: 2
Fore
SplineSet
72 115 m 0,0,1
 72 123 72 123 78.5 128 c 128,-1,2
 85 133 85 133 94 135 c 0,3,4
 153 161 153 161 189.5 186.5 c 128,-1,5
 226 212 226 212 246.5 243.5 c 128,-1,6
 267 275 267 275 274 317.5 c 128,-1,7
 281 360 281 360 281 421 c 0,8,9
 281 435 281 435 281 459 c 128,-1,10
 281 483 281 483 278.5 510 c 128,-1,11
 276 537 276 537 271 565 c 128,-1,12
 266 593 266 593 255.5 615.5 c 128,-1,13
 245 638 245 638 228.5 652 c 128,-1,14
 212 666 212 666 188 666 c 0,15,16
 170 666 170 666 151 661 c 128,-1,17
 132 656 132 656 116.5 645.5 c 128,-1,18
 101 635 101 635 91 618.5 c 128,-1,19
 81 602 81 602 81 580 c 0,20,21
 81 552 81 552 90 533 c 128,-1,22
 99 514 99 514 112 500 c 128,-1,23
 125 486 125 486 141 473.5 c 128,-1,24
 157 461 157 461 170.5 446.5 c 128,-1,25
 184 432 184 432 193.5 412 c 128,-1,26
 203 392 203 392 204 363 c 0,27,28
 205 339 205 339 198 315.5 c 128,-1,29
 191 292 191 292 178.5 272.5 c 128,-1,30
 166 253 166 253 149 241 c 128,-1,31
 132 229 132 229 111 229 c 0,32,33
 100 229 100 229 93.5 231.5 c 128,-1,34
 87 234 87 234 87 245 c 256,35,36
 87 256 87 256 97.5 261.5 c 128,-1,37
 108 267 108 267 121 272.5 c 128,-1,38
 134 278 134 278 144.5 287.5 c 128,-1,39
 155 297 155 297 155 317 c 0,40,41
 155 341 155 341 134 361.5 c 128,-1,42
 113 382 113 382 88 404.5 c 128,-1,43
 63 427 63 427 42 454 c 128,-1,44
 21 481 21 481 21 519 c 0,45,46
 21 563 21 563 35 598 c 128,-1,47
 49 633 49 633 74.5 657.5 c 128,-1,48
 100 682 100 682 135.5 695 c 128,-1,49
 171 708 171 708 213 708 c 0,50,51
 260 708 260 708 291.5 686 c 128,-1,52
 323 664 323 664 341.5 630 c 128,-1,53
 360 596 360 596 368 555.5 c 128,-1,54
 376 515 376 515 376 478 c 0,55,56
 376 451 376 451 375.5 426.5 c 128,-1,57
 375 402 375 402 372 378 c 128,-1,58
 369 354 369 354 362 330 c 128,-1,59
 355 306 355 306 342 281 c 0,60,61
 329 263 329 263 312.5 245.5 c 128,-1,62
 296 228 296 228 278 211.5 c 128,-1,63
 260 195 260 195 242.5 181 c 128,-1,64
 225 167 225 167 210 156 c 1,65,66
 219 152 219 152 230.5 140 c 128,-1,67
 242 128 242 128 255 115 c 128,-1,68
 268 102 268 102 281 92 c 128,-1,69
 294 82 294 82 306 82 c 0,70,71
 311 82 311 82 327 93 c 128,-1,72
 343 104 343 104 364 118.5 c 128,-1,73
 385 133 385 133 407 148 c 128,-1,74
 429 163 429 163 447 172 c 1,75,-1
 447 531 l 2,76,77
 447 552 447 552 438.5 572.5 c 128,-1,78
 430 593 430 593 420 610 c 128,-1,79
 410 627 410 627 401.5 640 c 128,-1,80
 393 653 393 653 393 660 c 0,81,82
 393 671 393 671 396 675 c 128,-1,83
 399 679 399 679 410 679 c 0,84,85
 420 679 420 679 429.5 669 c 128,-1,86
 439 659 439 659 448 643.5 c 128,-1,87
 457 628 457 628 465 609.5 c 128,-1,88
 473 591 473 591 479 573 c 1,89,90
 490 607 490 607 507.5 632.5 c 128,-1,91
 525 658 525 658 545 674.5 c 128,-1,92
 565 691 565 691 585.5 699 c 128,-1,93
 606 707 606 707 624 708 c 0,94,95
 632 708 632 708 639 703.5 c 128,-1,96
 646 699 646 699 646 693 c 0,97,98
 646 678 646 678 629 670 c 128,-1,99
 612 662 612 662 591.5 649.5 c 128,-1,100
 571 637 571 637 554 615 c 128,-1,101
 537 593 537 593 537 551 c 2,102,-1
 537 168 l 2,103,104
 537 160 537 160 540.5 145.5 c 128,-1,105
 544 131 544 131 550 117 c 128,-1,106
 556 103 556 103 564 92.5 c 128,-1,107
 572 82 572 82 582 82 c 0,108,109
 589 82 589 82 597 85.5 c 128,-1,110
 605 89 605 89 612 93.5 c 128,-1,111
 619 98 619 98 625 101.5 c 128,-1,112
 631 105 631 105 636 105 c 0,113,114
 640 105 640 105 644 99.5 c 128,-1,115
 648 94 648 94 648 90 c 256,116,117
 648 86 648 86 640 79.5 c 128,-1,118
 632 73 632 73 621.5 65 c 128,-1,119
 611 57 611 57 600.5 49.5 c 128,-1,120
 590 42 590 42 584 37 c 0,121,122
 577 31 577 31 570 22 c 128,-1,123
 563 13 563 13 556.5 5.5 c 128,-1,124
 550 -2 550 -2 544.5 -7.5 c 128,-1,125
 539 -13 539 -13 535 -13 c 0,126,127
 520 -13 520 -13 504 5 c 128,-1,128
 488 23 488 23 475.5 47 c 128,-1,129
 463 71 463 71 455 96 c 128,-1,130
 447 121 447 121 447 135 c 1,131,132
 420 123 420 123 386.5 98.5 c 128,-1,133
 353 74 353 74 323 49 c 128,-1,134
 293 24 293 24 270.5 5.5 c 128,-1,135
 248 -13 248 -13 243 -13 c 0,136,137
 237 -13 237 -13 230.5 -5.5 c 128,-1,138
 224 2 224 2 216.5 13 c 128,-1,139
 209 24 209 24 200 35.5 c 128,-1,140
 191 47 191 47 182 56 c 0,141,142
 172 68 172 68 153.5 75.5 c 128,-1,143
 135 83 135 83 117 88.5 c 128,-1,144
 99 94 99 94 85.5 100 c 128,-1,145
 72 106 72 106 72 115 c 0,0,1
EndSplineSet
EndChar

StartChar: B
Encoding: 66 66 29
Width: 727
GlyphClass: 1
Flags: W
LayerCount: 2
Fore
SplineSet
154 140 m 0,0,1
 124 140 124 140 111.5 124.5 c 128,-1,2
 99 109 99 109 93 91 c 128,-1,3
 87 73 87 73 82 57.5 c 128,-1,4
 77 42 77 42 63 42 c 0,5,6
 55 42 55 42 51.5 50.5 c 128,-1,7
 48 59 48 59 48 65 c 0,8,9
 48 88 48 88 58.5 113 c 128,-1,10
 69 138 69 138 85.5 158.5 c 128,-1,11
 102 179 102 179 123.5 192.5 c 128,-1,12
 145 206 145 206 167 206 c 0,13,14
 181 206 181 206 195.5 204 c 128,-1,15
 210 202 210 202 219 198 c 1,16,17
 251 221 251 221 264 247.5 c 128,-1,18
 277 274 277 274 277 314 c 2,19,-1
 277 503 l 2,20,21
 277 529 277 529 270 558.5 c 128,-1,22
 263 588 263 588 249 613 c 128,-1,23
 235 638 235 638 214.5 654.5 c 128,-1,24
 194 671 194 671 166 671 c 0,25,26
 150 671 150 671 134 664.5 c 128,-1,27
 118 658 118 658 105.5 646 c 128,-1,28
 93 634 93 634 85.5 617.5 c 128,-1,29
 78 601 78 601 78 582 c 0,30,31
 78 557 78 557 87.5 539 c 128,-1,32
 97 521 97 521 111.5 506 c 128,-1,33
 126 491 126 491 142.5 478 c 128,-1,34
 159 465 159 465 173.5 451 c 128,-1,35
 188 437 188 437 197.5 420.5 c 128,-1,36
 207 404 207 404 207 382 c 0,37,38
 207 346 207 346 192.5 320.5 c 128,-1,39
 178 295 178 295 158.5 278 c 128,-1,40
 139 261 139 261 119.5 253 c 128,-1,41
 100 245 100 245 91 245 c 0,42,43
 85 245 85 245 79.5 250 c 128,-1,44
 74 255 74 255 74 261 c 0,45,46
 74 270 74 270 85.5 273 c 128,-1,47
 97 276 97 276 111.5 281 c 128,-1,48
 126 286 126 286 137.5 297 c 128,-1,49
 149 308 149 308 149 334 c 0,50,51
 149 357 149 357 129 373 c 128,-1,52
 109 389 109 389 85.5 409 c 128,-1,53
 62 429 62 429 42 459.5 c 128,-1,54
 22 490 22 490 22 541 c 0,55,56
 22 569 22 569 33.5 599 c 128,-1,57
 45 629 45 629 65 654 c 128,-1,58
 85 679 85 679 113 695 c 128,-1,59
 141 711 141 711 173 711 c 0,60,61
 209 711 209 711 235 702 c 128,-1,62
 261 693 261 693 280 678.5 c 128,-1,63
 299 664 299 664 313 646 c 128,-1,64
 327 628 327 628 338 610 c 1,65,66
 353 641 353 641 371 660.5 c 128,-1,67
 389 680 389 680 407 691 c 128,-1,68
 425 702 425 702 443 706.5 c 128,-1,69
 461 711 461 711 477 711 c 0,70,71
 498 711 498 711 521 704 c 128,-1,72
 544 697 544 697 564 684 c 128,-1,73
 584 671 584 671 597 653.5 c 128,-1,74
 610 636 610 636 610 614 c 0,75,76
 610 593 610 593 607.5 576 c 128,-1,77
 605 559 605 559 605 549 c 0,78,79
 605 529 605 529 612.5 514 c 128,-1,80
 620 499 620 499 631 488 c 128,-1,81
 642 477 642 477 655 470.5 c 128,-1,82
 668 464 668 464 679 461 c 1,83,84
 650 450 650 450 607 439.5 c 128,-1,85
 564 429 564 429 525 423 c 1,86,87
 564 414 564 414 591.5 395 c 128,-1,88
 619 376 619 376 636.5 350.5 c 128,-1,89
 654 325 654 325 662.5 294 c 128,-1,90
 671 263 671 263 671 231 c 0,91,92
 671 180 671 180 649.5 136.5 c 128,-1,93
 628 93 628 93 592.5 61 c 128,-1,94
 557 29 557 29 511 11 c 128,-1,95
 465 -7 465 -7 415 -7 c 0,96,97
 371 -7 371 -7 341 4 c 128,-1,98
 311 15 311 15 289 31 c 128,-1,99
 267 47 267 47 251 66.5 c 128,-1,100
 235 86 235 86 221 102 c 128,-1,101
 207 118 207 118 191 129 c 128,-1,102
 175 140 175 140 154 140 c 0,0,1
246 187 m 1,103,104
 271 170 271 170 298.5 144.5 c 128,-1,105
 326 119 326 119 354.5 95.5 c 128,-1,106
 383 72 383 72 411.5 55 c 128,-1,107
 440 38 440 38 467 38 c 0,108,109
 499 38 499 38 522.5 49.5 c 128,-1,110
 546 61 546 61 561.5 80.5 c 128,-1,111
 577 100 577 100 584.5 125 c 128,-1,112
 592 150 592 150 592 178 c 0,113,114
 592 238 592 238 571.5 281 c 128,-1,115
 551 324 551 324 523 351.5 c 128,-1,116
 495 379 495 379 466.5 392.5 c 128,-1,117
 438 406 438 406 422 406 c 2,118,-1
 368 406 l 1,119,120
 368 372 368 372 363.5 339 c 128,-1,121
 359 306 359 306 341 280 c 0,122,123
 339 277 339 277 331 267.5 c 128,-1,124
 323 258 323 258 310.5 245 c 128,-1,125
 298 232 298 232 281.5 217 c 128,-1,126
 265 202 265 202 246 187 c 1,103,104
355 576 m 1,127,128
 363 543 363 543 365.5 510 c 128,-1,129
 368 477 368 477 368 435 c 1,130,131
 389 435 389 435 421 437.5 c 128,-1,132
 453 440 453 440 487 444.5 c 128,-1,133
 521 449 521 449 550 454.5 c 128,-1,134
 579 460 579 460 594 467 c 1,135,136
 555 484 555 484 536 510.5 c 128,-1,137
 517 537 517 537 517 554 c 0,138,139
 517 570 517 570 519 584 c 128,-1,140
 521 598 521 598 521 616 c 0,141,142
 521 638 521 638 502 655.5 c 128,-1,143
 483 673 483 673 449 673 c 0,144,145
 432 673 432 673 416.5 665 c 128,-1,146
 401 657 401 657 389 643.5 c 128,-1,147
 377 630 377 630 368 612.5 c 128,-1,148
 359 595 359 595 355 576 c 1,127,128
EndSplineSet
EndChar

StartChar: C
Encoding: 67 67 30
Width: 585
GlyphClass: 1
Flags: W
LayerCount: 2
Fore
SplineSet
560 677 m 0,0,1
 560 667 560 667 548 649.5 c 128,-1,2
 536 632 536 632 519.5 615.5 c 128,-1,3
 503 599 503 599 484.5 586.5 c 128,-1,4
 466 574 466 574 453 574 c 0,5,6
 407 574 407 574 357 616 c 1,7,8
 331 603 331 603 323.5 589 c 128,-1,9
 316 575 316 575 316 559 c 0,10,11
 316 532 316 532 334 499 c 128,-1,12
 352 466 352 466 374 430.5 c 128,-1,13
 396 395 396 395 414 359 c 128,-1,14
 432 323 432 323 432 289 c 0,15,16
 432 257 432 257 419.5 233.5 c 128,-1,17
 407 210 407 210 388 194.5 c 128,-1,18
 369 179 369 179 346.5 171.5 c 128,-1,19
 324 164 324 164 305 164 c 0,20,21
 281 164 281 164 262 173 c 128,-1,22
 243 182 243 182 229.5 198 c 128,-1,23
 216 214 216 214 209 235 c 128,-1,24
 202 256 202 256 202 280 c 0,25,26
 202 295 202 295 204.5 310 c 128,-1,27
 207 325 207 325 211 337.5 c 128,-1,28
 215 350 215 350 221 358 c 128,-1,29
 227 366 227 366 235 366 c 0,30,31
 241 366 241 366 245.5 361 c 128,-1,32
 250 356 250 356 250 349 c 0,33,34
 250 340 250 340 247 333.5 c 128,-1,35
 244 327 244 327 241 319.5 c 128,-1,36
 238 312 238 312 235 303 c 128,-1,37
 232 294 232 294 232 279 c 0,38,39
 232 260 232 260 241 244.5 c 128,-1,40
 250 229 250 229 263 218 c 128,-1,41
 276 207 276 207 291 201 c 128,-1,42
 306 195 306 195 318 195 c 0,43,44
 336 195 336 195 347 213 c 128,-1,45
 358 231 358 231 358 257 c 0,46,47
 358 276 358 276 342 303.5 c 128,-1,48
 326 331 326 331 307 361.5 c 128,-1,49
 288 392 288 392 272 422 c 128,-1,50
 256 452 256 452 256 476 c 0,51,52
 256 515 256 515 264 543.5 c 128,-1,53
 272 572 272 572 289 601 c 1,54,55
 276 634 276 634 256.5 648 c 128,-1,56
 237 662 237 662 200 662 c 0,57,58
 171 662 171 662 152.5 634 c 128,-1,59
 134 606 134 606 123.5 567 c 128,-1,60
 113 528 113 528 109 485.5 c 128,-1,61
 105 443 105 443 105 415 c 0,62,63
 105 349 105 349 119 287.5 c 128,-1,64
 133 226 133 226 159.5 179 c 128,-1,65
 186 132 186 132 225 104 c 128,-1,66
 264 76 264 76 314 76 c 0,67,68
 382 76 382 76 424 92 c 128,-1,69
 466 108 466 108 490.5 127.5 c 128,-1,70
 515 147 515 147 526.5 163.5 c 128,-1,71
 538 180 538 180 545 180 c 0,72,73
 550 180 550 180 555.5 178 c 128,-1,74
 561 176 561 176 561 170 c 0,75,76
 561 159 561 159 540.5 129.5 c 128,-1,77
 520 100 520 100 485.5 68.5 c 128,-1,78
 451 37 451 37 406.5 12.5 c 128,-1,79
 362 -12 362 -12 314 -12 c 0,80,81
 243 -12 243 -12 187.5 18.5 c 128,-1,82
 132 49 132 49 94 102 c 128,-1,83
 56 155 56 155 36 225 c 128,-1,84
 16 295 16 295 16 375 c 0,85,86
 16 451 16 451 30.5 511.5 c 128,-1,87
 45 572 45 572 70.5 615 c 128,-1,88
 96 658 96 658 131 681 c 128,-1,89
 166 704 166 704 208 704 c 0,90,91
 228 704 228 704 242.5 700.5 c 128,-1,92
 257 697 257 697 268 688.5 c 128,-1,93
 279 680 279 680 288.5 666.5 c 128,-1,94
 298 653 298 653 309 633 c 1,95,96
 316 643 316 643 328 655.5 c 128,-1,97
 340 668 340 668 353.5 678.5 c 128,-1,98
 367 689 367 689 379 696 c 128,-1,99
 391 703 391 703 397 703 c 0,100,101
 404 703 404 703 414.5 694 c 128,-1,102
 425 685 425 685 437 673.5 c 128,-1,103
 449 662 449 662 461 653 c 128,-1,104
 473 644 473 644 484 644 c 0,105,106
 496 644 496 644 504 653.5 c 128,-1,107
 512 663 512 663 517.5 674 c 128,-1,108
 523 685 523 685 528 694.5 c 128,-1,109
 533 704 533 704 541 704 c 0,110,111
 552 704 552 704 556 698 c 128,-1,112
 560 692 560 692 560 677 c 0,0,1
EndSplineSet
EndChar

StartChar: D
Encoding: 68 68 31
Width: 734
GlyphClass: 1
Flags: W
LayerCount: 2
Fore
SplineSet
447 -12 m 0,0,1
 407 -12 407 -12 373 3.5 c 128,-1,2
 339 19 339 19 307.5 38 c 128,-1,3
 276 57 276 57 246 72.5 c 128,-1,4
 216 88 216 88 183 88 c 0,5,6
 160 88 160 88 149 73.5 c 128,-1,7
 138 59 138 59 132 41 c 128,-1,8
 126 23 126 23 120.5 8.5 c 128,-1,9
 115 -6 115 -6 103 -6 c 0,10,11
 90 -6 90 -6 88.5 1.5 c 128,-1,12
 87 9 87 9 87 22 c 0,13,14
 87 46 87 46 98.5 70 c 128,-1,15
 110 94 110 94 129.5 113 c 128,-1,16
 149 132 149 132 176 143.5 c 128,-1,17
 203 155 203 155 235 155 c 0,18,19
 262 155 262 155 294 141.5 c 128,-1,20
 326 128 326 128 359 112.5 c 128,-1,21
 392 97 392 97 423.5 83.5 c 128,-1,22
 455 70 455 70 482 70 c 0,23,24
 529 74 529 74 561.5 99 c 128,-1,25
 594 124 594 124 614.5 160 c 128,-1,26
 635 196 635 196 644 239.5 c 128,-1,27
 653 283 653 283 653 325 c 0,28,29
 653 383 653 383 627.5 429 c 128,-1,30
 602 475 602 475 561.5 509 c 128,-1,31
 521 543 521 543 470 565.5 c 128,-1,32
 419 588 419 588 368 598 c 1,33,34
 352 576 352 576 346.5 555.5 c 128,-1,35
 341 535 341 535 341 515 c 256,36,37
 341 495 341 495 347 479.5 c 128,-1,38
 353 464 353 464 362 450.5 c 128,-1,39
 371 437 371 437 382.5 424 c 128,-1,40
 394 411 394 411 405 397 c 0,41,42
 425 374 425 374 436 343 c 128,-1,43
 447 312 447 312 447 280 c 0,44,45
 447 253 447 253 436.5 230.5 c 128,-1,46
 426 208 426 208 408.5 192.5 c 128,-1,47
 391 177 391 177 368.5 168 c 128,-1,48
 346 159 346 159 322 159 c 0,49,50
 300 159 300 159 281.5 169 c 128,-1,51
 263 179 263 179 249 195.5 c 128,-1,52
 235 212 235 212 227 234 c 128,-1,53
 219 256 219 256 219 280 c 0,54,55
 219 288 219 288 221.5 300 c 128,-1,56
 224 312 224 312 229 322.5 c 128,-1,57
 234 333 234 333 242 340.5 c 128,-1,58
 250 348 250 348 261 348 c 0,59,60
 267 348 267 348 271.5 344.5 c 128,-1,61
 276 341 276 341 276 333 c 0,62,63
 276 323 276 323 270.5 316.5 c 128,-1,64
 265 310 265 310 259 304 c 128,-1,65
 253 298 253 298 247.5 291 c 128,-1,66
 242 284 242 284 242 274 c 0,67,68
 242 257 242 257 249 241 c 128,-1,69
 256 225 256 225 267 212.5 c 128,-1,70
 278 200 278 200 291.5 192.5 c 128,-1,71
 305 185 305 185 318 185 c 0,72,73
 342 185 342 185 356.5 203 c 128,-1,74
 371 221 371 221 371 238 c 0,75,76
 371 267 371 267 357 292.5 c 128,-1,77
 343 318 343 318 325.5 342 c 128,-1,78
 308 366 308 366 294 389.5 c 128,-1,79
 280 413 280 413 280 439 c 0,80,81
 280 460 280 460 285.5 481.5 c 128,-1,82
 291 503 291 503 299.5 524 c 128,-1,83
 308 545 308 545 318 565 c 128,-1,84
 328 585 328 585 336 603 c 1,85,86
 322 608 322 608 306.5 610 c 128,-1,87
 291 612 291 612 277 612 c 0,88,89
 253 612 253 612 217 607.5 c 128,-1,90
 181 603 181 603 148 590.5 c 128,-1,91
 115 578 115 578 91.5 556 c 128,-1,92
 68 534 68 534 68 500 c 0,93,94
 68 478 68 478 75 458.5 c 128,-1,95
 82 439 82 439 93 424.5 c 128,-1,96
 104 410 104 410 119 401.5 c 128,-1,97
 134 393 134 393 150 393 c 0,98,99
 159 393 159 393 173 397 c 128,-1,100
 187 401 187 401 193 401 c 0,101,102
 201 401 201 401 206.5 397 c 128,-1,103
 212 393 212 393 212 386 c 256,104,105
 212 379 212 379 192.5 371.5 c 128,-1,106
 173 364 173 364 152 364 c 256,107,108
 131 364 131 364 108.5 371.5 c 128,-1,109
 86 379 86 379 67 393.5 c 128,-1,110
 48 408 48 408 35.5 429 c 128,-1,111
 23 450 23 450 23 477 c 0,112,113
 23 537 23 537 47.5 579.5 c 128,-1,114
 72 622 72 622 111 650 c 128,-1,115
 150 678 150 678 198.5 691 c 128,-1,116
 247 704 247 704 295 704 c 0,117,118
 379 704 379 704 450 678 c 128,-1,119
 521 652 521 652 572.5 603 c 128,-1,120
 624 554 624 554 653 483.5 c 128,-1,121
 682 413 682 413 682 325 c 0,122,123
 682 276 682 276 665.5 217.5 c 128,-1,124
 649 159 649 159 618.5 108 c 128,-1,125
 588 57 588 57 544.5 22.5 c 128,-1,126
 501 -12 501 -12 447 -12 c 0,0,1
EndSplineSet
EndChar

StartChar: E
Encoding: 69 69 32
Width: 617
GlyphClass: 1
Flags: W
LayerCount: 2
Fore
SplineSet
32 380 m 0,0,1
 32 397 32 397 34.5 427.5 c 128,-1,2
 37 458 37 458 44 494.5 c 128,-1,3
 51 531 51 531 63.5 568.5 c 128,-1,4
 76 606 76 606 97.5 636.5 c 128,-1,5
 119 667 119 667 150 686.5 c 128,-1,6
 181 706 181 706 224 706 c 0,7,8
 242 706 242 706 256.5 699 c 128,-1,9
 271 692 271 692 283 680.5 c 128,-1,10
 295 669 295 669 304.5 654.5 c 128,-1,11
 314 640 314 640 323 626 c 1,12,13
 332 637 332 637 343 651 c 128,-1,14
 354 665 354 665 364.5 677 c 128,-1,15
 375 689 375 689 384.5 697 c 128,-1,16
 394 705 394 705 401 705 c 0,17,18
 410 705 410 705 420.5 697 c 128,-1,19
 431 689 431 689 443.5 679 c 128,-1,20
 456 669 456 669 469.5 661 c 128,-1,21
 483 653 483 653 497 653 c 0,22,23
 508 653 508 653 515.5 661 c 128,-1,24
 523 669 523 669 528.5 679 c 128,-1,25
 534 689 534 689 538.5 697 c 128,-1,26
 543 705 543 705 549 705 c 0,27,28
 560 705 560 705 567.5 697.5 c 128,-1,29
 575 690 575 690 575 679 c 0,30,31
 575 669 575 669 560.5 652.5 c 128,-1,32
 546 636 546 636 527.5 619.5 c 128,-1,33
 509 603 509 603 490.5 591 c 128,-1,34
 472 579 472 579 464 579 c 0,35,36
 449 579 449 579 436.5 584.5 c 128,-1,37
 424 590 424 590 412.5 596 c 128,-1,38
 401 602 401 602 390 607.5 c 128,-1,39
 379 613 379 613 368 613 c 0,40,41
 351 613 351 613 341.5 598 c 128,-1,42
 332 583 332 583 332 558 c 0,43,44
 332 538 332 538 347 501.5 c 128,-1,45
 362 465 362 465 394 423 c 1,46,47
 405 427 405 427 420.5 438 c 128,-1,48
 436 449 436 449 452.5 461 c 128,-1,49
 469 473 469 473 485.5 482 c 128,-1,50
 502 491 502 491 516 491 c 0,51,52
 544 491 544 491 559 468.5 c 128,-1,53
 574 446 574 446 574 421 c 0,54,55
 574 412 574 412 571 401.5 c 128,-1,56
 568 391 568 391 562.5 381 c 128,-1,57
 557 371 557 371 550 364.5 c 128,-1,58
 543 358 543 358 534 358 c 0,59,60
 522 358 522 358 517 369 c 128,-1,61
 512 380 512 380 508.5 393.5 c 128,-1,62
 505 407 505 407 499.5 418 c 128,-1,63
 494 429 494 429 480 429 c 256,64,65
 466 429 466 429 446.5 418.5 c 128,-1,66
 427 408 427 408 412 394 c 1,67,68
 431 365 431 365 440 340 c 128,-1,69
 449 315 449 315 449 284 c 0,70,71
 449 259 449 259 437.5 236.5 c 128,-1,72
 426 214 426 214 408 197.5 c 128,-1,73
 390 181 390 181 367 171.5 c 128,-1,74
 344 162 344 162 320 162 c 256,75,76
 296 162 296 162 277.5 171.5 c 128,-1,77
 259 181 259 181 246.5 197 c 128,-1,78
 234 213 234 213 227 232.5 c 128,-1,79
 220 252 220 252 220 273 c 0,80,81
 220 279 220 279 221 293.5 c 128,-1,82
 222 308 222 308 225 323 c 128,-1,83
 228 338 228 338 234 350 c 128,-1,84
 240 362 240 362 250 362 c 256,85,86
 260 362 260 362 262.5 357 c 128,-1,87
 265 352 265 352 265 343 c 0,88,89
 265 323 265 323 257.5 307 c 128,-1,90
 250 291 250 291 250 274 c 0,91,92
 250 241 250 241 272 218 c 128,-1,93
 294 195 294 195 326 195 c 0,94,95
 341 195 341 195 349 201 c 128,-1,96
 357 207 357 207 361.5 216.5 c 128,-1,97
 366 226 366 226 367 237 c 128,-1,98
 368 248 368 248 368 258 c 0,99,100
 368 290 368 290 353 315.5 c 128,-1,101
 338 341 338 341 320 365.5 c 128,-1,102
 302 390 302 390 287 415.5 c 128,-1,103
 272 441 272 441 272 472 c 0,104,105
 272 507 272 507 279.5 535.5 c 128,-1,106
 287 564 287 564 302 599 c 1,107,108
 288 624 288 624 266.5 642 c 128,-1,109
 245 660 245 660 214 660 c 0,110,111
 189 660 189 660 172.5 645.5 c 128,-1,112
 156 631 156 631 145.5 607.5 c 128,-1,113
 135 584 135 584 130 555.5 c 128,-1,114
 125 527 125 527 122.5 499 c 128,-1,115
 120 471 120 471 120 446.5 c 128,-1,116
 120 422 120 422 120 408 c 0,117,118
 120 335 120 335 135.5 274 c 128,-1,119
 151 213 151 213 180 168.5 c 128,-1,120
 209 124 209 124 250.5 99.5 c 128,-1,121
 292 75 292 75 344 75 c 0,122,123
 372 75 372 75 400.5 78.5 c 128,-1,124
 429 82 429 82 455 92 c 128,-1,125
 481 102 481 102 504 118.5 c 128,-1,126
 527 135 527 135 544 161 c 0,127,128
 548 166 548 166 554 171.5 c 128,-1,129
 560 177 560 177 568 177 c 0,130,131
 571 177 571 177 575 174 c 128,-1,132
 579 171 579 171 579 166 c 0,133,134
 579 163 579 163 572.5 148.5 c 128,-1,135
 566 134 566 134 553 115 c 128,-1,136
 540 96 540 96 519 74 c 128,-1,137
 498 52 498 52 469 34 c 128,-1,138
 440 16 440 16 402 4 c 128,-1,139
 364 -8 364 -8 317 -8 c 0,140,141
 241 -8 241 -8 187 24 c 128,-1,142
 133 56 133 56 98.5 109.5 c 128,-1,143
 64 163 64 163 48 233 c 128,-1,144
 32 303 32 303 32 380 c 0,0,1
EndSplineSet
EndChar

StartChar: F
Encoding: 70 70 33
Width: 523
GlyphClass: 1
Flags: W
LayerCount: 2
Fore
SplineSet
227 -12 m 0,0,1
 198 -12 198 -12 166.5 2.5 c 128,-1,2
 135 17 135 17 108.5 42 c 128,-1,3
 82 67 82 67 65 101 c 128,-1,4
 48 135 48 135 48 175 c 0,5,6
 48 197 48 197 60 220 c 128,-1,7
 72 243 72 243 86.5 263.5 c 128,-1,8
 101 284 101 284 113 300.5 c 128,-1,9
 125 317 125 317 125 326 c 256,10,11
 125 335 125 335 118.5 341 c 128,-1,12
 112 347 112 347 103 347 c 0,13,14
 88 347 88 347 76.5 340 c 128,-1,15
 65 333 65 333 55.5 325 c 128,-1,16
 46 317 46 317 39 310 c 128,-1,17
 32 303 32 303 28 303 c 0,18,19
 14 303 14 303 14 319 c 0,20,21
 14 329 14 329 24 340 c 128,-1,22
 34 351 34 351 48.5 359 c 128,-1,23
 63 367 63 367 79 372.5 c 128,-1,24
 95 378 95 378 107 378 c 0,25,26
 122 378 122 378 136 371.5 c 128,-1,27
 150 365 150 365 160.5 354 c 128,-1,28
 171 343 171 343 177.5 329 c 128,-1,29
 184 315 184 315 184 300 c 0,30,31
 184 279 184 279 172.5 259.5 c 128,-1,32
 161 240 161 240 147.5 220 c 128,-1,33
 134 200 134 200 123 179.5 c 128,-1,34
 112 159 112 159 112 135 c 0,35,36
 112 103 112 103 125 82 c 128,-1,37
 138 61 138 61 157.5 48 c 128,-1,38
 177 35 177 35 199 30 c 128,-1,39
 221 25 221 25 238 25 c 0,40,41
 259 25 259 25 281 33 c 128,-1,42
 303 41 303 41 320.5 55.5 c 128,-1,43
 338 70 338 70 349 91 c 128,-1,44
 360 112 360 112 360 139 c 0,45,46
 360 178 360 178 342.5 216 c 128,-1,47
 325 254 325 254 304.5 289.5 c 128,-1,48
 284 325 284 325 266.5 358 c 128,-1,49
 249 391 249 391 249 421 c 0,50,51
 249 459 249 459 261 492 c 128,-1,52
 273 525 273 525 301 564 c 1,53,54
 280 574 280 574 259 587.5 c 128,-1,55
 238 601 238 601 216 613 c 128,-1,56
 194 625 194 625 171 633.5 c 128,-1,57
 148 642 148 642 123 642 c 0,58,59
 88 642 88 642 65.5 618.5 c 128,-1,60
 43 595 43 595 43 563 c 0,61,62
 43 518 43 518 70.5 499 c 128,-1,63
 98 480 98 480 138 480 c 0,64,65
 149 480 149 480 160.5 484.5 c 128,-1,66
 172 489 172 489 181 489 c 0,67,68
 188 489 188 489 190.5 483.5 c 128,-1,69
 193 478 193 478 193 473 c 0,70,71
 193 465 193 465 186 460 c 128,-1,72
 179 455 179 455 169.5 452.5 c 128,-1,73
 160 450 160 450 150 449.5 c 128,-1,74
 140 449 140 449 135 449 c 0,75,76
 108 449 108 449 85 458 c 128,-1,77
 62 467 62 467 44.5 482.5 c 128,-1,78
 27 498 27 498 17.5 520 c 128,-1,79
 8 542 8 542 8 569 c 0,80,81
 8 599 8 599 22 625.5 c 128,-1,82
 36 652 36 652 59 671 c 128,-1,83
 82 690 82 690 111 701 c 128,-1,84
 140 712 140 712 169 712 c 0,85,86
 202 712 202 712 233 696.5 c 128,-1,87
 264 681 264 681 291.5 663 c 128,-1,88
 319 645 319 645 342.5 629.5 c 128,-1,89
 366 614 366 614 384 614 c 0,90,91
 401 614 401 614 407.5 625 c 128,-1,92
 414 636 414 636 417.5 649.5 c 128,-1,93
 421 663 421 663 425.5 674.5 c 128,-1,94
 430 686 430 686 444 686 c 0,95,96
 455 686 455 686 462.5 680.5 c 128,-1,97
 470 675 470 675 470 661 c 0,98,99
 470 646 470 646 460.5 626 c 128,-1,100
 451 606 451 606 435.5 587.5 c 128,-1,101
 420 569 420 569 400.5 556.5 c 128,-1,102
 381 544 381 544 361 544 c 0,103,104
 351 544 351 544 341 547 c 128,-1,105
 331 550 331 550 323 554 c 1,106,107
 312 531 312 531 309 512.5 c 128,-1,108
 306 494 306 494 306 487 c 0,109,110
 306 460 306 460 312 440.5 c 128,-1,111
 318 421 318 421 339 395 c 1,112,113
 363 419 363 419 387.5 435.5 c 128,-1,114
 412 452 412 452 441 452 c 0,115,116
 464 452 464 452 482 437 c 128,-1,117
 500 422 500 422 500 399 c 0,118,119
 500 391 500 391 495.5 379 c 128,-1,120
 491 367 491 367 484.5 356.5 c 128,-1,121
 478 346 478 346 470.5 338.5 c 128,-1,122
 463 331 463 331 456 331 c 0,123,124
 448 331 448 331 443.5 341.5 c 128,-1,125
 439 352 439 352 434.5 365 c 128,-1,126
 430 378 430 378 423 388.5 c 128,-1,127
 416 399 416 399 403 399 c 0,128,129
 393 399 393 399 380.5 391.5 c 128,-1,130
 368 384 368 384 354 372 c 1,131,132
 365 352 365 352 378.5 329.5 c 128,-1,133
 392 307 392 307 403 283 c 128,-1,134
 414 259 414 259 421.5 233.5 c 128,-1,135
 429 208 429 208 428 183 c 0,136,137
 428 140 428 140 408.5 104 c 128,-1,138
 389 68 389 68 359 42.5 c 128,-1,139
 329 17 329 17 293.5 2.5 c 128,-1,140
 258 -12 258 -12 227 -12 c 0,0,1
EndSplineSet
EndChar

StartChar: G
Encoding: 71 71 34
Width: 713
GlyphClass: 1
Flags: W
LayerCount: 2
Fore
SplineSet
18 336 m 0,0,1
 18 406 18 406 36.5 472 c 128,-1,2
 55 538 55 538 89 589.5 c 128,-1,3
 123 641 123 641 171 672 c 128,-1,4
 219 703 219 703 279 703 c 0,5,6
 298 703 298 703 315.5 697.5 c 128,-1,7
 333 692 333 692 344 685 c 1,8,9
 351 694 351 694 360 705.5 c 128,-1,10
 369 717 369 717 378 717 c 0,11,12
 389 717 389 717 392.5 714 c 128,-1,13
 396 711 396 711 396 704 c 0,14,15
 396 696 396 696 391 689 c 128,-1,16
 386 682 386 682 378 668 c 1,17,18
 417 642 417 642 444 619 c 128,-1,19
 471 596 471 596 471 584 c 0,20,21
 471 578 471 578 466 575 c 128,-1,22
 461 572 461 572 455 572 c 0,23,24
 443 572 443 572 420 593.5 c 128,-1,25
 397 615 397 615 362 636 c 1,26,27
 345 599 345 599 345 553 c 0,28,29
 345 543 345 543 351.5 523.5 c 128,-1,30
 358 504 358 504 368 481.5 c 128,-1,31
 378 459 378 459 390 437.5 c 128,-1,32
 402 416 402 416 412 403 c 1,33,34
 450 417 450 417 476.5 430 c 128,-1,35
 503 443 503 443 521 457 c 0,36,37
 529 464 529 464 535.5 479.5 c 128,-1,38
 542 495 542 495 542 509 c 0,39,40
 542 529 542 529 532.5 551 c 128,-1,41
 523 573 523 573 523 593 c 0,42,43
 523 602 523 602 538 622.5 c 128,-1,44
 553 643 553 643 573 664 c 128,-1,45
 593 685 593 685 614 701 c 128,-1,46
 635 717 635 717 646 717 c 0,47,48
 654 717 654 717 658 712 c 128,-1,49
 662 707 662 707 662 702 c 0,50,51
 662 696 662 696 652 685.5 c 128,-1,52
 642 675 642 675 630 663 c 128,-1,53
 618 651 618 651 608 639.5 c 128,-1,54
 598 628 598 628 598 621 c 0,55,56
 598 610 598 610 604.5 596.5 c 128,-1,57
 611 583 611 583 619.5 569.5 c 128,-1,58
 628 556 628 556 634.5 542.5 c 128,-1,59
 641 529 641 529 641 517 c 0,60,61
 641 504 641 504 632 497 c 128,-1,62
 623 490 623 490 608 482.5 c 128,-1,63
 593 475 593 475 573.5 465 c 128,-1,64
 554 455 554 455 533 437 c 1,65,66
 568 435 568 435 589 427.5 c 128,-1,67
 610 420 610 420 621 410 c 0,68,69
 644 388 644 388 653.5 363 c 128,-1,70
 663 338 663 338 663 306 c 0,71,72
 663 240 663 240 639.5 182.5 c 128,-1,73
 616 125 616 125 574 82.5 c 128,-1,74
 532 40 532 40 475.5 15.5 c 128,-1,75
 419 -9 419 -9 353 -9 c 0,76,77
 275 -9 275 -9 213 19 c 128,-1,78
 151 47 151 47 107.5 94.5 c 128,-1,79
 64 142 64 142 41 204.5 c 128,-1,80
 18 267 18 267 18 336 c 0,0,1
107 329 m 0,81,82
 107 237 107 237 128 178 c 128,-1,83
 149 119 149 119 183.5 84.5 c 128,-1,84
 218 50 218 50 262 37 c 128,-1,85
 306 24 306 24 353 24 c 0,86,87
 402 24 402 24 442.5 45 c 128,-1,88
 483 66 483 66 512 100.5 c 128,-1,89
 541 135 541 135 557 180 c 128,-1,90
 573 225 573 225 573 272 c 0,91,92
 573 286 573 286 571 309 c 128,-1,93
 569 332 569 332 562.5 353.5 c 128,-1,94
 556 375 556 375 543.5 391 c 128,-1,95
 531 407 531 407 510 407 c 0,96,97
 503 407 503 407 492 405 c 128,-1,98
 481 403 481 403 469 399 c 128,-1,99
 457 395 457 395 445 390.5 c 128,-1,100
 433 386 433 386 424 381 c 1,101,102
 453 327 453 327 453 268 c 0,103,104
 453 238 453 238 442.5 213 c 128,-1,105
 432 188 432 188 414 171 c 128,-1,106
 396 154 396 154 372 144.5 c 128,-1,107
 348 135 348 135 322 135 c 0,108,109
 307 135 307 135 287.5 140.5 c 128,-1,110
 268 146 268 146 251.5 159.5 c 128,-1,111
 235 173 235 173 223.5 194.5 c 128,-1,112
 212 216 212 216 212 249 c 0,113,114
 212 291 212 291 224.5 319.5 c 128,-1,115
 237 348 237 348 254 348 c 0,116,117
 267 348 267 348 267 335 c 0,118,119
 267 326 267 326 262.5 319.5 c 128,-1,120
 258 313 258 313 252 305 c 128,-1,121
 246 297 246 297 241.5 286.5 c 128,-1,122
 237 276 237 276 237 259 c 0,123,124
 237 216 237 216 259.5 192.5 c 128,-1,125
 282 169 282 169 322 169 c 0,126,127
 342 169 342 169 357 182.5 c 128,-1,128
 372 196 372 196 372 234 c 0,129,130
 372 277 372 277 358 309.5 c 128,-1,131
 344 342 344 342 327.5 370 c 128,-1,132
 311 398 311 398 297 424 c 128,-1,133
 283 450 283 450 283 480 c 0,134,135
 283 518 283 518 296.5 561 c 128,-1,136
 310 604 310 604 333 650 c 1,137,138
 321 658 321 658 311.5 660.5 c 128,-1,139
 302 663 302 663 290 663 c 0,140,141
 202 663 202 663 154.5 579.5 c 128,-1,142
 107 496 107 496 107 329 c 0,81,82
EndSplineSet
EndChar

StartChar: germandblS
Encoding: 7838 7838 35
Width: 584
GlyphClass: 1
Flags: W
LayerCount: 2
Fore
SplineSet
453 142 m 0,0,1
 453 181 453 181 435 211 c 128,-1,2
 417 241 417 241 390 263 c 128,-1,3
 363 285 363 285 331.5 300.5 c 128,-1,4
 300 316 300 316 273 327.5 c 128,-1,5
 246 339 246 339 228 346.5 c 128,-1,6
 210 354 210 354 210 361 c 0,7,8
 210 367 210 367 222 388 c 128,-1,9
 234 409 234 409 251.5 437 c 128,-1,10
 269 465 269 465 289.5 497 c 128,-1,11
 310 529 310 529 327.5 556 c 128,-1,12
 345 583 345 583 357 602 c 128,-1,13
 369 621 369 621 369 624 c 0,14,15
 369 641 369 641 341 641 c 2,16,-1
 193 641 l 2,17,18
 152 641 152 641 137.5 615 c 128,-1,19
 123 589 123 589 123 531 c 2,20,-1
 123 141 l 2,21,22
 123 134 123 134 138.5 121 c 128,-1,23
 154 108 154 108 174 95 c 128,-1,24
 194 82 194 82 212.5 72.5 c 128,-1,25
 231 63 231 63 237 63 c 0,26,27
 244 63 244 63 253.5 69 c 128,-1,28
 263 75 263 75 272 82 c 128,-1,29
 281 89 281 89 289 95 c 128,-1,30
 297 101 297 101 301 101 c 0,31,32
 306 101 306 101 310.5 96 c 128,-1,33
 315 91 315 91 315 86 c 256,34,35
 315 81 315 81 298 66.5 c 128,-1,36
 281 52 281 52 259.5 35.5 c 128,-1,37
 238 19 238 19 217.5 6.5 c 128,-1,38
 197 -6 197 -6 190 -6 c 0,39,40
 176 -6 176 -6 150 7.5 c 128,-1,41
 124 21 124 21 98.5 38.5 c 128,-1,42
 73 56 73 56 54 72 c 128,-1,43
 35 88 35 88 35 94 c 0,44,45
 35 105 35 105 39 116 c 128,-1,46
 43 127 43 127 43 138 c 2,47,-1
 43 547 l 2,48,49
 43 589 43 589 50 618 c 128,-1,50
 57 647 57 647 75 665.5 c 128,-1,51
 93 684 93 684 123.5 692.5 c 128,-1,52
 154 701 154 701 201 701 c 2,53,-1
 434 701 l 2,54,55
 463 701 463 701 463 683 c 0,56,57
 463 673 463 673 453 653 c 128,-1,58
 443 633 443 633 427.5 608.5 c 128,-1,59
 412 584 412 584 394.5 557 c 128,-1,60
 377 530 377 530 361.5 507 c 128,-1,61
 346 484 346 484 336 466.5 c 128,-1,62
 326 449 326 449 326 443 c 0,63,64
 326 438 326 438 342 431 c 128,-1,65
 358 424 358 424 381.5 411.5 c 128,-1,66
 405 399 405 399 432.5 379 c 128,-1,67
 460 359 460 359 483.5 329.5 c 128,-1,68
 507 300 507 300 523 258 c 128,-1,69
 539 216 539 216 539 160 c 0,70,71
 539 86 539 86 510 25.5 c 128,-1,72
 481 -35 481 -35 431.5 -78 c 128,-1,73
 382 -121 382 -121 314.5 -145 c 128,-1,74
 247 -169 247 -169 171 -169 c 0,75,76
 150 -169 150 -169 125.5 -161.5 c 128,-1,77
 101 -154 101 -154 80 -140.5 c 128,-1,78
 59 -127 59 -127 45.5 -109.5 c 128,-1,79
 32 -92 32 -92 32 -72 c 0,80,81
 32 -46 32 -46 46.5 -30.5 c 128,-1,82
 61 -15 61 -15 86 -15 c 0,83,84
 109 -15 109 -15 120.5 -27.5 c 128,-1,85
 132 -40 132 -40 132 -61 c 0,86,87
 132 -65 132 -65 130.5 -72 c 128,-1,88
 129 -79 129 -79 124.5 -85.5 c 128,-1,89
 120 -92 120 -92 111.5 -97.5 c 128,-1,90
 103 -103 103 -103 90 -105 c 1,91,92
 101 -119 101 -119 125.5 -123 c 128,-1,93
 150 -127 150 -127 171 -127 c 0,94,95
 222 -127 222 -127 272.5 -104.5 c 128,-1,96
 323 -82 323 -82 363 -44.5 c 128,-1,97
 403 -7 403 -7 428 41.5 c 128,-1,98
 453 90 453 90 453 142 c 0,0,1
EndSplineSet
Ligature2: "Ligaturen Substitution Nachschlagetabelle 7 Subtabelle" uni200C germandbls
EndChar

StartChar: I
Encoding: 73 73 36
Width: 579
GlyphClass: 1
Flags: W
LayerCount: 2
Fore
SplineSet
69 142 m 0,0,1
 55 142 55 142 49 128.5 c 128,-1,2
 43 115 43 115 43 98 c 0,3,4
 43 77 43 77 46.5 64.5 c 128,-1,5
 50 52 50 52 50 42 c 0,6,7
 50 34 50 34 43.5 31 c 128,-1,8
 37 28 37 28 29 28 c 0,9,10
 13 28 13 28 8.5 47.5 c 128,-1,11
 4 67 4 67 4 88 c 0,12,13
 4 113 4 113 8.5 134.5 c 128,-1,14
 13 156 13 156 24 171.5 c 128,-1,15
 35 187 35 187 53.5 195.5 c 128,-1,16
 72 204 72 204 99 204 c 0,17,18
 116 204 116 204 138 197 c 128,-1,19
 160 190 160 190 176 165 c 0,20,21
 185 151 185 151 192.5 129.5 c 128,-1,22
 200 108 200 108 207 85 c 128,-1,23
 214 62 214 62 222 39 c 128,-1,24
 230 16 230 16 241 -2.5 c 128,-1,25
 252 -21 252 -21 267 -32.5 c 128,-1,26
 282 -44 282 -44 303 -44 c 0,27,28
 363 -51 363 -51 399.5 -21 c 128,-1,29
 436 9 436 9 436 67 c 0,30,31
 436 101 436 101 421 127.5 c 128,-1,32
 406 154 406 154 388 179.5 c 128,-1,33
 370 205 370 205 355 232.5 c 128,-1,34
 340 260 340 260 340 296 c 0,35,36
 340 320 340 320 347 342.5 c 128,-1,37
 354 365 354 365 367 382.5 c 128,-1,38
 380 400 380 400 399 410.5 c 128,-1,39
 418 421 418 421 443 421 c 0,40,41
 465 421 465 421 485 410 c 128,-1,42
 505 399 505 399 520.5 383 c 128,-1,43
 536 367 536 367 545 348.5 c 128,-1,44
 554 330 554 330 554 316 c 0,45,46
 554 311 554 311 551 304 c 128,-1,47
 548 297 548 297 542 297 c 0,48,49
 532 297 532 297 524.5 309.5 c 128,-1,50
 517 322 517 322 506 337.5 c 128,-1,51
 495 353 495 353 479 365.5 c 128,-1,52
 463 378 463 378 436 378 c 0,53,54
 426 378 426 378 420.5 366 c 128,-1,55
 415 354 415 354 415 340 c 0,56,57
 415 318 415 318 431 294.5 c 128,-1,58
 447 271 447 271 466 243.5 c 128,-1,59
 485 216 485 216 501 183 c 128,-1,60
 517 150 517 150 517 109 c 0,61,62
 517 64 517 64 499 27.5 c 128,-1,63
 481 -9 481 -9 451 -35.5 c 128,-1,64
 421 -62 421 -62 382.5 -76.5 c 128,-1,65
 344 -91 344 -91 303 -91 c 0,66,67
 263 -91 263 -91 232 -77.5 c 128,-1,68
 201 -64 201 -64 177.5 -40 c 128,-1,69
 154 -16 154 -16 136.5 16.5 c 128,-1,70
 119 49 119 49 105 86 c 0,71,72
 102 95 102 95 99 105 c 128,-1,73
 96 115 96 115 92 123 c 128,-1,74
 88 131 88 131 83 136.5 c 128,-1,75
 78 142 78 142 69 142 c 0,0,1
43 505 m 0,76,77
 43 538 43 538 57.5 573 c 128,-1,78
 72 608 72 608 96.5 637 c 128,-1,79
 121 666 121 666 152.5 684.5 c 128,-1,80
 184 703 184 703 218 703 c 0,81,82
 265 703 265 703 298 688.5 c 128,-1,83
 331 674 331 674 354 652 c 128,-1,84
 377 630 377 630 392.5 604 c 128,-1,85
 408 578 408 578 421 556 c 128,-1,86
 434 534 434 534 447 519.5 c 128,-1,87
 460 505 460 505 478 505 c 256,88,89
 496 505 496 505 501 521 c 128,-1,90
 506 537 506 537 507.5 556 c 128,-1,91
 509 575 509 575 513 591 c 128,-1,92
 517 607 517 607 534 607 c 0,93,94
 545 607 545 607 549.5 600.5 c 128,-1,95
 554 594 554 594 554 583 c 0,96,97
 554 564 554 564 546.5 540 c 128,-1,98
 539 516 539 516 525 495 c 128,-1,99
 511 474 511 474 491.5 459.5 c 128,-1,100
 472 445 472 445 447 445 c 0,101,102
 418 445 418 445 397 458 c 128,-1,103
 376 471 376 471 359 490.5 c 128,-1,104
 342 510 342 510 327 533 c 128,-1,105
 312 556 312 556 295 575.5 c 128,-1,106
 278 595 278 595 256.5 608 c 128,-1,107
 235 621 235 621 205 621 c 0,108,109
 182 621 182 621 161 614.5 c 128,-1,110
 140 608 140 608 124 594 c 128,-1,111
 108 580 108 580 98.5 558.5 c 128,-1,112
 89 537 89 537 89 507 c 0,113,114
 89 483 89 483 101 460.5 c 128,-1,115
 113 438 113 438 132.5 421.5 c 128,-1,116
 152 405 152 405 176.5 395 c 128,-1,117
 201 385 201 385 226 385 c 0,118,119
 229 385 229 385 239 387 c 128,-1,120
 249 389 249 389 257 389 c 0,121,122
 273 389 273 389 273 372 c 0,123,124
 273 363 273 363 266.5 358 c 128,-1,125
 260 353 260 353 251 350.5 c 128,-1,126
 242 348 242 348 232 347.5 c 128,-1,127
 222 347 222 347 215 347 c 0,128,129
 182 347 182 347 151 358.5 c 128,-1,130
 120 370 120 370 96 390.5 c 128,-1,131
 72 411 72 411 57.5 440 c 128,-1,132
 43 469 43 469 43 505 c 0,76,77
EndSplineSet
EndChar

StartChar: J
Encoding: 74 74 37
Width: 579
GlyphClass: 1
Flags: W
LayerCount: 2
Fore
SplineSet
69 77 m 0,0,1
 55 77 55 77 49 63.5 c 128,-1,2
 43 50 43 50 43 33 c 0,3,4
 43 12 43 12 46.5 -0.5 c 128,-1,5
 50 -13 50 -13 50 -23 c 0,6,7
 50 -31 50 -31 43.5 -34 c 128,-1,8
 37 -37 37 -37 29 -37 c 0,9,10
 13 -37 13 -37 8.5 -17.5 c 128,-1,11
 4 2 4 2 4 23 c 0,12,13
 4 48 4 48 8.5 69.5 c 128,-1,14
 13 91 13 91 24 106.5 c 128,-1,15
 35 122 35 122 53.5 130.5 c 128,-1,16
 72 139 72 139 99 139 c 0,17,18
 116 139 116 139 138 132 c 128,-1,19
 160 125 160 125 176 100 c 0,20,21
 185 86 185 86 192.5 64.5 c 128,-1,22
 200 43 200 43 207 20 c 128,-1,23
 214 -3 214 -3 222 -26 c 128,-1,24
 230 -49 230 -49 241 -67.5 c 128,-1,25
 252 -86 252 -86 267 -97.5 c 128,-1,26
 282 -109 282 -109 303 -109 c 0,27,28
 363 -116 363 -116 399.5 -86 c 128,-1,29
 436 -56 436 -56 436 2 c 0,30,31
 436 36 436 36 421 73 c 128,-1,32
 406 110 406 110 388 147.5 c 128,-1,33
 370 185 370 185 355 222.5 c 128,-1,34
 340 260 340 260 340 296 c 0,35,36
 340 320 340 320 347 342.5 c 128,-1,37
 354 365 354 365 367 382.5 c 128,-1,38
 380 400 380 400 399 410.5 c 128,-1,39
 418 421 418 421 443 421 c 0,40,41
 465 421 465 421 485 410 c 128,-1,42
 505 399 505 399 520.5 383 c 128,-1,43
 536 367 536 367 545 348.5 c 128,-1,44
 554 330 554 330 554 316 c 0,45,46
 554 311 554 311 551 304 c 128,-1,47
 548 297 548 297 542 297 c 0,48,49
 532 297 532 297 524.5 309.5 c 128,-1,50
 517 322 517 322 506 337.5 c 128,-1,51
 495 353 495 353 479 365.5 c 128,-1,52
 463 378 463 378 436 378 c 0,53,54
 426 378 426 378 420.5 366 c 128,-1,55
 415 354 415 354 415 340 c 0,56,57
 415 318 415 318 431 284.5 c 128,-1,58
 447 251 447 251 466 211 c 128,-1,59
 485 171 485 171 501 128 c 128,-1,60
 517 85 517 85 517 44 c 0,61,62
 517 -1 517 -1 499 -37.5 c 128,-1,63
 481 -74 481 -74 451 -100.5 c 128,-1,64
 421 -127 421 -127 382.5 -141.5 c 128,-1,65
 344 -156 344 -156 303 -156 c 0,66,67
 263 -156 263 -156 232 -142.5 c 128,-1,68
 201 -129 201 -129 177.5 -105 c 128,-1,69
 154 -81 154 -81 136.5 -48.5 c 128,-1,70
 119 -16 119 -16 105 21 c 0,71,72
 102 30 102 30 99 40 c 128,-1,73
 96 50 96 50 92 58 c 128,-1,74
 88 66 88 66 83 71.5 c 128,-1,75
 78 77 78 77 69 77 c 0,0,1
43 505 m 0,76,77
 43 538 43 538 57.5 573 c 128,-1,78
 72 608 72 608 96.5 637 c 128,-1,79
 121 666 121 666 152.5 684.5 c 128,-1,80
 184 703 184 703 218 703 c 0,81,82
 265 703 265 703 298 688.5 c 128,-1,83
 331 674 331 674 354 652 c 128,-1,84
 377 630 377 630 392.5 604 c 128,-1,85
 408 578 408 578 421 556 c 128,-1,86
 434 534 434 534 447 519.5 c 128,-1,87
 460 505 460 505 478 505 c 256,88,89
 496 505 496 505 501 521 c 128,-1,90
 506 537 506 537 507.5 556 c 128,-1,91
 509 575 509 575 513 591 c 128,-1,92
 517 607 517 607 534 607 c 0,93,94
 545 607 545 607 549.5 600.5 c 128,-1,95
 554 594 554 594 554 583 c 0,96,97
 554 564 554 564 546.5 540 c 128,-1,98
 539 516 539 516 525 495 c 128,-1,99
 511 474 511 474 491.5 459.5 c 128,-1,100
 472 445 472 445 447 445 c 0,101,102
 418 445 418 445 397 458 c 128,-1,103
 376 471 376 471 359 490.5 c 128,-1,104
 342 510 342 510 327 533 c 128,-1,105
 312 556 312 556 295 575.5 c 128,-1,106
 278 595 278 595 256.5 608 c 128,-1,107
 235 621 235 621 205 621 c 0,108,109
 182 621 182 621 161 614.5 c 128,-1,110
 140 608 140 608 124 594 c 128,-1,111
 108 580 108 580 98.5 558.5 c 128,-1,112
 89 537 89 537 89 507 c 0,113,114
 89 483 89 483 101 460.5 c 128,-1,115
 113 438 113 438 132.5 421.5 c 128,-1,116
 152 405 152 405 176.5 395 c 128,-1,117
 201 385 201 385 226 385 c 0,118,119
 229 385 229 385 239 387 c 128,-1,120
 249 389 249 389 257 389 c 0,121,122
 273 389 273 389 273 372 c 0,123,124
 273 363 273 363 266.5 358 c 128,-1,125
 260 353 260 353 251 350.5 c 128,-1,126
 242 348 242 348 232 347.5 c 128,-1,127
 222 347 222 347 215 347 c 0,128,129
 182 347 182 347 151 358.5 c 128,-1,130
 120 370 120 370 96 390.5 c 128,-1,131
 72 411 72 411 57.5 440 c 128,-1,132
 43 469 43 469 43 505 c 0,76,77
EndSplineSet
EndChar

StartChar: K
Encoding: 75 75 38
Width: 586
GlyphClass: 1
Flags: W
LayerCount: 2
Fore
SplineSet
109 -6 m 0,0,1
 89 -6 89 -6 70.5 0.5 c 128,-1,2
 52 7 52 7 37.5 20 c 128,-1,3
 23 33 23 33 14.5 52.5 c 128,-1,4
 6 72 6 72 6 99 c 0,5,6
 6 124 6 124 16 142 c 128,-1,7
 26 160 26 160 54 160 c 0,8,9
 74 160 74 160 88 146 c 128,-1,10
 102 132 102 132 102 112 c 0,11,12
 102 95 102 95 91.5 81.5 c 128,-1,13
 81 68 81 68 81 59 c 0,14,15
 81 45 81 45 92 36.5 c 128,-1,16
 103 28 103 28 117 28 c 0,17,18
 133 28 133 28 147 36 c 128,-1,19
 161 44 161 44 170.5 57 c 128,-1,20
 180 70 180 70 185.5 86 c 128,-1,21
 191 102 191 102 191 119 c 0,22,23
 191 141 191 141 179.5 164 c 128,-1,24
 168 187 168 187 151.5 212 c 128,-1,25
 135 237 135 237 115 264 c 128,-1,26
 95 291 95 291 78.5 320 c 128,-1,27
 62 349 62 349 50.5 381 c 128,-1,28
 39 413 39 413 39 448 c 0,29,30
 39 500 39 500 58 546.5 c 128,-1,31
 77 593 77 593 110.5 628 c 128,-1,32
 144 663 144 663 190 683 c 128,-1,33
 236 703 236 703 290 703 c 0,34,35
 355 703 355 703 406 680 c 128,-1,36
 457 657 457 657 492 617 c 128,-1,37
 527 577 527 577 545.5 522.5 c 128,-1,38
 564 468 564 468 564 404 c 0,39,40
 564 378 564 378 561.5 365 c 128,-1,41
 559 352 559 352 549 352 c 0,42,43
 538 352 538 352 532.5 365.5 c 128,-1,44
 527 379 527 379 527 396 c 0,45,46
 527 454 527 454 512.5 503.5 c 128,-1,47
 498 553 498 553 468.5 589 c 128,-1,48
 439 625 439 625 394.5 645.5 c 128,-1,49
 350 666 350 666 290 666 c 0,50,51
 255 666 255 666 222.5 656 c 128,-1,52
 190 646 190 646 165 626 c 128,-1,53
 140 606 140 606 124.5 577 c 128,-1,54
 109 548 109 548 109 511 c 0,55,56
 109 499 109 499 112.5 482 c 128,-1,57
 116 465 116 465 122 448.5 c 128,-1,58
 128 432 128 432 136.5 417 c 128,-1,59
 145 402 145 402 155 394 c 1,60,61
 152 409 152 409 151.5 423.5 c 128,-1,62
 151 438 151 438 151 448 c 0,63,64
 151 477 151 477 159 503 c 128,-1,65
 167 529 167 529 183 549 c 128,-1,66
 199 569 199 569 223 580.5 c 128,-1,67
 247 592 247 592 279 592 c 0,68,69
 315 592 315 592 345.5 582 c 128,-1,70
 376 572 376 572 401 544 c 0,71,72
 411 530 411 530 416 515 c 128,-1,73
 421 500 421 500 423.5 484 c 128,-1,74
 426 468 426 468 428 452.5 c 128,-1,75
 430 437 430 437 434 422 c 0,76,77
 440 402 440 402 453.5 396.5 c 128,-1,78
 467 391 467 391 484 391 c 256,79,80
 501 391 501 391 501 378 c 0,81,82
 501 361 501 361 488 358.5 c 128,-1,83
 475 356 475 356 464 356 c 2,84,-1
 412 356 l 2,85,86
 407 356 407 356 403 350 c 128,-1,87
 399 344 399 344 399 338 c 0,88,89
 399 316 399 316 402.5 286 c 128,-1,90
 406 256 406 256 406 234 c 0,91,92
 406 230 406 230 405.5 220 c 128,-1,93
 405 210 405 210 404 199.5 c 128,-1,94
 403 189 403 189 402.5 179 c 128,-1,95
 402 169 402 169 402 165 c 0,96,97
 402 153 402 153 406 138.5 c 128,-1,98
 410 124 410 124 417.5 110.5 c 128,-1,99
 425 97 425 97 436 88 c 128,-1,100
 447 79 447 79 461 79 c 0,101,102
 468 79 468 79 476 83 c 128,-1,103
 484 87 484 87 492.5 92.5 c 128,-1,104
 501 98 501 98 508 102 c 128,-1,105
 515 106 515 106 519 106 c 0,106,107
 522 106 522 106 526 102 c 128,-1,108
 530 98 530 98 530 95 c 0,109,110
 530 86 530 86 514 69.5 c 128,-1,111
 498 53 498 53 477 36 c 128,-1,112
 456 19 456 19 434.5 6.5 c 128,-1,113
 413 -6 413 -6 401 -6 c 0,114,115
 394 -6 394 -6 380.5 3.5 c 128,-1,116
 367 13 367 13 353.5 32 c 128,-1,117
 340 51 340 51 330 79.5 c 128,-1,118
 320 108 320 108 320 145 c 2,119,-1
 320 308 l 2,120,121
 320 331 320 331 315 337.5 c 128,-1,122
 310 344 310 344 291 344 c 0,123,124
 275 344 275 344 247.5 340 c 128,-1,125
 220 336 220 336 199 325 c 1,126,127
 218 286 218 286 230 252.5 c 128,-1,128
 242 219 242 219 242 175 c 0,129,130
 242 146 242 146 234.5 114 c 128,-1,131
 227 82 227 82 210.5 55.5 c 128,-1,132
 194 29 194 29 169 11.5 c 128,-1,133
 144 -6 144 -6 109 -6 c 0,0,1
183 452 m 0,134,135
 183 441 183 441 184 411 c 128,-1,136
 185 381 185 381 191 350 c 1,137,138
 213 357 213 357 242 361.5 c 128,-1,139
 271 366 271 366 300.5 369 c 128,-1,140
 330 372 330 372 357 376 c 128,-1,141
 384 380 384 380 402 386 c 1,142,143
 388 395 388 395 371 403 c 128,-1,144
 354 411 354 411 346 426 c 0,145,146
 336 445 336 445 334 468 c 128,-1,147
 332 491 332 491 328 511.5 c 128,-1,148
 324 532 324 532 312.5 546 c 128,-1,149
 301 560 301 560 271 560 c 0,150,151
 248 560 248 560 231 550 c 128,-1,152
 214 540 214 540 203.5 524 c 128,-1,153
 193 508 193 508 188 489 c 128,-1,154
 183 470 183 470 183 452 c 0,134,135
EndSplineSet
EndChar

StartChar: L
Encoding: 76 76 39
Width: 540
GlyphClass: 1
Flags: W
LayerCount: 2
Fore
SplineSet
334 -19 m 0,0,1
 312 -19 312 -19 288 -10 c 128,-1,2
 264 -1 264 -1 239.5 13 c 128,-1,3
 215 27 215 27 192 42.5 c 128,-1,4
 169 58 169 58 148.5 72 c 128,-1,5
 128 86 128 86 112.5 95 c 128,-1,6
 97 104 97 104 88 104 c 0,7,8
 71 104 71 104 56 91 c 128,-1,9
 41 78 41 78 41 53 c 0,10,11
 41 42 41 42 44 35 c 128,-1,12
 47 28 47 28 47 19 c 0,13,14
 47 9 47 9 41.5 2.5 c 128,-1,15
 36 -4 36 -4 26 -4 c 0,16,17
 13 -4 13 -4 8.5 11.5 c 128,-1,18
 4 27 4 27 4 41 c 0,19,20
 4 66 4 66 12 90.5 c 128,-1,21
 20 115 20 115 35 134.5 c 128,-1,22
 50 154 50 154 71 166 c 128,-1,23
 92 178 92 178 118 178 c 0,24,25
 126 178 126 178 140.5 177 c 128,-1,26
 155 176 155 176 163 172 c 1,27,28
 172 190 172 190 176 208 c 128,-1,29
 180 226 180 226 180 235 c 0,30,31
 180 253 180 253 170 270.5 c 128,-1,32
 160 288 160 288 145 306.5 c 128,-1,33
 130 325 130 325 112 345 c 128,-1,34
 94 365 94 365 79 388 c 128,-1,35
 64 411 64 411 54 437 c 128,-1,36
 44 463 44 463 44 494 c 0,37,38
 44 543 44 543 62 582.5 c 128,-1,39
 80 622 80 622 109.5 649.5 c 128,-1,40
 139 677 139 677 178 691.5 c 128,-1,41
 217 706 217 706 259 706 c 0,42,43
 294 706 294 706 332.5 691.5 c 128,-1,44
 371 677 371 677 403 651.5 c 128,-1,45
 435 626 435 626 455.5 590.5 c 128,-1,46
 476 555 476 555 476 513 c 0,47,48
 476 489 476 489 465 462.5 c 128,-1,49
 454 436 454 436 441 411.5 c 128,-1,50
 428 387 428 387 417 366 c 128,-1,51
 406 345 406 345 406 331 c 0,52,53
 406 323 406 323 425.5 310 c 128,-1,54
 445 297 445 297 483 297 c 0,55,56
 498 297 498 297 498 281 c 0,57,58
 498 273 498 273 490.5 268 c 128,-1,59
 483 263 483 263 469 263 c 0,60,61
 445 263 445 263 422 269.5 c 128,-1,62
 399 276 399 276 380.5 288.5 c 128,-1,63
 362 301 362 301 351 319.5 c 128,-1,64
 340 338 340 338 340 363 c 0,65,66
 340 379 340 379 347.5 401.5 c 128,-1,67
 355 424 355 424 364 449.5 c 128,-1,68
 373 475 373 475 380.5 501.5 c 128,-1,69
 388 528 388 528 388 553 c 0,70,71
 388 573 388 573 380 593 c 128,-1,72
 372 613 372 613 355.5 629.5 c 128,-1,73
 339 646 339 646 313.5 656.5 c 128,-1,74
 288 667 288 667 254 667 c 0,75,76
 226 667 226 667 201 656.5 c 128,-1,77
 176 646 176 646 157 628.5 c 128,-1,78
 138 611 138 611 127 589 c 128,-1,79
 116 567 116 567 116 545 c 0,80,81
 116 505 116 505 136 477 c 128,-1,82
 156 449 156 449 180.5 422.5 c 128,-1,83
 205 396 205 396 225 366 c 128,-1,84
 245 336 245 336 245 292 c 0,85,86
 245 257 245 257 224.5 221.5 c 128,-1,87
 204 186 204 186 182 160 c 1,88,89
 201 149 201 149 223.5 132 c 128,-1,90
 246 115 246 115 270 99.5 c 128,-1,91
 294 84 294 84 319 72.5 c 128,-1,92
 344 61 344 61 369 61 c 0,93,94
 403 61 403 61 424 77 c 128,-1,95
 445 93 445 93 458.5 112.5 c 128,-1,96
 472 132 472 132 480.5 148.5 c 128,-1,97
 489 165 489 165 498 165 c 0,98,99
 509 165 509 165 509 151 c 0,100,101
 509 127 509 127 491.5 97.5 c 128,-1,102
 474 68 474 68 448 42 c 128,-1,103
 422 16 422 16 391.5 -1.5 c 128,-1,104
 361 -19 361 -19 334 -19 c 0,0,1
EndSplineSet
EndChar

StartChar: M
Encoding: 77 77 40
Width: 947
GlyphClass: 1
Flags: W
LayerCount: 2
Fore
SplineSet
46 5 m 0,0,1
 46 8 46 8 51 15.5 c 128,-1,2
 56 23 56 23 63.5 33 c 128,-1,3
 71 43 71 43 80 54 c 128,-1,4
 89 65 89 65 97 76 c 0,5,6
 111 95 111 95 118 109 c 128,-1,7
 125 123 125 123 133 123 c 0,8,9
 146 123 146 123 158.5 116.5 c 128,-1,10
 171 110 171 110 183.5 102.5 c 128,-1,11
 196 95 196 95 208 89 c 128,-1,12
 220 83 220 83 231 83 c 0,13,14
 251 83 251 83 265 134 c 128,-1,15
 279 185 279 185 279 282 c 0,16,17
 279 301 279 301 279 337.5 c 128,-1,18
 279 374 279 374 276.5 417 c 128,-1,19
 274 460 274 460 267.5 505 c 128,-1,20
 261 550 261 550 247 586.5 c 128,-1,21
 233 623 233 623 210 646.5 c 128,-1,22
 187 670 187 670 152 670 c 0,23,24
 108 670 108 670 81.5 647 c 128,-1,25
 55 624 55 624 55 577 c 0,26,27
 55 554 55 554 66 536.5 c 128,-1,28
 77 519 77 519 94 504.5 c 128,-1,29
 111 490 111 490 130.5 476 c 128,-1,30
 150 462 150 462 167 446.5 c 128,-1,31
 184 431 184 431 195 411 c 128,-1,32
 206 391 206 391 206 364 c 0,33,34
 206 338 206 338 198.5 319 c 128,-1,35
 191 300 191 300 178 285.5 c 128,-1,36
 165 271 165 271 147.5 259.5 c 128,-1,37
 130 248 130 248 109 236 c 0,38,39
 101 230 101 230 96 229 c 128,-1,40
 91 228 91 228 82 228 c 2,41,-1
 67 228 l 2,42,43
 63 228 63 228 63 236 c 0,44,45
 63 245 63 245 76.5 252.5 c 128,-1,46
 90 260 90 260 105.5 268.5 c 128,-1,47
 121 277 121 277 134.5 287.5 c 128,-1,48
 148 298 148 298 148 313 c 0,49,50
 148 332 148 332 139.5 345 c 128,-1,51
 131 358 131 358 118.5 368.5 c 128,-1,52
 106 379 106 379 91 387.5 c 128,-1,53
 76 396 76 396 63 406 c 0,54,55
 31 429 31 429 18 463 c 128,-1,56
 5 497 5 497 5 538 c 0,57,58
 5 572 5 572 18.5 602.5 c 128,-1,59
 32 633 32 633 54.5 655.5 c 128,-1,60
 77 678 77 678 107.5 691.5 c 128,-1,61
 138 705 138 705 171 705 c 0,62,63
 189 705 189 705 211.5 698 c 128,-1,64
 234 691 234 691 256 678.5 c 128,-1,65
 278 666 278 666 297.5 648.5 c 128,-1,66
 317 631 317 631 329 611 c 1,67,68
 336 627 336 627 347.5 644 c 128,-1,69
 359 661 359 661 373 674.5 c 128,-1,70
 387 688 387 688 404.5 696.5 c 128,-1,71
 422 705 422 705 443 705 c 0,72,73
 468 705 468 705 489 697 c 128,-1,74
 510 689 510 689 527.5 676 c 128,-1,75
 545 663 545 663 557.5 646.5 c 128,-1,76
 570 630 570 630 578 612 c 1,77,78
 589 630 589 630 603 647 c 128,-1,79
 617 664 617 664 635 676.5 c 128,-1,80
 653 689 653 689 675.5 697 c 128,-1,81
 698 705 698 705 726 705 c 0,82,83
 752 705 752 705 775.5 697.5 c 128,-1,84
 799 690 799 690 817 676.5 c 128,-1,85
 835 663 835 663 846 644.5 c 128,-1,86
 857 626 857 626 857 604 c 0,87,88
 857 587 857 587 853.5 568 c 128,-1,89
 850 549 850 549 850 535 c 0,90,91
 850 508 850 508 867 487.5 c 128,-1,92
 884 467 884 467 910 459 c 1,93,94
 877 447 877 447 851 431 c 128,-1,95
 825 415 825 415 807.5 387.5 c 128,-1,96
 790 360 790 360 780.5 317.5 c 128,-1,97
 771 275 771 275 771 209 c 0,98,99
 771 196 771 196 774 173.5 c 128,-1,100
 777 151 777 151 783.5 129 c 128,-1,101
 790 107 790 107 801.5 91 c 128,-1,102
 813 75 813 75 831 75 c 0,103,104
 845 75 845 75 858 85.5 c 128,-1,105
 871 96 871 96 885 96 c 0,106,107
 890 96 890 96 893.5 91.5 c 128,-1,108
 897 87 897 87 897 82 c 0,109,110
 897 76 897 76 889 69 c 128,-1,111
 881 62 881 62 870 55 c 128,-1,112
 859 48 859 48 846 42 c 128,-1,113
 833 36 833 36 824 32 c 0,114,115
 816 29 816 29 809 21.5 c 128,-1,116
 802 14 802 14 795.5 6.5 c 128,-1,117
 789 -1 789 -1 783.5 -6.5 c 128,-1,118
 778 -12 778 -12 774 -12 c 0,119,120
 769 -12 769 -12 754.5 -1 c 128,-1,121
 740 10 740 10 723.5 33 c 128,-1,122
 707 56 707 56 694.5 92 c 128,-1,123
 682 128 682 128 682 178 c 0,124,125
 682 293 682 293 728.5 360 c 128,-1,126
 775 427 775 427 858 459 c 1,127,128
 804 480 804 480 777.5 506.5 c 128,-1,129
 751 533 751 533 751 584 c 0,130,131
 751 598 751 598 752.5 611 c 128,-1,132
 754 624 754 624 754 638 c 256,133,134
 754 652 754 652 739 664.5 c 128,-1,135
 724 677 724 677 704 677 c 0,136,137
 691 677 691 677 675.5 670 c 128,-1,138
 660 663 660 663 645 651 c 128,-1,139
 630 639 630 639 616.5 623 c 128,-1,140
 603 607 603 607 594 588 c 1,141,142
 602 546 602 546 602.5 498 c 128,-1,143
 603 450 603 450 603 402 c 0,144,145
 603 366 603 366 600 327.5 c 128,-1,146
 597 289 597 289 590.5 253.5 c 128,-1,147
 584 218 584 218 574 187 c 128,-1,148
 564 156 564 156 550 134 c 0,149,150
 530 103 530 103 514.5 76 c 128,-1,151
 499 49 499 49 486 29.5 c 128,-1,152
 473 10 473 10 463.5 -1 c 128,-1,153
 454 -12 454 -12 448 -12 c 0,154,155
 443 -12 443 -12 433.5 -3.5 c 128,-1,156
 424 5 424 5 413.5 15 c 128,-1,157
 403 25 403 25 392.5 33.5 c 128,-1,158
 382 42 382 42 375 42 c 0,159,160
 364 42 364 42 356.5 33.5 c 128,-1,161
 349 25 349 25 342 15 c 128,-1,162
 335 5 335 5 328 -3.5 c 128,-1,163
 321 -12 321 -12 311 -12 c 0,164,165
 304 -12 304 -12 300.5 -7 c 128,-1,166
 297 -2 297 -2 297 5 c 0,167,168
 297 11 297 11 309 30.5 c 128,-1,169
 321 50 321 50 336.5 70.5 c 128,-1,170
 352 91 352 91 365.5 107 c 128,-1,171
 379 123 379 123 382 123 c 0,172,173
 391 123 391 123 401.5 117.5 c 128,-1,174
 412 112 412 112 423.5 105.5 c 128,-1,175
 435 99 435 99 448 93.5 c 128,-1,176
 461 88 461 88 475 88 c 0,177,178
 488 88 488 88 496 113 c 128,-1,179
 504 138 504 138 508 172 c 128,-1,180
 512 206 512 206 513 241.5 c 128,-1,181
 514 277 514 277 514 298 c 0,182,183
 514 393 514 393 511 464 c 128,-1,184
 508 535 508 535 499 581.5 c 128,-1,185
 490 628 490 628 473 651 c 128,-1,186
 456 674 456 674 427 674 c 0,187,188
 407 674 407 674 394.5 666 c 128,-1,189
 382 658 382 658 373.5 645 c 128,-1,190
 365 632 365 632 359 615 c 128,-1,191
 353 598 353 598 347 580 c 1,192,193
 358 544 358 544 362.5 505 c 128,-1,194
 367 466 367 466 367 430 c 0,195,196
 367 397 367 397 364.5 354.5 c 128,-1,197
 362 312 362 312 355 270 c 128,-1,198
 348 228 348 228 336.5 191 c 128,-1,199
 325 154 325 154 307 131 c 0,200,201
 293 114 293 114 278.5 89.5 c 128,-1,202
 264 65 264 65 250.5 42.5 c 128,-1,203
 237 20 237 20 225.5 4 c 128,-1,204
 214 -12 214 -12 207 -12 c 0,205,206
 196 -12 196 -12 184.5 -3.5 c 128,-1,207
 173 5 173 5 161.5 15 c 128,-1,208
 150 25 150 25 139 33.5 c 128,-1,209
 128 42 128 42 119 42 c 0,210,211
 111 42 111 42 104 33.5 c 128,-1,212
 97 25 97 25 89.5 15 c 128,-1,213
 82 5 82 5 74.5 -3.5 c 128,-1,214
 67 -12 67 -12 60 -12 c 0,215,216
 46 -12 46 -12 46 5 c 0,0,1
EndSplineSet
EndChar

StartChar: N
Encoding: 78 78 41
Width: 704
GlyphClass: 1
Flags: W
LayerCount: 2
Fore
SplineSet
441 170 m 0,0,1
 441 221 441 221 448 262.5 c 128,-1,2
 455 304 455 304 474.5 336.5 c 128,-1,3
 494 369 494 369 529 392 c 128,-1,4
 564 415 564 415 620 429 c 1,5,6
 569 444 569 444 543 472.5 c 128,-1,7
 517 501 517 501 516 531 c 0,8,9
 515 553 515 553 517.5 573.5 c 128,-1,10
 520 594 520 594 520 608 c 0,11,12
 520 630 520 630 499.5 644.5 c 128,-1,13
 479 659 479 659 456 659 c 0,14,15
 414 659 414 659 391 627 c 128,-1,16
 368 595 368 595 359 553 c 0,17,18
 361 544 361 544 363.5 528.5 c 128,-1,19
 366 513 366 513 367.5 494 c 128,-1,20
 369 475 369 475 370 455 c 128,-1,21
 371 435 371 435 371 416 c 0,22,23
 371 349 371 349 359.5 291 c 128,-1,24
 348 233 348 233 330 185.5 c 128,-1,25
 312 138 312 138 291 101.5 c 128,-1,26
 270 65 270 65 251.5 40 c 128,-1,27
 233 15 233 15 219.5 2 c 128,-1,28
 206 -11 206 -11 204 -11 c 0,29,30
 198 -11 198 -11 185.5 -2.5 c 128,-1,31
 173 6 173 6 159.5 16.5 c 128,-1,32
 146 27 146 27 134 35.5 c 128,-1,33
 122 44 122 44 116 44 c 0,34,35
 108 44 108 44 100.5 35.5 c 128,-1,36
 93 27 93 27 85 16.5 c 128,-1,37
 77 6 77 6 69.5 -2.5 c 128,-1,38
 62 -11 62 -11 54 -11 c 0,39,40
 44 -11 44 -11 41 -6.5 c 128,-1,41
 38 -2 38 -2 38 8 c 0,42,43
 38 15 38 15 51 35.5 c 128,-1,44
 64 56 64 56 81 78.5 c 128,-1,45
 98 101 98 101 114 118.5 c 128,-1,46
 130 136 130 136 136 136 c 0,47,48
 145 136 145 136 160 127 c 128,-1,49
 175 118 175 118 190 107.5 c 128,-1,50
 205 97 205 97 219 88 c 128,-1,51
 233 79 233 79 241 79 c 0,52,53
 248 79 248 79 254.5 93 c 128,-1,54
 261 107 261 107 266 140.5 c 128,-1,55
 271 174 271 174 274 228.5 c 128,-1,56
 277 283 277 283 277 364 c 0,57,58
 277 420 277 420 272.5 473 c 128,-1,59
 268 526 268 526 255.5 567.5 c 128,-1,60
 243 609 243 609 220.5 634.5 c 128,-1,61
 198 660 198 660 163 660 c 0,62,63
 136 660 136 660 117.5 652.5 c 128,-1,64
 99 645 99 645 87.5 633.5 c 128,-1,65
 76 622 76 622 71 609 c 128,-1,66
 66 596 66 596 66 585 c 0,67,68
 66 559 66 559 76 540.5 c 128,-1,69
 86 522 86 522 101 506.5 c 128,-1,70
 116 491 116 491 133 476.5 c 128,-1,71
 150 462 150 462 165 445 c 128,-1,72
 180 428 180 428 190 406 c 128,-1,73
 200 384 200 384 200 354 c 0,74,75
 200 336 200 336 185 315.5 c 128,-1,76
 170 295 170 295 149.5 278 c 128,-1,77
 129 261 129 261 107.5 250 c 128,-1,78
 86 239 86 239 73 239 c 0,79,80
 61 239 61 239 57 244.5 c 128,-1,81
 53 250 53 250 53 256 c 0,82,83
 53 273 53 273 66.5 277.5 c 128,-1,84
 80 282 80 282 96.5 285 c 128,-1,85
 113 288 113 288 126.5 296 c 128,-1,86
 140 304 140 304 140 328 c 0,87,88
 140 348 140 348 130 361.5 c 128,-1,89
 120 375 120 375 105 387.5 c 128,-1,90
 90 400 90 400 72 413.5 c 128,-1,91
 54 427 54 427 39 446 c 128,-1,92
 24 465 24 465 14 492 c 128,-1,93
 4 519 4 519 4 558 c 0,94,95
 4 590 4 590 22 617 c 128,-1,96
 40 644 40 644 67 663.5 c 128,-1,97
 94 683 94 683 126.5 693.5 c 128,-1,98
 159 704 159 704 189 704 c 0,99,100
 220 704 220 704 242.5 694.5 c 128,-1,101
 265 685 265 685 283 669.5 c 128,-1,102
 301 654 301 654 315 632.5 c 128,-1,103
 329 611 329 611 342 587 c 1,104,105
 364 644 364 644 398 676 c 128,-1,106
 432 708 432 708 494 708 c 0,107,108
 519 708 519 708 541.5 697.5 c 128,-1,109
 564 687 564 687 580 670 c 128,-1,110
 596 653 596 653 605.5 630.5 c 128,-1,111
 615 608 615 608 615 584 c 0,112,113
 615 567 615 567 612.5 550 c 128,-1,114
 610 533 610 533 611 516 c 0,115,116
 612 490 612 490 619 476 c 128,-1,117
 626 462 626 462 635.5 454 c 128,-1,118
 645 446 645 446 656.5 441 c 128,-1,119
 668 436 668 436 678 429 c 1,120,121
 633 415 633 415 603.5 397 c 128,-1,122
 574 379 574 379 557.5 353.5 c 128,-1,123
 541 328 541 328 534.5 293.5 c 128,-1,124
 528 259 528 259 528 211 c 0,125,126
 528 148 528 148 537 113.5 c 128,-1,127
 546 79 546 79 581 79 c 0,128,129
 589 79 589 79 599.5 84 c 128,-1,130
 610 89 610 89 620.5 95.5 c 128,-1,131
 631 102 631 102 641 107 c 128,-1,132
 651 112 651 112 657 112 c 0,133,134
 661 112 661 112 665 106 c 128,-1,135
 669 100 669 100 669 98 c 0,136,137
 669 92 669 92 660 83 c 128,-1,138
 651 74 651 74 636.5 64 c 128,-1,139
 622 54 622 54 605.5 43.5 c 128,-1,140
 589 33 589 33 574 25 c 0,141,142
 554 14 554 14 538 -0.5 c 128,-1,143
 522 -15 522 -15 513 -15 c 0,144,145
 508 -15 508 -15 496 -5.5 c 128,-1,146
 484 4 484 4 472 25.5 c 128,-1,147
 460 47 460 47 450.5 82.5 c 128,-1,148
 441 118 441 118 441 170 c 0,0,1
EndSplineSet
EndChar

StartChar: O
Encoding: 79 79 42
Width: 682
GlyphClass: 1
Flags: W
LayerCount: 2
Fore
SplineSet
371 -9 m 256,0,1
 329 -9 329 -9 290 7 c 128,-1,2
 251 23 251 23 217.5 42.5 c 128,-1,3
 184 62 184 62 156 78 c 128,-1,4
 128 94 128 94 109 94 c 0,5,6
 85 94 85 94 75.5 82 c 128,-1,7
 66 70 66 70 61.5 55.5 c 128,-1,8
 57 41 57 41 52.5 29 c 128,-1,9
 48 17 48 17 35 17 c 0,10,11
 26 17 26 17 22 24.5 c 128,-1,12
 18 32 18 32 18 42 c 0,13,14
 18 66 18 66 25.5 88.5 c 128,-1,15
 33 111 33 111 47 129 c 128,-1,16
 61 147 61 147 80.5 158 c 128,-1,17
 100 169 100 169 124 169 c 0,18,19
 167 169 167 169 198 153.5 c 128,-1,20
 229 138 229 138 259 120 c 128,-1,21
 289 102 289 102 322 86.5 c 128,-1,22
 355 71 355 71 401 71 c 0,23,24
 441 71 441 71 475.5 97.5 c 128,-1,25
 510 124 510 124 535.5 162.5 c 128,-1,26
 561 201 561 201 575.5 244 c 128,-1,27
 590 287 590 287 590 321 c 0,28,29
 590 369 590 369 569.5 417.5 c 128,-1,30
 549 466 549 466 516 505 c 128,-1,31
 483 544 483 544 441 568.5 c 128,-1,32
 399 593 399 593 356 593 c 0,33,34
 338 593 338 593 315.5 585.5 c 128,-1,35
 293 578 293 578 273 578 c 0,36,37
 247 578 247 578 217 587.5 c 128,-1,38
 187 597 187 597 158 616 c 1,39,40
 145 609 145 609 133.5 585.5 c 128,-1,41
 122 562 122 562 122 540 c 0,42,43
 122 515 122 515 141 488 c 128,-1,44
 160 461 160 461 183 432.5 c 128,-1,45
 206 404 206 404 225 375 c 128,-1,46
 244 346 244 346 244 318 c 0,47,48
 244 264 244 264 206.5 233 c 128,-1,49
 169 202 169 202 113 202 c 0,50,51
 84 202 84 202 64 211.5 c 128,-1,52
 44 221 44 221 31.5 237.5 c 128,-1,53
 19 254 19 254 13 275 c 128,-1,54
 7 296 7 296 7 320 c 0,55,56
 7 327 7 327 8.5 338.5 c 128,-1,57
 10 350 10 350 13.5 360.5 c 128,-1,58
 17 371 17 371 21.5 379 c 128,-1,59
 26 387 26 387 32 387 c 0,60,61
 51 387 51 387 51 366 c 0,62,63
 51 358 51 358 47.5 347.5 c 128,-1,64
 44 337 44 337 44 321 c 0,65,66
 44 235 44 235 113 235 c 0,67,68
 134 235 134 235 148 248.5 c 128,-1,69
 162 262 162 262 162 287 c 0,70,71
 162 311 162 311 145.5 333.5 c 128,-1,72
 129 356 129 356 108.5 381 c 128,-1,73
 88 406 88 406 71.5 436 c 128,-1,74
 55 466 55 466 55 506 c 0,75,76
 55 550 55 550 76.5 582.5 c 128,-1,77
 98 615 98 615 129 648 c 1,78,79
 116 660 116 660 108.5 675 c 128,-1,80
 101 690 101 690 101 701 c 0,81,82
 101 706 101 706 106 711.5 c 128,-1,83
 111 717 111 717 116 717 c 0,84,85
 130 717 130 717 136.5 709 c 128,-1,86
 143 701 143 701 150.5 692 c 128,-1,87
 158 683 158 683 171 675 c 128,-1,88
 184 667 184 667 211 667 c 0,89,90
 228 667 228 667 242.5 672.5 c 128,-1,91
 257 678 257 678 270.5 684 c 128,-1,92
 284 690 284 690 298.5 695.5 c 128,-1,93
 313 701 313 701 330 701 c 0,94,95
 393 701 393 701 448 675.5 c 128,-1,96
 503 650 503 650 544.5 603 c 128,-1,97
 586 556 586 556 609.5 489.5 c 128,-1,98
 633 423 633 423 633 341 c 0,99,100
 633 258 633 258 607.5 193 c 128,-1,101
 582 128 582 128 543.5 83 c 128,-1,102
 505 38 505 38 459 14.5 c 128,-1,103
 413 -9 413 -9 371 -9 c 256,0,1
EndSplineSet
EndChar

StartChar: P
Encoding: 80 80 43
Width: 666
GlyphClass: 1
Flags: W
LayerCount: 2
Fore
SplineSet
308 -156 m 0,0,1
 298 -156 298 -156 289.5 -150 c 128,-1,2
 281 -144 281 -144 280 -136 c 2,3,-1
 272 44 l 1,4,5
 252 55 252 55 226 63 c 128,-1,6
 200 71 200 71 184 71 c 0,7,8
 164 71 164 71 147 56.5 c 128,-1,9
 130 42 130 42 128 22 c 0,10,11
 127 16 127 16 123 10 c 128,-1,12
 119 4 119 4 114 4 c 0,13,14
 106 4 106 4 102.5 10.5 c 128,-1,15
 99 17 99 17 99 26 c 0,16,17
 99 43 99 43 106 65 c 128,-1,18
 113 87 113 87 126 107 c 128,-1,19
 139 127 139 127 158.5 141 c 128,-1,20
 178 155 178 155 202 155 c 0,21,22
 219 155 219 155 234 153 c 128,-1,23
 249 151 249 151 268 145 c 1,24,-1
 254 542 l 2,25,26
 252 563 252 563 247 586 c 128,-1,27
 242 609 242 609 230.5 629 c 128,-1,28
 219 649 219 649 201 662 c 128,-1,29
 183 675 183 675 156 675 c 0,30,31
 139 675 139 675 123.5 668 c 128,-1,32
 108 661 108 661 96.5 648.5 c 128,-1,33
 85 636 85 636 78 620 c 128,-1,34
 71 604 71 604 71 586 c 0,35,36
 71 551 71 551 89.5 527 c 128,-1,37
 108 503 108 503 130 480 c 128,-1,38
 152 457 152 457 170.5 431 c 128,-1,39
 189 405 189 405 189 368 c 0,40,41
 189 353 189 353 176.5 331.5 c 128,-1,42
 164 310 164 310 147 291 c 128,-1,43
 130 272 130 272 112 258.5 c 128,-1,44
 94 245 94 245 83 245 c 0,45,46
 70 247 70 247 64 252.5 c 128,-1,47
 58 258 58 258 58 272 c 0,48,49
 58 279 58 279 68.5 285 c 128,-1,50
 79 291 79 291 92 298 c 128,-1,51
 105 305 105 305 115.5 313.5 c 128,-1,52
 126 322 126 322 126 335 c 0,53,54
 126 345 126 345 108 359.5 c 128,-1,55
 90 374 90 374 69 395.5 c 128,-1,56
 48 417 48 417 30 446 c 128,-1,57
 12 475 12 475 12 513 c 0,58,59
 12 535 12 535 22 568 c 128,-1,60
 32 601 32 601 53 631 c 128,-1,61
 74 661 74 661 105 682.5 c 128,-1,62
 136 704 136 704 178 704 c 0,63,64
 187 704 187 704 204 699.5 c 128,-1,65
 221 695 221 695 241 684 c 128,-1,66
 261 673 261 673 282 653.5 c 128,-1,67
 303 634 303 634 320 606 c 1,68,69
 329 621 329 621 339 638 c 128,-1,70
 349 655 349 655 365.5 670 c 128,-1,71
 382 685 382 685 406.5 694.5 c 128,-1,72
 431 704 431 704 469 704 c 0,73,74
 494 704 494 704 514 695 c 128,-1,75
 534 686 534 686 548 671.5 c 128,-1,76
 562 657 562 657 570 639 c 128,-1,77
 578 621 578 621 578 603 c 0,78,79
 578 595 578 595 575.5 575 c 128,-1,80
 573 555 573 555 573 540 c 0,81,82
 573 511 573 511 587 496.5 c 128,-1,83
 601 482 601 482 624 472 c 1,84,85
 595 466 595 466 571 455 c 128,-1,86
 547 444 547 444 530.5 431 c 128,-1,87
 514 418 514 418 505 405.5 c 128,-1,88
 496 393 496 393 496 383 c 0,89,90
 496 352 496 352 516 334.5 c 128,-1,91
 536 317 536 317 560.5 302 c 128,-1,92
 585 287 585 287 605 269.5 c 128,-1,93
 625 252 625 252 625 222 c 0,94,95
 625 175 625 175 615.5 133.5 c 128,-1,96
 606 92 606 92 585.5 60.5 c 128,-1,97
 565 29 565 29 532.5 10.5 c 128,-1,98
 500 -8 500 -8 453 -8 c 0,99,100
 432 -8 432 -8 403.5 -2.5 c 128,-1,101
 375 3 375 3 337 20 c 1,102,-1
 328 -124 l 2,103,104
 328 -137 328 -137 323.5 -146.5 c 128,-1,105
 319 -156 319 -156 308 -156 c 0,0,1
339 118 m 1,106,107
 379 103 379 103 407.5 88 c 128,-1,108
 436 73 436 73 461 73 c 0,109,110
 484 73 484 73 506.5 76 c 128,-1,111
 529 79 529 79 547 88.5 c 128,-1,112
 565 98 565 98 576 114.5 c 128,-1,113
 587 131 587 131 587 158 c 0,114,115
 587 177 587 177 562 197 c 128,-1,116
 537 217 537 217 507 240 c 128,-1,117
 477 263 477 263 452 289.5 c 128,-1,118
 427 316 427 316 427 346 c 0,119,120
 427 361 427 361 432.5 377 c 128,-1,121
 438 393 438 393 451.5 409.5 c 128,-1,122
 465 426 465 426 488 442 c 128,-1,123
 511 458 511 458 545 472 c 1,124,125
 518 484 518 484 500 499.5 c 128,-1,126
 482 515 482 515 482 540 c 0,127,128
 482 552 482 552 483.5 566 c 128,-1,129
 485 580 485 580 485 594 c 0,130,131
 484 623 484 623 475.5 641.5 c 128,-1,132
 467 660 467 660 437 660 c 0,133,134
 422 660 422 660 407.5 650 c 128,-1,135
 393 640 393 640 381 624.5 c 128,-1,136
 369 609 369 609 359.5 590.5 c 128,-1,137
 350 572 350 572 346 555 c 2,138,-1
 339 118 l 1,106,107
EndSplineSet
EndChar

StartChar: Q
Encoding: 81 81 44
Width: 682
GlyphClass: 1
Flags: W
LayerCount: 2
Fore
SplineSet
371 -9 m 0,0,1
 329 -9 329 -9 290 7 c 128,-1,2
 251 23 251 23 217.5 42.5 c 128,-1,3
 184 62 184 62 156 78 c 128,-1,4
 128 94 128 94 109 94 c 0,5,6
 85 94 85 94 75.5 82 c 128,-1,7
 66 70 66 70 61.5 55.5 c 128,-1,8
 57 41 57 41 52.5 29 c 128,-1,9
 48 17 48 17 35 17 c 0,10,11
 26 17 26 17 22 24.5 c 128,-1,12
 18 32 18 32 18 42 c 0,13,14
 18 66 18 66 25.5 88.5 c 128,-1,15
 33 111 33 111 47 129 c 128,-1,16
 61 147 61 147 80.5 158 c 128,-1,17
 100 169 100 169 124 169 c 0,18,19
 167 169 167 169 198 153.5 c 128,-1,20
 229 138 229 138 259 120 c 128,-1,21
 289 102 289 102 322 86.5 c 128,-1,22
 355 71 355 71 401 71 c 0,23,24
 441 71 441 71 475.5 97.5 c 128,-1,25
 510 124 510 124 535.5 162.5 c 128,-1,26
 561 201 561 201 575.5 244 c 128,-1,27
 590 287 590 287 590 321 c 0,28,29
 590 369 590 369 569.5 417.5 c 128,-1,30
 549 466 549 466 516 505 c 128,-1,31
 483 544 483 544 441 568.5 c 128,-1,32
 399 593 399 593 356 593 c 0,33,34
 338 593 338 593 315.5 585.5 c 128,-1,35
 293 578 293 578 273 578 c 0,36,37
 247 578 247 578 217 587.5 c 128,-1,38
 187 597 187 597 158 616 c 1,39,40
 145 609 145 609 133.5 585.5 c 128,-1,41
 122 562 122 562 122 540 c 0,42,43
 122 515 122 515 141 488 c 128,-1,44
 160 461 160 461 183 432.5 c 128,-1,45
 206 404 206 404 225 375 c 128,-1,46
 244 346 244 346 244 318 c 0,47,48
 244 264 244 264 206.5 233 c 128,-1,49
 169 202 169 202 113 202 c 0,50,51
 84 202 84 202 64 211.5 c 128,-1,52
 44 221 44 221 31.5 237.5 c 128,-1,53
 19 254 19 254 13 275 c 128,-1,54
 7 296 7 296 7 320 c 0,55,56
 7 327 7 327 8.5 338.5 c 128,-1,57
 10 350 10 350 13.5 360.5 c 128,-1,58
 17 371 17 371 21.5 379 c 128,-1,59
 26 387 26 387 32 387 c 0,60,61
 51 387 51 387 51 366 c 0,62,63
 51 358 51 358 47.5 347.5 c 128,-1,64
 44 337 44 337 44 321 c 0,65,66
 44 235 44 235 113 235 c 0,67,68
 134 235 134 235 148 248.5 c 128,-1,69
 162 262 162 262 162 287 c 0,70,71
 162 311 162 311 145.5 333.5 c 128,-1,72
 129 356 129 356 108.5 381 c 128,-1,73
 88 406 88 406 71.5 436 c 128,-1,74
 55 466 55 466 55 506 c 0,75,76
 55 550 55 550 76.5 582.5 c 128,-1,77
 98 615 98 615 129 648 c 1,78,79
 116 660 116 660 108.5 675 c 128,-1,80
 101 690 101 690 101 701 c 0,81,82
 101 706 101 706 106 711.5 c 128,-1,83
 111 717 111 717 116 717 c 0,84,85
 130 717 130 717 136.5 709 c 128,-1,86
 143 701 143 701 150.5 692 c 128,-1,87
 158 683 158 683 171 675 c 128,-1,88
 184 667 184 667 211 667 c 0,89,90
 228 667 228 667 242.5 672.5 c 128,-1,91
 257 678 257 678 270.5 684 c 128,-1,92
 284 690 284 690 298.5 695.5 c 128,-1,93
 313 701 313 701 330 701 c 0,94,95
 393 701 393 701 448 675.5 c 128,-1,96
 503 650 503 650 544.5 603 c 128,-1,97
 586 556 586 556 609.5 489.5 c 128,-1,98
 633 423 633 423 633 341 c 0,99,100
 633 266 633 266 612.5 207 c 128,-1,101
 592 148 592 148 560 104 c 1,102,103
 576 85 576 85 587 73.5 c 128,-1,104
 598 62 598 62 607 62 c 0,105,106
 611 62 611 62 617 66.5 c 128,-1,107
 623 71 623 71 629 77 c 128,-1,108
 635 83 635 83 639.5 87.5 c 128,-1,109
 644 92 644 92 646 92 c 0,110,111
 651 92 651 92 655.5 86 c 128,-1,112
 660 80 660 80 660 74 c 0,113,114
 660 72 660 72 647 58.5 c 128,-1,115
 634 45 634 45 616.5 30 c 128,-1,116
 599 15 599 15 582.5 3 c 128,-1,117
 566 -9 566 -9 559 -9 c 0,118,119
 550 -9 550 -9 531.5 7 c 128,-1,120
 513 23 513 23 499 40 c 1,121,122
 467 16 467 16 434 3.5 c 128,-1,123
 401 -9 401 -9 371 -9 c 0,0,1
EndSplineSet
EndChar

StartChar: R
Encoding: 82 82 45
Width: 722
GlyphClass: 1
Flags: W
LayerCount: 2
Fore
SplineSet
42 109 m 0,0,1
 42 138 42 138 57 158 c 128,-1,2
 72 178 72 178 104 178 c 0,3,4
 121 178 121 178 137.5 165 c 128,-1,5
 154 152 154 152 154 135 c 0,6,7
 154 114 154 114 141.5 99 c 128,-1,8
 129 84 129 84 106 81 c 1,9,10
 106 70 106 70 112.5 60.5 c 128,-1,11
 119 51 119 51 129 43 c 128,-1,12
 139 35 139 35 151 30.5 c 128,-1,13
 163 26 163 26 174 26 c 0,14,15
 203 26 203 26 223.5 42.5 c 128,-1,16
 244 59 244 59 257 97 c 128,-1,17
 270 135 270 135 276 196.5 c 128,-1,18
 282 258 282 258 282 349 c 0,19,20
 282 509 282 509 249.5 586 c 128,-1,21
 217 663 217 663 162 663 c 0,22,23
 137 663 137 663 118.5 653 c 128,-1,24
 100 643 100 643 88 627 c 128,-1,25
 76 611 76 611 70.5 590.5 c 128,-1,26
 65 570 65 570 65 548 c 0,27,28
 65 529 65 529 75 515 c 128,-1,29
 85 501 85 501 100 488.5 c 128,-1,30
 115 476 115 476 132 464.5 c 128,-1,31
 149 453 149 453 164 438.5 c 128,-1,32
 179 424 179 424 189 405 c 128,-1,33
 199 386 199 386 199 360 c 0,34,35
 199 336 199 336 189 314 c 128,-1,36
 179 292 179 292 163 275 c 128,-1,37
 147 258 147 258 126.5 247.5 c 128,-1,38
 106 237 106 237 84 237 c 0,39,40
 74 237 74 237 65.5 242 c 128,-1,41
 57 247 57 247 57 254 c 0,42,43
 57 266 57 266 71.5 271 c 128,-1,44
 86 276 86 276 100 280 c 0,45,46
 118 285 118 285 127 296 c 128,-1,47
 136 307 136 307 136 319 c 0,48,49
 136 337 136 337 126.5 351.5 c 128,-1,50
 117 366 117 366 102.5 378.5 c 128,-1,51
 88 391 88 391 71 404 c 128,-1,52
 54 417 54 417 39.5 433 c 128,-1,53
 25 449 25 449 15.5 470.5 c 128,-1,54
 6 492 6 492 6 521 c 0,55,56
 6 557 6 557 16 589.5 c 128,-1,57
 26 622 26 622 46 647 c 128,-1,58
 66 672 66 672 97 687 c 128,-1,59
 128 702 128 702 170 702 c 0,60,61
 203 702 203 702 229.5 690.5 c 128,-1,62
 256 679 256 679 276.5 661 c 128,-1,63
 297 643 297 643 311.5 621 c 128,-1,64
 326 599 326 599 337 578 c 1,65,66
 343 600 343 600 358 624 c 128,-1,67
 373 648 373 648 394 667.5 c 128,-1,68
 415 687 415 687 441 699.5 c 128,-1,69
 467 712 467 712 496 712 c 0,70,71
 524 712 524 712 546 701 c 128,-1,72
 568 690 568 690 583 672 c 128,-1,73
 598 654 598 654 606 630.5 c 128,-1,74
 614 607 614 607 614 582 c 0,75,76
 614 565 614 565 610 544.5 c 128,-1,77
 606 524 606 524 606 507 c 0,78,79
 606 499 606 499 606 492 c 128,-1,80
 606 485 606 485 611 477.5 c 128,-1,81
 616 470 616 470 628.5 462 c 128,-1,82
 641 454 641 454 665 445 c 1,83,84
 635 427 635 427 602.5 415 c 128,-1,85
 570 403 570 403 526 392 c 1,86,87
 532 389 532 389 539 384 c 128,-1,88
 546 379 546 379 553 372 c 128,-1,89
 560 365 560 365 566 356.5 c 128,-1,90
 572 348 572 348 572 337 c 2,91,-1
 572 161 l 2,92,93
 572 125 572 125 582.5 105 c 128,-1,94
 593 85 593 85 618 85 c 0,95,96
 628 85 628 85 636.5 91.5 c 128,-1,97
 645 98 645 98 652 105.5 c 128,-1,98
 659 113 659 113 665 119.5 c 128,-1,99
 671 126 671 126 675 126 c 0,100,101
 680 126 680 126 685 120.5 c 128,-1,102
 690 115 690 115 689 110 c 0,103,104
 689 106 689 106 672 87 c 128,-1,105
 655 68 655 68 634 47 c 128,-1,106
 613 26 613 26 594 9 c 128,-1,107
 575 -8 575 -8 571 -8 c 0,108,109
 556 -8 556 -8 540 4.5 c 128,-1,110
 524 17 524 17 510.5 36 c 128,-1,111
 497 55 497 55 488.5 76.5 c 128,-1,112
 480 98 480 98 480 115 c 2,113,-1
 480 311 l 2,114,115
 480 340 480 340 463.5 354 c 128,-1,116
 447 368 447 368 422 368 c 2,117,-1
 372 368 l 1,118,-1
 372 290 l 2,119,120
 372 230 372 230 363 175.5 c 128,-1,121
 354 121 354 121 331.5 80.5 c 128,-1,122
 309 40 309 40 270.5 16 c 128,-1,123
 232 -8 232 -8 173 -8 c 0,124,125
 147 -8 147 -8 123 -1 c 128,-1,126
 99 6 99 6 81 20 c 128,-1,127
 63 34 63 34 52.5 56.5 c 128,-1,128
 42 79 42 79 42 109 c 0,0,1
458 668 m 0,129,130
 444 668 444 668 428 657.5 c 128,-1,131
 412 647 412 647 397.5 629.5 c 128,-1,132
 383 612 383 612 371.5 589.5 c 128,-1,133
 360 567 360 567 354 543 c 0,134,135
 355 538 355 538 358 522 c 128,-1,136
 361 506 361 506 364 484 c 128,-1,137
 367 462 367 462 369.5 439 c 128,-1,138
 372 416 372 416 372 398 c 1,139,140
 423 398 423 398 484 411.5 c 128,-1,141
 545 425 545 425 596 445 c 1,142,143
 560 457 560 457 540 483 c 128,-1,144
 520 509 520 509 520 541 c 0,145,146
 520 552 520 552 522 571 c 128,-1,147
 524 590 524 590 524 602 c 0,148,149
 524 631 524 631 505.5 649.5 c 128,-1,150
 487 668 487 668 458 668 c 0,129,130
EndSplineSet
EndChar

StartChar: S
Encoding: 83 83 46
Width: 687
GlyphClass: 1
Flags: W
LayerCount: 2
Fore
SplineSet
369 -9 m 0,0,1
 298 -9 298 -9 233.5 17 c 128,-1,2
 169 43 169 43 120 91.5 c 128,-1,3
 71 140 71 140 41.5 208 c 128,-1,4
 12 276 12 276 12 360 c 0,5,6
 12 416 12 416 35 477 c 128,-1,7
 58 538 58 538 97.5 588.5 c 128,-1,8
 137 639 137 639 190 671.5 c 128,-1,9
 243 704 243 704 303 704 c 0,10,11
 345 704 345 704 378.5 690.5 c 128,-1,12
 412 677 412 677 440.5 661.5 c 128,-1,13
 469 646 469 646 494.5 633 c 128,-1,14
 520 620 520 620 548 620 c 0,15,16
 567 620 567 620 575.5 633.5 c 128,-1,17
 584 647 584 647 589 662.5 c 128,-1,18
 594 678 594 678 599 691 c 128,-1,19
 604 704 604 704 616 704 c 0,20,21
 627 704 627 704 630.5 699 c 128,-1,22
 634 694 634 694 634 683 c 0,23,24
 634 653 634 653 618.5 626.5 c 128,-1,25
 603 600 603 600 582 580.5 c 128,-1,26
 561 561 561 561 540.5 550 c 128,-1,27
 520 539 520 539 511 539 c 0,28,29
 481 539 481 539 448.5 552 c 128,-1,30
 416 565 416 565 382.5 580 c 128,-1,31
 349 595 349 595 316 608 c 128,-1,32
 283 621 283 621 253 621 c 0,33,34
 211 619 211 619 173.5 597.5 c 128,-1,35
 136 576 136 576 107 540.5 c 128,-1,36
 78 505 78 505 61 458.5 c 128,-1,37
 44 412 44 412 44 360 c 0,38,39
 44 306 44 306 67.5 256.5 c 128,-1,40
 91 207 91 207 129.5 169 c 128,-1,41
 168 131 168 131 217.5 108 c 128,-1,42
 267 85 267 85 320 85 c 0,43,44
 415 85 415 85 473.5 99.5 c 128,-1,45
 532 114 532 114 563.5 139 c 128,-1,46
 595 164 595 164 605.5 196.5 c 128,-1,47
 616 229 616 229 616 265 c 0,48,49
 616 277 616 277 610.5 292.5 c 128,-1,50
 605 308 605 308 595.5 321.5 c 128,-1,51
 586 335 586 335 573.5 344 c 128,-1,52
 561 353 561 353 547 353 c 0,53,54
 517 353 517 353 488 335 c 128,-1,55
 459 317 459 317 427.5 296 c 128,-1,56
 396 275 396 275 359.5 257 c 128,-1,57
 323 239 323 239 279 239 c 0,58,59
 253 239 253 239 230.5 249.5 c 128,-1,60
 208 260 208 260 191 278 c 128,-1,61
 174 296 174 296 164.5 320 c 128,-1,62
 155 344 155 344 155 371 c 256,63,64
 155 398 155 398 165 421 c 128,-1,65
 175 444 175 444 192.5 460.5 c 128,-1,66
 210 477 210 477 233.5 486 c 128,-1,67
 257 495 257 495 283 495 c 0,68,69
 339 495 339 495 339 476 c 0,70,71
 339 471 339 471 336 466.5 c 128,-1,72
 333 462 333 462 327 462 c 0,73,74
 307 462 307 462 283 460.5 c 128,-1,75
 259 459 259 459 238 452.5 c 128,-1,76
 217 446 217 446 203 431.5 c 128,-1,77
 189 417 189 417 189 391 c 0,78,79
 189 355 189 355 209.5 338.5 c 128,-1,80
 230 322 230 322 260 322 c 0,81,82
 293 322 293 322 321 340.5 c 128,-1,83
 349 359 349 359 376.5 381 c 128,-1,84
 404 403 404 403 432.5 421.5 c 128,-1,85
 461 440 461 440 495 440 c 0,86,87
 518 440 518 440 545.5 427 c 128,-1,88
 573 414 573 414 597 390.5 c 128,-1,89
 621 367 621 367 637 334 c 128,-1,90
 653 301 653 301 653 261 c 0,91,92
 653 202 653 202 629 152.5 c 128,-1,93
 605 103 605 103 565.5 67 c 128,-1,94
 526 31 526 31 475 11 c 128,-1,95
 424 -9 424 -9 369 -9 c 0,0,1
EndSplineSet
EndChar

StartChar: T
Encoding: 84 84 47
Width: 649
GlyphClass: 1
Flags: W
LayerCount: 2
Fore
SplineSet
431 -7 m 0,0,1
 396 -7 396 -7 358.5 9 c 128,-1,2
 321 25 321 25 284 44.5 c 128,-1,3
 247 64 247 64 212 80 c 128,-1,4
 177 96 177 96 148 96 c 0,5,6
 130 96 130 96 118 85 c 128,-1,7
 106 74 106 74 97 61.5 c 128,-1,8
 88 49 88 49 81.5 38 c 128,-1,9
 75 27 75 27 68 27 c 0,10,11
 57 27 57 27 50 32.5 c 128,-1,12
 43 38 43 38 43 47 c 0,13,14
 43 70 43 70 61 94 c 128,-1,15
 79 118 79 118 102.5 137.5 c 128,-1,16
 126 157 126 157 149 169.5 c 128,-1,17
 172 182 172 182 181 182 c 0,18,19
 200 182 200 182 237.5 165 c 128,-1,20
 275 148 275 148 321.5 128 c 128,-1,21
 368 108 368 108 417.5 91 c 128,-1,22
 467 74 467 74 510 74 c 0,23,24
 526 74 526 74 541.5 86 c 128,-1,25
 557 98 557 98 569.5 113 c 128,-1,26
 582 128 582 128 591.5 140 c 128,-1,27
 601 152 601 152 606 152 c 0,28,29
 614 152 614 152 620 145.5 c 128,-1,30
 626 139 626 139 626 135 c 0,31,32
 626 130 626 130 612.5 107 c 128,-1,33
 599 84 599 84 574 58.5 c 128,-1,34
 549 33 549 33 513 13 c 128,-1,35
 477 -7 477 -7 431 -7 c 0,0,1
215 273 m 0,36,37
 215 280 215 280 216.5 291 c 128,-1,38
 218 302 218 302 221 312 c 128,-1,39
 224 322 224 322 230 329.5 c 128,-1,40
 236 337 236 337 245 337 c 256,41,42
 254 337 254 337 258 331.5 c 128,-1,43
 262 326 262 326 262 319 c 0,44,45
 262 303 262 303 256.5 289 c 128,-1,46
 251 275 251 275 251 258 c 0,47,48
 251 246 251 246 256 235 c 128,-1,49
 261 224 261 224 269 215 c 128,-1,50
 277 206 277 206 288 200.5 c 128,-1,51
 299 195 299 195 311 195 c 0,52,53
 325 195 325 195 333 201 c 128,-1,54
 341 207 341 207 345.5 216 c 128,-1,55
 350 225 350 225 351.5 236 c 128,-1,56
 353 247 353 247 353 258 c 0,57,58
 353 281 353 281 341.5 299.5 c 128,-1,59
 330 318 330 318 316.5 335.5 c 128,-1,60
 303 353 303 353 291.5 372 c 128,-1,61
 280 391 280 391 280 414 c 0,62,63
 280 443 280 443 292.5 476.5 c 128,-1,64
 305 510 305 510 339 557 c 1,65,66
 323 567 323 567 300 578.5 c 128,-1,67
 277 590 277 590 252 599 c 128,-1,68
 227 608 227 608 203 614 c 128,-1,69
 179 620 179 620 161 620 c 0,70,71
 139 620 139 620 120.5 610.5 c 128,-1,72
 102 601 102 601 88.5 586 c 128,-1,73
 75 571 75 571 67 551.5 c 128,-1,74
 59 532 59 532 59 512 c 256,75,76
 59 492 59 492 68 475 c 128,-1,77
 77 458 77 458 91.5 444.5 c 128,-1,78
 106 431 106 431 124.5 423.5 c 128,-1,79
 143 416 143 416 162 416 c 0,80,81
 194 416 194 416 206.5 413 c 128,-1,82
 219 410 219 410 219 404 c 0,83,84
 219 387 219 387 201.5 383 c 128,-1,85
 184 379 184 379 158 379 c 0,86,87
 129 379 129 379 102.5 391 c 128,-1,88
 76 403 76 403 56 423 c 128,-1,89
 36 443 36 443 23.5 469 c 128,-1,90
 11 495 11 495 11 523 c 0,91,92
 11 572 11 572 33 606 c 128,-1,93
 55 640 55 640 88.5 661.5 c 128,-1,94
 122 683 122 683 162 693 c 128,-1,95
 202 703 202 703 238 703 c 0,96,97
 272 703 272 703 312 684 c 128,-1,98
 352 665 352 665 391 642.5 c 128,-1,99
 430 620 430 620 465 601 c 128,-1,100
 500 582 500 582 523 582 c 0,101,102
 548 582 548 582 559.5 591.5 c 128,-1,103
 571 601 571 601 574 617 c 0,104,105
 576 628 576 628 583 637.5 c 128,-1,106
 590 647 590 647 602 647 c 0,107,108
 610 647 610 647 618 642 c 128,-1,109
 626 637 626 637 626 628 c 0,110,111
 626 610 626 610 611.5 590.5 c 128,-1,112
 597 571 597 571 575 554.5 c 128,-1,113
 553 538 553 538 527 527.5 c 128,-1,114
 501 517 501 517 478 517 c 0,115,116
 454 517 454 517 424 522.5 c 128,-1,117
 394 528 394 528 368 543 c 1,118,119
 357 526 357 526 352.5 510.5 c 128,-1,120
 348 495 348 495 348 486 c 0,121,122
 348 452 348 452 362.5 428 c 128,-1,123
 377 404 377 404 394 380.5 c 128,-1,124
 411 357 411 357 425.5 330 c 128,-1,125
 440 303 440 303 440 262 c 0,126,127
 440 240 440 240 430.5 221 c 128,-1,128
 421 202 421 202 405 188 c 128,-1,129
 389 174 389 174 369.5 166 c 128,-1,130
 350 158 350 158 329 158 c 0,131,132
 276 158 276 158 245.5 190.5 c 128,-1,133
 215 223 215 223 215 273 c 0,36,37
EndSplineSet
EndChar

StartChar: U
Encoding: 85 85 48
Width: 636
GlyphClass: 1
Flags: W
LayerCount: 2
Fore
SplineSet
91 69 m 0,0,1
 65 69 65 69 65 86 c 0,2,3
 65 91 65 91 67.5 97 c 128,-1,4
 70 103 70 103 78 106 c 0,5,6
 87 109 87 109 96.5 112 c 128,-1,7
 106 115 106 115 114 120 c 128,-1,8
 122 125 122 125 127.5 132.5 c 128,-1,9
 133 140 133 140 133 152 c 2,10,-1
 133 533 l 2,11,12
 133 543 133 543 130 556.5 c 128,-1,13
 127 570 127 570 120.5 582 c 128,-1,14
 114 594 114 594 104.5 602 c 128,-1,15
 95 610 95 610 82 610 c 0,16,17
 78 610 78 610 70 603.5 c 128,-1,18
 62 597 62 597 53 589.5 c 128,-1,19
 44 582 44 582 35.5 576 c 128,-1,20
 27 570 27 570 21 570 c 0,21,22
 13 570 13 570 8 579 c 128,-1,23
 3 588 3 588 3 591 c 0,24,25
 3 597 3 597 10 606.5 c 128,-1,26
 17 616 17 616 29 623 c 0,27,28
 44 632 44 632 62 646.5 c 128,-1,29
 80 661 80 661 96.5 675.5 c 128,-1,30
 113 690 113 690 125.5 700 c 128,-1,31
 138 710 138 710 143 710 c 0,32,33
 149 710 149 710 163 701.5 c 128,-1,34
 177 693 177 693 191.5 670.5 c 128,-1,35
 206 648 206 648 217 610 c 128,-1,36
 228 572 228 572 228 514 c 2,37,-1
 228 117 l 1,38,39
 238 103 238 103 257.5 92 c 128,-1,40
 277 81 277 81 294 81 c 0,41,42
 299 81 299 81 317 92.5 c 128,-1,43
 335 104 335 104 357 120.5 c 128,-1,44
 379 137 379 137 400.5 155 c 128,-1,45
 422 173 422 173 434 187 c 1,46,-1
 434 572 l 2,47,48
 434 578 434 578 429 584.5 c 128,-1,49
 424 591 424 591 417.5 596.5 c 128,-1,50
 411 602 411 602 403.5 606 c 128,-1,51
 396 610 396 610 390 610 c 0,52,53
 381 610 381 610 372 603.5 c 128,-1,54
 363 597 363 597 355 589.5 c 128,-1,55
 347 582 347 582 339.5 576 c 128,-1,56
 332 570 332 570 326 570 c 0,57,58
 311 570 311 570 311 579 c 256,59,60
 311 588 311 588 320 599 c 0,61,62
 336 614 336 614 356 633 c 128,-1,63
 376 652 376 652 395 669 c 128,-1,64
 414 686 414 686 428.5 698 c 128,-1,65
 443 710 443 710 449 710 c 0,66,67
 457 710 457 710 471.5 694 c 128,-1,68
 486 678 486 678 509 666 c 0,69,70
 521 658 521 658 536.5 652.5 c 128,-1,71
 552 647 552 647 565.5 642.5 c 128,-1,72
 579 638 579 638 588.5 633 c 128,-1,73
 598 628 598 628 598 622 c 0,74,75
 598 609 598 609 576.5 601 c 128,-1,76
 555 593 555 593 529 593 c 1,77,-1
 529 168 l 2,78,79
 529 151 529 151 533 135 c 128,-1,80
 537 119 537 119 543.5 107 c 128,-1,81
 550 95 550 95 558 87.5 c 128,-1,82
 566 80 566 80 574 80 c 0,83,84
 583 80 583 80 589 83.5 c 128,-1,85
 595 87 595 87 599.5 90.5 c 128,-1,86
 604 94 604 94 607.5 97.5 c 128,-1,87
 611 101 611 101 616 101 c 0,88,89
 624 101 624 101 628 94.5 c 128,-1,90
 632 88 632 88 632 82 c 256,91,92
 632 76 632 76 618 63.5 c 128,-1,93
 604 51 604 51 573 32 c 0,94,95
 552 19 552 19 539.5 7 c 128,-1,96
 527 -5 527 -5 521 -5 c 0,97,98
 502 -5 502 -5 486.5 11.5 c 128,-1,99
 471 28 471 28 459.5 52 c 128,-1,100
 448 76 448 76 441.5 101.5 c 128,-1,101
 435 127 435 127 435 145 c 1,102,103
 403 112 403 112 367.5 85 c 128,-1,104
 332 58 332 58 305 35 c 0,105,106
 281 15 281 15 270 1 c 128,-1,107
 259 -13 259 -13 251 -13 c 0,108,109
 245 -13 245 -13 236.5 -6.5 c 128,-1,110
 228 0 228 0 218 9 c 128,-1,111
 208 18 208 18 198.5 27.5 c 128,-1,112
 189 37 189 37 180 43 c 0,113,114
 163 55 163 55 137 62 c 128,-1,115
 111 69 111 69 91 69 c 0,0,1
EndSplineSet
EndChar

StartChar: V
Encoding: 86 86 49
Width: 677
GlyphClass: 1
Flags: W
LayerCount: 2
Fore
SplineSet
111 158 m 0,0,1
 101 158 101 158 93 150.5 c 128,-1,2
 85 143 85 143 79 132 c 128,-1,3
 73 121 73 121 68.5 109 c 128,-1,4
 64 97 64 97 63 89 c 0,5,6
 62 82 62 82 55.5 72 c 128,-1,7
 49 62 49 62 43 62 c 0,8,9
 32 62 32 62 28 70.5 c 128,-1,10
 24 79 24 79 24 85 c 0,11,12
 24 110 24 110 32.5 136.5 c 128,-1,13
 41 163 41 163 57 184.5 c 128,-1,14
 73 206 73 206 95 220 c 128,-1,15
 117 234 117 234 143 234 c 0,16,17
 157 234 157 234 173.5 231 c 128,-1,18
 190 228 190 228 203 222 c 1,19,20
 238 252 238 252 248.5 290 c 128,-1,21
 259 328 259 328 259 385 c 0,22,23
 259 460 259 460 253.5 513 c 128,-1,24
 248 566 248 566 236 600.5 c 128,-1,25
 224 635 224 635 204 651 c 128,-1,26
 184 667 184 667 155 667 c 0,27,28
 121 667 121 667 95 645 c 128,-1,29
 69 623 69 623 69 592 c 0,30,31
 69 557 69 557 88 537 c 128,-1,32
 107 517 107 517 130.5 499 c 128,-1,33
 154 481 154 481 173 459 c 128,-1,34
 192 437 192 437 192 398 c 0,35,36
 192 378 192 378 180 357.5 c 128,-1,37
 168 337 168 337 150 320 c 128,-1,38
 132 303 132 303 111.5 292.5 c 128,-1,39
 91 282 91 282 73 282 c 0,40,41
 62 282 62 282 57.5 285.5 c 128,-1,42
 53 289 53 289 53 300 c 0,43,44
 53 307 53 307 66 311 c 128,-1,45
 79 315 79 315 94.5 320 c 128,-1,46
 110 325 110 325 123 334.5 c 128,-1,47
 136 344 136 344 136 362 c 0,48,49
 136 382 136 382 115 397.5 c 128,-1,50
 94 413 94 413 69 433.5 c 128,-1,51
 44 454 44 454 23 485 c 128,-1,52
 2 516 2 516 2 566 c 0,53,54
 2 588 2 588 14.5 613 c 128,-1,55
 27 638 27 638 48 659 c 128,-1,56
 69 680 69 680 97 693.5 c 128,-1,57
 125 707 125 707 155 707 c 0,58,59
 206 707 206 707 245.5 680 c 128,-1,60
 285 653 285 653 317 606 c 1,61,62
 336 653 336 653 370.5 680 c 128,-1,63
 405 707 405 707 449 707 c 0,64,65
 474 707 474 707 498 701.5 c 128,-1,66
 522 696 522 696 541 685.5 c 128,-1,67
 560 675 560 675 571.5 659.5 c 128,-1,68
 583 644 583 644 583 625 c 0,69,70
 583 621 583 621 582 612.5 c 128,-1,71
 581 604 581 604 580 595 c 128,-1,72
 579 586 579 586 578 577.5 c 128,-1,73
 577 569 577 569 577 565 c 0,74,75
 577 526 577 526 587 509 c 128,-1,76
 597 492 597 492 625 479 c 1,77,78
 602 473 602 473 579 463.5 c 128,-1,79
 556 454 556 454 538 443 c 128,-1,80
 520 432 520 432 508.5 420.5 c 128,-1,81
 497 409 497 409 497 399 c 0,82,83
 497 383 497 383 506.5 371.5 c 128,-1,84
 516 360 516 360 530 348.5 c 128,-1,85
 544 337 544 337 560.5 325 c 128,-1,86
 577 313 577 313 591 297 c 128,-1,87
 605 281 605 281 614.5 259.5 c 128,-1,88
 624 238 624 238 624 208 c 0,89,90
 624 182 624 182 610 146 c 128,-1,91
 596 110 596 110 567.5 76 c 128,-1,92
 539 42 539 42 495.5 18.5 c 128,-1,93
 452 -5 452 -5 393 -5 c 0,94,95
 355 -5 355 -5 328 7 c 128,-1,96
 301 19 301 19 279.5 37 c 128,-1,97
 258 55 258 55 240 76.5 c 128,-1,98
 222 98 222 98 203.5 116 c 128,-1,99
 185 134 185 134 163 146 c 128,-1,100
 141 158 141 158 111 158 c 0,0,1
350 432 m 0,101,102
 350 392 350 392 339.5 359 c 128,-1,103
 329 326 329 326 312 299 c 128,-1,104
 295 272 295 272 272 250.5 c 128,-1,105
 249 229 249 229 225 212 c 1,106,107
 247 201 247 201 272 174.5 c 128,-1,108
 297 148 297 148 324.5 121.5 c 128,-1,109
 352 95 352 95 380.5 74.5 c 128,-1,110
 409 54 409 54 438 55 c 0,111,112
 465 55 465 55 488.5 61 c 128,-1,113
 512 67 512 67 529.5 80 c 128,-1,114
 547 93 547 93 557.5 113.5 c 128,-1,115
 568 134 568 134 568 163 c 0,116,117
 568 184 568 184 557.5 199.5 c 128,-1,118
 547 215 547 215 530.5 228.5 c 128,-1,119
 514 242 514 242 495.5 255.5 c 128,-1,120
 477 269 477 269 460.5 285 c 128,-1,121
 444 301 444 301 433.5 321 c 128,-1,122
 423 341 423 341 423 368 c 256,123,124
 423 395 423 395 432.5 413.5 c 128,-1,125
 442 432 442 432 460 444.5 c 128,-1,126
 478 457 478 457 503.5 465 c 128,-1,127
 529 473 529 473 562 479 c 1,128,129
 550 485 550 485 535.5 493.5 c 128,-1,130
 521 502 521 502 508.5 513 c 128,-1,131
 496 524 496 524 487.5 538.5 c 128,-1,132
 479 553 479 553 479 571 c 0,133,134
 479 585 479 585 482.5 599.5 c 128,-1,135
 486 614 486 614 486 630 c 0,136,137
 486 642 486 642 479.5 649.5 c 128,-1,138
 473 657 473 657 464 661.5 c 128,-1,139
 455 666 455 666 445 667.5 c 128,-1,140
 435 669 435 669 428 669 c 0,141,142
 413 669 413 669 397.5 660.5 c 128,-1,143
 382 652 382 652 368.5 638.5 c 128,-1,144
 355 625 355 625 345 609 c 128,-1,145
 335 593 335 593 331 577 c 1,146,147
 335 560 335 560 339 546.5 c 128,-1,148
 343 533 343 533 345 517.5 c 128,-1,149
 347 502 347 502 348.5 482 c 128,-1,150
 350 462 350 462 350 432 c 0,101,102
EndSplineSet
EndChar

StartChar: W
Encoding: 87 87 50
Width: 897
GlyphClass: 1
Flags: W
LayerCount: 2
Fore
SplineSet
474 79 m 0,0,1
 465 79 465 79 444 65.5 c 128,-1,2
 423 52 423 52 399 35.5 c 128,-1,3
 375 19 375 19 352 5.5 c 128,-1,4
 329 -8 329 -8 316 -8 c 0,5,6
 290 -8 290 -8 264 13 c 128,-1,7
 238 34 238 34 213 59 c 128,-1,8
 188 84 188 84 164.5 105 c 128,-1,9
 141 126 141 126 122 126 c 0,10,11
 99 126 99 126 90.5 112.5 c 128,-1,12
 82 99 82 99 77.5 83.5 c 128,-1,13
 73 68 73 68 67.5 54.5 c 128,-1,14
 62 41 62 41 45 41 c 0,15,16
 39 41 39 41 34 47.5 c 128,-1,17
 29 54 29 54 29 71 c 0,18,19
 29 87 29 87 39 110 c 128,-1,20
 49 133 49 133 66.5 154.5 c 128,-1,21
 84 176 84 176 106.5 191.5 c 128,-1,22
 129 207 129 207 154 207 c 0,23,24
 165 207 165 207 176.5 203.5 c 128,-1,25
 188 200 188 200 199 195 c 1,26,27
 221 214 221 214 235 234.5 c 128,-1,28
 249 255 249 255 257 281.5 c 128,-1,29
 265 308 265 308 267.5 341 c 128,-1,30
 270 374 270 374 270 419 c 0,31,32
 270 438 270 438 268.5 464 c 128,-1,33
 267 490 267 490 262 517.5 c 128,-1,34
 257 545 257 545 248.5 572.5 c 128,-1,35
 240 600 240 600 226 621.5 c 128,-1,36
 212 643 212 643 192.5 656 c 128,-1,37
 173 669 173 669 147 669 c 0,38,39
 129 669 129 669 112.5 663.5 c 128,-1,40
 96 658 96 658 83 647 c 128,-1,41
 70 636 70 636 62 620.5 c 128,-1,42
 54 605 54 605 54 585 c 0,43,44
 54 560 54 560 77 538.5 c 128,-1,45
 100 517 100 517 128 494.5 c 128,-1,46
 156 472 156 472 179 447 c 128,-1,47
 202 422 202 422 201 392 c 0,48,49
 201 371 201 371 188 349.5 c 128,-1,50
 175 328 175 328 155 311 c 128,-1,51
 135 294 135 294 111.5 283.5 c 128,-1,52
 88 273 88 273 66 273 c 0,53,54
 60 273 60 273 57 279.5 c 128,-1,55
 54 286 54 286 54 292 c 0,56,57
 54 301 54 301 67.5 305 c 128,-1,58
 81 309 81 309 96.5 314.5 c 128,-1,59
 112 320 112 320 125.5 329.5 c 128,-1,60
 139 339 139 339 139 358 c 0,61,62
 139 384 139 384 118 402 c 128,-1,63
 97 420 97 420 71.5 439 c 128,-1,64
 46 458 46 458 25 482.5 c 128,-1,65
 4 507 4 507 4 546 c 0,66,67
 4 583 4 583 19 613.5 c 128,-1,68
 34 644 34 644 57.5 665.5 c 128,-1,69
 81 687 81 687 110 698.5 c 128,-1,70
 139 710 139 710 166 710 c 0,71,72
 215 710 215 710 253 689 c 128,-1,73
 291 668 291 668 323 620 c 1,74,75
 327 629 327 629 334 644.5 c 128,-1,76
 341 660 341 660 353 674.5 c 128,-1,77
 365 689 365 689 383 699.5 c 128,-1,78
 401 710 401 710 429 710 c 0,79,80
 451 710 451 710 466.5 702 c 128,-1,81
 482 694 482 694 493 681.5 c 128,-1,82
 504 669 504 669 511 655 c 128,-1,83
 518 641 518 641 523 629 c 1,84,85
 555 666 555 666 599.5 688 c 128,-1,86
 644 710 644 710 691 710 c 0,87,88
 744 710 744 710 766 684.5 c 128,-1,89
 788 659 788 659 788 607 c 0,90,91
 788 593 788 593 784.5 577 c 128,-1,92
 781 561 781 561 781 547 c 0,93,94
 781 528 781 528 786.5 515 c 128,-1,95
 792 502 792 502 801 492 c 128,-1,96
 810 482 810 482 823 475 c 128,-1,97
 836 468 836 468 851 462 c 1,98,99
 789 447 789 447 762 425 c 128,-1,100
 735 403 735 403 735 386 c 0,101,102
 735 362 735 362 752 348 c 128,-1,103
 769 334 769 334 789 319.5 c 128,-1,104
 809 305 809 305 826 284 c 128,-1,105
 843 263 843 263 843 224 c 0,106,107
 843 190 843 190 827.5 149.5 c 128,-1,108
 812 109 812 109 786.5 74 c 128,-1,109
 761 39 761 39 728 15.5 c 128,-1,110
 695 -8 695 -8 661 -8 c 0,111,112
 640 -8 640 -8 612 5.5 c 128,-1,113
 584 19 584 19 557 35.5 c 128,-1,114
 530 52 530 52 507.5 65.5 c 128,-1,115
 485 79 485 79 474 79 c 0,0,1
530 158 m 1,116,117
 555 146 555 146 581.5 128.5 c 128,-1,118
 608 111 608 111 632 95 c 128,-1,119
 656 79 656 79 675.5 68 c 128,-1,120
 695 57 695 57 708 57 c 0,121,122
 729 57 729 57 745.5 68.5 c 128,-1,123
 762 80 762 80 773.5 97 c 128,-1,124
 785 114 785 114 791 133.5 c 128,-1,125
 797 153 797 153 797 169 c 0,126,127
 797 188 797 188 786.5 202 c 128,-1,128
 776 216 776 216 761 227.5 c 128,-1,129
 746 239 746 239 727.5 251 c 128,-1,130
 709 263 709 263 694 278.5 c 128,-1,131
 679 294 679 294 668.5 314.5 c 128,-1,132
 658 335 658 335 658 365 c 0,133,134
 658 383 658 383 673.5 399.5 c 128,-1,135
 689 416 689 416 710 429 c 128,-1,136
 731 442 731 442 753 451 c 128,-1,137
 775 460 775 460 789 463 c 1,138,139
 781 469 781 469 764 478.5 c 128,-1,140
 747 488 747 488 730.5 501 c 128,-1,141
 714 514 714 514 701.5 531 c 128,-1,142
 689 548 689 548 689 569 c 0,143,144
 689 581 689 581 693 592.5 c 128,-1,145
 697 604 697 604 697 615 c 0,146,147
 697 635 697 635 684 650 c 128,-1,148
 671 665 671 665 651 665 c 0,149,150
 620 665 620 665 593.5 650 c 128,-1,151
 567 635 567 635 547 612 c 128,-1,152
 527 589 527 589 515.5 561 c 128,-1,153
 504 533 504 533 504 507 c 0,154,155
 504 483 504 483 518.5 463 c 128,-1,156
 533 443 533 443 550.5 422.5 c 128,-1,157
 568 402 568 402 582.5 380.5 c 128,-1,158
 597 359 597 359 597 334 c 256,159,160
 597 309 597 309 590.5 289.5 c 128,-1,161
 584 270 584 270 574.5 251 c 128,-1,162
 565 232 565 232 553 210 c 128,-1,163
 541 188 541 188 530 158 c 1,116,117
224 175 m 1,164,165
 247 158 247 158 263.5 141 c 128,-1,166
 280 124 280 124 295.5 109.5 c 128,-1,167
 311 95 311 95 330 86 c 128,-1,168
 349 77 349 77 378 77 c 0,169,170
 411 77 411 77 438.5 95.5 c 128,-1,171
 466 114 466 114 486 141 c 128,-1,172
 506 168 506 168 517 198.5 c 128,-1,173
 528 229 528 229 528 254 c 256,174,175
 528 279 528 279 515.5 301 c 128,-1,176
 503 323 503 323 487.5 343.5 c 128,-1,177
 472 364 472 364 459.5 383.5 c 128,-1,178
 447 403 447 403 447 423 c 0,179,180
 447 473 447 473 461 513.5 c 128,-1,181
 475 554 475 554 502 600 c 1,182,183
 486 630 486 630 466 649.5 c 128,-1,184
 446 669 446 669 423 669 c 256,185,186
 400 669 400 669 376 650.5 c 128,-1,187
 352 632 352 632 341 599 c 1,188,189
 350 562 350 562 354 514 c 128,-1,190
 358 466 358 466 358 419 c 0,191,192
 358 375 358 375 347.5 340.5 c 128,-1,193
 337 306 337 306 319 277 c 128,-1,194
 301 248 301 248 276.5 223 c 128,-1,195
 252 198 252 198 224 175 c 1,164,165
EndSplineSet
EndChar

StartChar: X
Encoding: 88 88 51
Width: 626
GlyphClass: 1
Flags: W
LayerCount: 2
Fore
SplineSet
591 146 m 256,0,1
 600 146 600 146 603.5 143 c 128,-1,2
 607 140 607 140 607 129 c 0,3,4
 607 125 607 125 597.5 113.5 c 128,-1,5
 588 102 588 102 573.5 87 c 128,-1,6
 559 72 559 72 541 55.5 c 128,-1,7
 523 39 523 39 505.5 25 c 128,-1,8
 488 11 488 11 473 2 c 128,-1,9
 458 -7 458 -7 449 -7 c 0,10,11
 416 -7 416 -7 389 7.5 c 128,-1,12
 362 22 362 22 342 46 c 128,-1,13
 322 70 322 70 309 102.5 c 128,-1,14
 296 135 296 135 291 171 c 1,15,16
 284 138 284 138 269.5 106 c 128,-1,17
 255 74 255 74 233 49 c 128,-1,18
 211 24 211 24 180.5 8.5 c 128,-1,19
 150 -7 150 -7 111 -7 c 0,20,21
 68 -7 68 -7 39 18 c 128,-1,22
 10 43 10 43 10 83 c 0,23,24
 10 109 10 109 24.5 124.5 c 128,-1,25
 39 140 39 140 64 140 c 0,26,27
 87 140 87 140 98.5 127.5 c 128,-1,28
 110 115 110 115 110 94 c 0,29,30
 110 90 110 90 108.5 83 c 128,-1,31
 107 76 107 76 102.5 69.5 c 128,-1,32
 98 63 98 63 89.5 57.5 c 128,-1,33
 81 52 81 52 68 50 c 1,34,35
 85 25 85 25 132 25 c 0,36,37
 159 25 159 25 183 45 c 128,-1,38
 207 65 207 65 225.5 96 c 128,-1,39
 244 127 244 127 255.5 164.5 c 128,-1,40
 267 202 267 202 268 237 c 2,41,-1
 268 329 l 1,42,-1
 210 329 l 2,43,44
 182 329 182 329 165.5 323 c 128,-1,45
 149 317 149 317 139 310.5 c 128,-1,46
 129 304 129 304 123.5 298 c 128,-1,47
 118 292 118 292 112 292 c 0,48,49
 107 292 107 292 102.5 296.5 c 128,-1,50
 98 301 98 301 98 303 c 0,51,52
 98 312 98 312 106 329 c 128,-1,53
 114 346 114 346 127.5 362 c 128,-1,54
 141 378 141 378 158.5 390 c 128,-1,55
 176 402 176 402 195 402 c 2,56,-1
 268 402 l 1,57,-1
 268 458 l 2,58,59
 268 485 268 485 262 514.5 c 128,-1,60
 256 544 256 544 244 568.5 c 128,-1,61
 232 593 232 593 213.5 609 c 128,-1,62
 195 625 195 625 171 625 c 0,63,64
 148 625 148 625 128 619.5 c 128,-1,65
 108 614 108 614 92 607 c 128,-1,66
 76 600 76 600 64.5 594.5 c 128,-1,67
 53 589 53 589 47 589 c 0,68,69
 39 589 39 589 38 594 c 128,-1,70
 37 599 37 599 37 606 c 0,71,72
 37 618 37 618 57 631 c 128,-1,73
 77 644 77 644 98 661 c 256,74,75
 119 678 119 678 133.5 693.5 c 128,-1,76
 148 709 148 709 168 709 c 0,77,78
 203 709 203 709 234 695 c 128,-1,79
 265 681 265 681 289 657.5 c 128,-1,80
 313 634 313 634 327.5 604 c 128,-1,81
 342 574 342 574 345 542 c 1,82,83
 355 573 355 573 369 602 c 128,-1,84
 383 631 383 631 401.5 652.5 c 128,-1,85
 420 674 420 674 444.5 687 c 128,-1,86
 469 700 469 700 500 700 c 0,87,88
 536 700 536 700 558.5 677 c 128,-1,89
 581 654 581 654 581 623 c 0,90,91
 581 602 581 602 571.5 585.5 c 128,-1,92
 562 569 562 569 536 569 c 0,93,94
 518 569 518 569 505 581 c 128,-1,95
 492 593 492 593 492 607 c 0,96,97
 492 618 492 618 499 631.5 c 128,-1,98
 506 645 506 645 524 648 c 1,99,100
 516 660 516 660 508 664.5 c 128,-1,101
 500 669 500 669 489 669 c 0,102,103
 468 669 468 669 449.5 655.5 c 128,-1,104
 431 642 431 642 415.5 620 c 128,-1,105
 400 598 400 598 388 571 c 128,-1,106
 376 544 376 544 368 517.5 c 128,-1,107
 360 491 360 491 355.5 467.5 c 128,-1,108
 351 444 351 444 351 430 c 2,109,-1
 351 401 l 1,110,-1
 423 401 l 2,111,112
 439 401 439 401 452 407 c 128,-1,113
 465 413 465 413 474 419.5 c 128,-1,114
 483 426 483 426 489 432 c 128,-1,115
 495 438 495 438 498 438 c 0,116,117
 503 438 503 438 506 434.5 c 128,-1,118
 509 431 509 431 509 427 c 0,119,120
 509 416 509 416 502.5 399.5 c 128,-1,121
 496 383 496 383 486 367 c 128,-1,122
 476 351 476 351 462.5 340 c 128,-1,123
 449 329 449 329 436 329 c 2,124,-1
 351 329 l 1,125,-1
 351 293 l 2,126,127
 351 260 351 260 359.5 221 c 128,-1,128
 368 182 368 182 384 148.5 c 128,-1,129
 400 115 400 115 422.5 93 c 128,-1,130
 445 71 445 71 472 71 c 0,131,132
 488 71 488 71 505.5 82.5 c 128,-1,133
 523 94 523 94 539 108.5 c 128,-1,134
 555 123 555 123 568.5 134.5 c 128,-1,135
 582 146 582 146 591 146 c 256,0,1
EndSplineSet
EndChar

StartChar: Y
Encoding: 89 89 52
Width: 649
GlyphClass: 1
Flags: W
LayerCount: 2
Fore
SplineSet
595 352 m 0,0,1
 595 288 595 288 586 225 c 128,-1,2
 577 162 577 162 559 104.5 c 128,-1,3
 541 47 541 47 513 -2.5 c 128,-1,4
 485 -52 485 -52 447 -88 c 128,-1,5
 409 -124 409 -124 361 -144.5 c 128,-1,6
 313 -165 313 -165 254 -165 c 0,7,8
 213 -165 213 -165 177.5 -158 c 128,-1,9
 142 -151 142 -151 116 -136 c 128,-1,10
 90 -121 90 -121 75.5 -98.5 c 128,-1,11
 61 -76 61 -76 61 -45 c 0,12,13
 61 10 61 10 113 10 c 0,14,15
 136 10 136 10 147.5 -4 c 128,-1,16
 159 -18 159 -18 159 -40 c 0,17,18
 159 -57 159 -57 148.5 -71 c 128,-1,19
 138 -85 138 -85 120 -90 c 1,20,21
 140 -109 140 -109 170 -120.5 c 128,-1,22
 200 -132 200 -132 254 -132 c 0,23,24
 302 -132 302 -132 339 -111 c 128,-1,25
 376 -90 376 -90 404 -54.5 c 128,-1,26
 432 -19 432 -19 451 29 c 128,-1,27
 470 77 470 77 482 131 c 128,-1,28
 494 185 494 185 499.5 242 c 128,-1,29
 505 299 505 299 505 353 c 0,30,31
 505 394 505 394 501 450 c 128,-1,32
 497 506 497 506 488 556.5 c 128,-1,33
 479 607 479 607 464.5 642 c 128,-1,34
 450 677 450 677 429 677 c 0,35,36
 414 677 414 677 397 666 c 128,-1,37
 380 655 380 655 365.5 638 c 128,-1,38
 351 621 351 621 340.5 601 c 128,-1,39
 330 581 330 581 327 562 c 1,40,41
 331 544 331 544 333 519 c 128,-1,42
 335 494 335 494 335 475 c 0,43,44
 335 437 335 437 330.5 394 c 128,-1,45
 326 351 326 351 311.5 307.5 c 128,-1,46
 297 264 297 264 270.5 224 c 128,-1,47
 244 184 244 184 201 153 c 1,48,49
 233 136 233 136 251.5 119 c 128,-1,50
 270 102 270 102 289 77 c 1,51,52
 310 88 310 88 325 99.5 c 128,-1,53
 340 111 340 111 350.5 120.5 c 128,-1,54
 361 130 361 130 368 136 c 128,-1,55
 375 142 375 142 381 142 c 0,56,57
 391 142 391 142 396 132.5 c 128,-1,58
 401 123 401 123 401 117 c 0,59,60
 401 113 401 113 390 101.5 c 128,-1,61
 379 90 379 90 362.5 76 c 128,-1,62
 346 62 346 62 326.5 46.5 c 128,-1,63
 307 31 307 31 289 18 c 128,-1,64
 271 5 271 5 257 -3.5 c 128,-1,65
 243 -12 243 -12 238 -12 c 0,66,67
 231 -12 231 -12 221 -2 c 128,-1,68
 211 8 211 8 196 23.5 c 128,-1,69
 181 39 181 39 162 57.5 c 128,-1,70
 143 76 143 76 118 93 c 0,71,72
 104 102 104 102 96 106.5 c 128,-1,73
 88 111 88 111 88 117 c 0,74,75
 88 124 88 124 97 128.5 c 128,-1,76
 106 133 106 133 109 134 c 0,77,78
 140 150 140 150 157 172 c 128,-1,79
 174 194 174 194 191 214 c 0,80,81
 206 232 206 232 217.5 262.5 c 128,-1,82
 229 293 229 293 236.5 330.5 c 128,-1,83
 244 368 244 368 248 407.5 c 128,-1,84
 252 447 252 447 252 483 c 0,85,86
 252 512 252 512 249 545.5 c 128,-1,87
 246 579 246 579 236 607.5 c 128,-1,88
 226 636 226 636 206 655 c 128,-1,89
 186 674 186 674 153 674 c 0,90,91
 136 674 136 674 121 667.5 c 128,-1,92
 106 661 106 661 95 650.5 c 128,-1,93
 84 640 84 640 77 626 c 128,-1,94
 70 612 70 612 70 596 c 0,95,96
 70 581 70 581 84 558.5 c 128,-1,97
 98 536 98 536 115.5 511 c 128,-1,98
 133 486 133 486 147 461.5 c 128,-1,99
 161 437 161 437 161 416 c 0,100,101
 161 393 161 393 149.5 372 c 128,-1,102
 138 351 138 351 120 334.5 c 128,-1,103
 102 318 102 318 79.5 307 c 128,-1,104
 57 296 57 296 34 292 c 0,105,106
 25 292 25 292 25 302 c 0,107,108
 25 307 25 307 30 312 c 128,-1,109
 35 317 35 317 42 319 c 0,110,111
 70 330 70 330 87 344 c 128,-1,112
 104 358 104 358 104 378 c 0,113,114
 104 390 104 390 90.5 410 c 128,-1,115
 77 430 77 430 60.5 453 c 128,-1,116
 44 476 44 476 30.5 501 c 128,-1,117
 17 526 17 526 17 549 c 0,118,119
 17 584 17 584 28.5 613 c 128,-1,120
 40 642 40 642 60 663 c 128,-1,121
 80 684 80 684 106.5 695.5 c 128,-1,122
 133 707 133 707 163 707 c 0,123,124
 197 707 197 707 222 696.5 c 128,-1,125
 247 686 247 686 264 670.5 c 128,-1,126
 281 655 281 655 292 638 c 128,-1,127
 303 621 303 621 310 608 c 1,128,129
 316 622 316 622 327.5 639.5 c 128,-1,130
 339 657 339 657 354.5 672 c 128,-1,131
 370 687 370 687 389 697 c 128,-1,132
 408 707 408 707 429 707 c 0,133,134
 483 707 483 707 516 672 c 128,-1,135
 549 637 549 637 566.5 583.5 c 128,-1,136
 584 530 584 530 589.5 468 c 128,-1,137
 595 406 595 406 595 352 c 0,0,1
EndSplineSet
EndChar

StartChar: Z
Encoding: 90 90 53
Width: 598
GlyphClass: 1
Flags: W
LayerCount: 2
Fore
SplineSet
86 44 m 0,0,1
 73 44 73 44 65.5 37 c 128,-1,2
 58 30 58 30 54.5 19 c 128,-1,3
 51 8 51 8 49.5 -5.5 c 128,-1,4
 48 -19 48 -19 47 -32 c 0,5,6
 46 -50 46 -50 44 -63.5 c 128,-1,7
 42 -77 42 -77 34 -77 c 0,8,9
 18 -77 18 -77 14 -59.5 c 128,-1,10
 10 -42 10 -42 10 -27 c 0,11,12
 10 -8 10 -8 16.5 14.5 c 128,-1,13
 23 37 23 37 35.5 55.5 c 128,-1,14
 48 74 48 74 66 86.5 c 128,-1,15
 84 99 84 99 108 99 c 0,16,17
 135 99 135 99 154.5 87.5 c 128,-1,18
 174 76 174 76 186 59 c 128,-1,19
 198 42 198 42 203.5 22.5 c 128,-1,20
 209 3 209 3 209 -13 c 0,21,22
 209 -41 209 -41 218.5 -62 c 128,-1,23
 228 -83 228 -83 244.5 -97.5 c 128,-1,24
 261 -112 261 -112 282.5 -119.5 c 128,-1,25
 304 -127 304 -127 327 -127 c 0,26,27
 348 -127 348 -127 372 -116 c 128,-1,28
 396 -105 396 -105 416.5 -82.5 c 128,-1,29
 437 -60 437 -60 450 -24.5 c 128,-1,30
 463 11 463 11 461 60 c 0,31,32
 461 108 461 108 449.5 148 c 128,-1,33
 438 188 438 188 417 217.5 c 128,-1,34
 396 247 396 247 367 263.5 c 128,-1,35
 338 280 338 280 303 280 c 0,36,37
 278 280 278 280 255.5 269.5 c 128,-1,38
 233 259 233 259 216.5 244.5 c 128,-1,39
 200 230 200 230 190 214.5 c 128,-1,40
 180 199 180 199 180 188 c 0,41,42
 180 174 180 174 175.5 158.5 c 128,-1,43
 171 143 171 143 161 143 c 0,44,45
 142 143 142 143 142 163 c 0,46,47
 142 205 142 205 164 241 c 128,-1,48
 186 277 186 277 232 303 c 1,49,50
 213 308 213 308 195 319 c 128,-1,51
 177 330 177 330 162.5 345 c 128,-1,52
 148 360 148 360 139.5 378 c 128,-1,53
 131 396 131 396 131 416 c 0,54,55
 131 455 131 455 152.5 474.5 c 128,-1,56
 174 494 174 494 196 494 c 0,57,58
 220 494 220 494 239 480.5 c 128,-1,59
 258 467 258 467 258 437 c 0,60,61
 258 424 258 424 249.5 414.5 c 128,-1,62
 241 405 241 405 231.5 397.5 c 128,-1,63
 222 390 222 390 213.5 382.5 c 128,-1,64
 205 375 205 375 205 367 c 0,65,66
 205 354 205 354 217.5 343.5 c 128,-1,67
 230 333 230 333 246.5 326 c 128,-1,68
 263 319 263 319 279.5 315.5 c 128,-1,69
 296 312 296 312 303 312 c 0,70,71
 332 312 332 312 357 325.5 c 128,-1,72
 382 339 382 339 400 363 c 128,-1,73
 418 387 418 387 428 419 c 128,-1,74
 438 451 438 451 438 488 c 0,75,76
 438 513 438 513 431 543.5 c 128,-1,77
 424 574 424 574 407.5 601 c 128,-1,78
 391 628 391 628 365 646 c 128,-1,79
 339 664 339 664 301 664 c 0,80,81
 276 664 276 664 250 655 c 128,-1,82
 224 646 224 646 201.5 630.5 c 128,-1,83
 179 615 179 615 163 593 c 128,-1,84
 147 571 147 571 142 544 c 0,85,86
 140 533 140 533 133.5 523.5 c 128,-1,87
 127 514 127 514 116 514 c 0,88,89
 94 514 94 514 94 539 c 0,90,91
 94 571 94 571 110.5 601 c 128,-1,92
 127 631 127 631 156.5 654.5 c 128,-1,93
 186 678 186 678 227 692 c 128,-1,94
 268 706 268 706 317 706 c 0,95,96
 361 706 361 706 401 691 c 128,-1,97
 441 676 441 676 471.5 649 c 128,-1,98
 502 622 502 622 520 585.5 c 128,-1,99
 538 549 538 549 538 506 c 0,100,101
 538 464 538 464 526.5 433.5 c 128,-1,102
 515 403 515 403 494 379 c 128,-1,103
 473 355 473 355 443 337 c 128,-1,104
 413 319 413 319 377 303 c 1,105,106
 407 298 407 298 440 279 c 128,-1,107
 473 260 473 260 500.5 230.5 c 128,-1,108
 528 201 528 201 546 162 c 128,-1,109
 564 123 564 123 564 79 c 0,110,111
 564 37 564 37 543.5 -5 c 128,-1,112
 523 -47 523 -47 490 -80 c 128,-1,113
 457 -113 457 -113 414.5 -134 c 128,-1,114
 372 -155 372 -155 328 -155 c 0,115,116
 265 -155 265 -155 223.5 -144.5 c 128,-1,117
 182 -134 182 -134 158 -115.5 c 128,-1,118
 134 -97 134 -97 124 -72 c 128,-1,119
 114 -47 114 -47 114 -18 c 0,120,121
 114 5 114 5 108.5 24.5 c 128,-1,122
 103 44 103 44 86 44 c 0,0,1
EndSplineSet
EndChar

StartChar: bracketleft
Encoding: 91 91 54
Width: 299
GlyphClass: 1
Flags: W
LayerCount: 2
Fore
SplineSet
244 700 m 1,0,-1
 244 640 l 1,1,-1
 131 640 l 1,2,-1
 131 -96 l 1,3,-1
 244 -96 l 1,4,-1
 244 -155 l 1,5,-1
 70 -155 l 1,6,-1
 70 700 l 1,7,-1
 244 700 l 1,0,-1
EndSplineSet
EndChar

StartChar: backslash
Encoding: 92 92 55
Width: 424
GlyphClass: 1
Flags: W
LayerCount: 2
Fore
SplineSet
63 700 m 1,0,-1
 408 0 l 1,1,-1
 353 0 l 1,2,-1
 10 700 l 1,3,-1
 63 700 l 1,0,-1
EndSplineSet
EndChar

StartChar: bracketright
Encoding: 93 93 56
Width: 299
GlyphClass: 1
Flags: W
LayerCount: 2
Fore
SplineSet
46 -155 m 1,0,-1
 46 -96 l 1,1,-1
 159 -96 l 1,2,-1
 159 640 l 1,3,-1
 46 640 l 1,4,-1
 46 700 l 1,5,-1
 219 700 l 1,6,-1
 219 -155 l 1,7,-1
 46 -155 l 1,0,-1
EndSplineSet
EndChar

StartChar: asciicircum
Encoding: 94 94 57
Width: 520
GlyphClass: 1
Flags: W
LayerCount: 2
Fore
SplineSet
266 701 m 1,0,-1
 478 461 l 1,1,-1
 410 461 l 1,2,-1
 255 641 l 1,3,-1
 99 461 l 1,4,-1
 32 461 l 1,5,-1
 242 701 l 1,6,-1
 266 701 l 1,0,-1
EndSplineSet
EndChar

StartChar: underscore
Encoding: 95 95 58
Width: 514
GlyphClass: 1
Flags: W
LayerCount: 2
Fore
SplineSet
514 -155 m 1,0,-1
 0 -155 l 1,1,-1
 0 -111 l 1,2,-1
 514 -111 l 1,3,-1
 514 -155 l 1,0,-1
EndSplineSet
EndChar

StartChar: grave
Encoding: 96 96 59
Width: 233
GlyphClass: 1
Flags: W
LayerCount: 2
Fore
SplineSet
206 535 m 1,0,-1
 189 518 l 1,1,-1
 24 644 l 1,2,-1
 80 700 l 1,3,-1
 206 535 l 1,0,-1
EndSplineSet
EndChar

StartChar: a
Encoding: 97 97 60
Width: 447
GlyphClass: 1
Flags: W
LayerCount: 2
Fore
SplineSet
38 220 m 0,0,1
 38 272 38 272 49 309.5 c 128,-1,2
 60 347 60 347 78.5 373.5 c 128,-1,3
 97 400 97 400 122 418.5 c 128,-1,4
 147 437 147 437 175 452 c 0,5,6
 179 454 179 454 185 459.5 c 128,-1,7
 191 465 191 465 197.5 471 c 128,-1,8
 204 477 204 477 210 482 c 128,-1,9
 216 487 216 487 219 487 c 0,10,11
 223 487 223 487 241 475 c 128,-1,12
 259 463 259 463 285 449 c 128,-1,13
 311 435 311 435 340.5 423.5 c 128,-1,14
 370 412 370 412 397 414 c 0,15,16
 402 414 402 414 403.5 411 c 128,-1,17
 405 408 405 408 405 405 c 0,18,19
 405 399 405 399 396.5 394.5 c 128,-1,20
 388 390 388 390 377.5 384.5 c 128,-1,21
 367 379 367 379 358.5 371 c 128,-1,22
 350 363 350 363 350 350 c 2,23,-1
 350 100 l 2,24,25
 350 91 350 91 358.5 82.5 c 128,-1,26
 367 74 367 74 378 74 c 0,27,28
 384 74 384 74 389.5 77.5 c 128,-1,29
 395 81 395 81 400 85.5 c 128,-1,30
 405 90 405 90 410.5 93.5 c 128,-1,31
 416 97 416 97 422 97 c 0,32,33
 429 97 429 97 430.5 93 c 128,-1,34
 432 89 432 89 432 83 c 0,35,36
 432 76 432 76 415.5 60.5 c 128,-1,37
 399 45 399 45 379 29 c 128,-1,38
 359 13 359 13 341 0.5 c 128,-1,39
 323 -12 323 -12 319 -12 c 256,40,41
 315 -12 315 -12 307 -2.5 c 128,-1,42
 299 7 299 7 291.5 21.5 c 128,-1,43
 284 36 284 36 278 52 c 128,-1,44
 272 68 272 68 272 81 c 1,45,46
 258 71 258 71 248 64.5 c 128,-1,47
 238 58 238 58 228.5 52 c 128,-1,48
 219 46 219 46 208.5 40 c 128,-1,49
 198 34 198 34 184 25 c 0,50,51
 179 22 179 22 169.5 16 c 128,-1,52
 160 10 160 10 150 3.5 c 128,-1,53
 140 -3 140 -3 130.5 -7.5 c 128,-1,54
 121 -12 121 -12 117 -12 c 0,55,56
 111 -12 111 -12 98 2 c 128,-1,57
 85 16 85 16 71.5 44.5 c 128,-1,58
 58 73 58 73 48 116.5 c 128,-1,59
 38 160 38 160 38 220 c 0,0,1
119 251 m 0,60,61
 119 241 119 241 120 211 c 128,-1,62
 121 181 121 181 127 148.5 c 128,-1,63
 133 116 133 116 144.5 90.5 c 128,-1,64
 156 65 156 65 177 63 c 0,65,66
 186 63 186 63 198.5 68.5 c 128,-1,67
 211 74 211 74 224 83 c 128,-1,68
 237 92 237 92 250 103 c 128,-1,69
 263 114 263 114 272 126 c 1,70,-1
 272 367 l 1,71,72
 261 371 261 371 248.5 378.5 c 128,-1,73
 236 386 236 386 224 393 c 128,-1,74
 212 400 212 400 202 405.5 c 128,-1,75
 192 411 192 411 188 411 c 0,76,77
 180 411 180 411 168.5 404 c 128,-1,78
 157 397 157 397 146 379 c 128,-1,79
 135 361 135 361 127 330 c 128,-1,80
 119 299 119 299 119 251 c 0,60,61
EndSplineSet
EndChar

StartChar: b
Encoding: 98 98 61
Width: 447
GlyphClass: 1
Flags: W
LayerCount: 2
Fore
SplineSet
213 -12 m 256,0,1
 206 -12 206 -12 191 -3 c 128,-1,2
 176 6 176 6 155 18 c 128,-1,3
 134 30 134 30 108.5 41.5 c 128,-1,4
 83 53 83 53 54 59 c 0,5,6
 44 61 44 61 40.5 68 c 128,-1,7
 37 75 37 75 37 78 c 0,8,9
 37 82 37 82 41.5 85 c 128,-1,10
 46 88 46 88 52 92.5 c 128,-1,11
 58 97 58 97 62.5 104 c 128,-1,12
 67 111 67 111 67 122 c 2,13,-1
 67 499 l 2,14,15
 67 524 67 524 57.5 547 c 128,-1,16
 48 570 48 570 37 589.5 c 128,-1,17
 26 609 26 609 16.5 624 c 128,-1,18
 7 639 7 639 7 648 c 256,19,20
 7 657 7 657 11.5 659 c 128,-1,21
 16 661 16 661 25 661 c 0,22,23
 35 661 35 661 49.5 639.5 c 128,-1,24
 64 618 64 618 80 582 c 1,25,26
 93 603 93 603 113 625.5 c 128,-1,27
 133 648 133 648 156.5 667 c 128,-1,28
 180 686 180 686 206.5 698.5 c 128,-1,29
 233 711 233 711 259 711 c 0,30,31
 265 711 265 711 273.5 704 c 128,-1,32
 282 697 282 697 282 691 c 0,33,34
 282 681 282 681 261 672.5 c 128,-1,35
 240 664 240 664 214.5 651 c 128,-1,36
 189 638 189 638 168 618 c 128,-1,37
 147 598 147 598 147 565 c 2,38,-1
 147 405 l 1,39,40
 172 416 172 416 197 430.5 c 128,-1,41
 222 445 222 445 243.5 457.5 c 128,-1,42
 265 470 265 470 280.5 479 c 128,-1,43
 296 488 296 488 301 488 c 0,44,45
 309 488 309 488 325.5 477.5 c 128,-1,46
 342 467 342 467 358 441.5 c 128,-1,47
 374 416 374 416 386 373 c 128,-1,48
 398 330 398 330 398 265 c 0,49,50
 398 245 398 245 395 219 c 128,-1,51
 392 193 392 193 386.5 168.5 c 128,-1,52
 381 144 381 144 372.5 124 c 128,-1,53
 364 104 364 104 353 96 c 0,54,55
 339 85 339 85 318 67 c 128,-1,56
 297 49 297 49 276 31.5 c 128,-1,57
 255 14 255 14 237.5 1 c 128,-1,58
 220 -12 220 -12 213 -12 c 256,0,1
161 96 m 0,59,60
 171 94 171 94 183.5 88.5 c 128,-1,61
 196 83 196 83 208.5 77.5 c 128,-1,62
 221 72 221 72 232 67.5 c 128,-1,63
 243 63 243 63 252 63 c 0,64,65
 263 63 263 63 274.5 73 c 128,-1,66
 286 83 286 83 295 104 c 128,-1,67
 304 125 304 125 310 158.5 c 128,-1,68
 316 192 316 192 316 239 c 0,69,70
 316 289 316 289 309.5 323 c 128,-1,71
 303 357 303 357 294 377.5 c 128,-1,72
 285 398 285 398 274.5 406.5 c 128,-1,73
 264 415 264 415 255 415 c 256,74,75
 246 415 246 415 232 410 c 128,-1,76
 218 405 218 405 202.5 397.5 c 128,-1,77
 187 390 187 390 172 381 c 128,-1,78
 157 372 157 372 147 364 c 1,79,-1
 147 122 l 2,80,81
 147 114 147 114 149.5 106 c 128,-1,82
 152 98 152 98 161 96 c 0,59,60
EndSplineSet
EndChar

StartChar: c
Encoding: 99 99 62
Width: 286
GlyphClass: 1
Flags: W
LayerCount: 2
Fore
SplineSet
112 255 m 0,0,1
 112 219 112 219 115.5 184.5 c 128,-1,2
 119 150 119 150 127.5 123.5 c 128,-1,3
 136 97 136 97 150.5 80.5 c 128,-1,4
 165 64 165 64 188 64 c 0,5,6
 201 64 201 64 209.5 67 c 128,-1,7
 218 70 218 70 224.5 73 c 128,-1,8
 231 76 231 76 236.5 79 c 128,-1,9
 242 82 242 82 249 82 c 0,10,11
 259 82 259 82 259 70 c 0,12,13
 259 67 259 67 252.5 62 c 128,-1,14
 246 57 246 57 236 51.5 c 128,-1,15
 226 46 226 46 214.5 40 c 128,-1,16
 203 34 203 34 194 28 c 0,17,18
 175 17 175 17 158.5 4.5 c 128,-1,19
 142 -8 142 -8 131 -8 c 0,20,21
 119 -8 119 -8 100.5 7.5 c 128,-1,22
 82 23 82 23 65 56 c 128,-1,23
 48 89 48 89 36 139 c 128,-1,24
 24 189 24 189 24 258 c 0,25,26
 24 328 24 328 43 377.5 c 128,-1,27
 62 427 62 427 114 446 c 0,28,29
 121 449 121 449 133.5 455 c 128,-1,30
 146 461 146 461 159 467 c 128,-1,31
 172 473 172 473 183.5 478 c 128,-1,32
 195 483 195 483 200 483 c 0,33,34
 208 483 208 483 218.5 467.5 c 128,-1,35
 229 452 229 452 237 437 c 0,36,37
 242 428 242 428 252.5 428 c 128,-1,38
 263 428 263 428 263 425 c 0,39,40
 263 420 263 420 255 409.5 c 128,-1,41
 247 399 247 399 237 388.5 c 128,-1,42
 227 378 227 378 218 369.5 c 128,-1,43
 209 361 209 361 207 361 c 0,44,45
 199 361 199 361 193.5 369.5 c 128,-1,46
 188 378 188 378 182 387.5 c 128,-1,47
 176 397 176 397 169 405.5 c 128,-1,48
 162 414 162 414 150 414 c 0,49,50
 124 414 124 414 118 374 c 128,-1,51
 112 334 112 334 112 255 c 0,0,1
EndSplineSet
EndChar

StartChar: d
Encoding: 100 100 63
Width: 428
GlyphClass: 1
Flags: W
LayerCount: 2
Fore
SplineSet
123 26 m 0,0,1
 101 33 101 33 80.5 38 c 128,-1,2
 60 43 60 43 44.5 48 c 128,-1,3
 29 53 29 53 19.5 58 c 128,-1,4
 10 63 10 63 10 70 c 0,5,6
 10 76 10 76 16 79.5 c 128,-1,7
 22 83 22 83 28.5 86 c 128,-1,8
 35 89 35 89 41 93 c 128,-1,9
 47 97 47 97 47 104 c 2,10,-1
 47 361 l 2,11,12
 47 367 47 367 45 374.5 c 128,-1,13
 43 382 43 382 43 388 c 0,14,15
 43 392 43 392 55.5 396 c 128,-1,16
 68 400 68 400 86 405.5 c 128,-1,17
 104 411 104 411 124.5 418.5 c 128,-1,18
 145 426 145 426 160 437 c 1,19,20
 142 445 142 445 118 458 c 128,-1,21
 94 471 94 471 72.5 489 c 128,-1,22
 51 507 51 507 36.5 530.5 c 128,-1,23
 22 554 22 554 22 584 c 0,24,25
 22 612 22 612 33.5 635 c 128,-1,26
 45 658 45 658 62.5 673.5 c 128,-1,27
 80 689 80 689 99.5 697.5 c 128,-1,28
 119 706 119 706 136 706 c 0,29,30
 150 706 150 706 157 702 c 128,-1,31
 164 698 164 698 164 684 c 0,32,33
 164 671 164 671 150.5 663.5 c 128,-1,34
 137 656 137 656 120.5 648 c 128,-1,35
 104 640 104 640 90.5 630 c 128,-1,36
 77 620 77 620 77 603 c 0,37,38
 77 592 77 592 88.5 578 c 128,-1,39
 100 564 100 564 111 559 c 0,40,41
 175 528 175 528 225 502 c 128,-1,42
 275 476 275 476 309.5 443 c 128,-1,43
 344 410 344 410 362.5 363 c 128,-1,44
 381 316 381 316 381 243 c 0,45,46
 381 183 381 183 360 136.5 c 128,-1,47
 339 90 339 90 288 61 c 0,48,49
 269 50 269 50 254 38.5 c 128,-1,50
 239 27 239 27 227 17 c 128,-1,51
 215 7 215 7 205.5 1 c 128,-1,52
 196 -5 196 -5 190 -5 c 0,53,54
 182 -5 182 -5 163 7 c 128,-1,55
 144 19 144 19 123 26 c 0,0,1
127 107 m 1,56,57
 155 99 155 99 187.5 86.5 c 128,-1,58
 220 74 220 74 242 65 c 1,59,60
 251 70 251 70 260 77.5 c 128,-1,61
 269 85 269 85 277 100.5 c 128,-1,62
 285 116 285 116 290 141.5 c 128,-1,63
 295 167 295 167 295 209 c 256,64,65
 295 251 295 251 291.5 283.5 c 128,-1,66
 288 316 288 316 278.5 340.5 c 128,-1,67
 269 365 269 365 251 383.5 c 128,-1,68
 233 402 233 402 204 417 c 1,69,70
 197 415 197 415 184 409.5 c 128,-1,71
 171 404 171 404 158.5 397 c 128,-1,72
 146 390 146 390 136.5 383 c 128,-1,73
 127 376 127 376 127 370 c 2,74,-1
 127 107 l 1,56,57
EndSplineSet
EndChar

StartChar: e
Encoding: 101 101 64
Width: 379
GlyphClass: 1
Flags: W
LayerCount: 2
Fore
SplineSet
30 250 m 0,0,1
 30 302 30 302 40 339 c 128,-1,2
 50 376 50 376 68 401.5 c 128,-1,3
 86 427 86 427 111.5 442 c 128,-1,4
 137 457 137 457 168 465 c 0,5,6
 192 471 192 471 213.5 480 c 128,-1,7
 235 489 235 489 243 489 c 0,8,9
 247 489 247 489 255.5 479 c 128,-1,10
 264 469 264 469 275 452.5 c 128,-1,11
 286 436 286 436 297.5 416.5 c 128,-1,12
 309 397 309 397 319 378.5 c 128,-1,13
 329 360 329 360 335 344 c 128,-1,14
 341 328 341 328 341 320 c 0,15,16
 341 309 341 309 313.5 294.5 c 128,-1,17
 286 280 286 280 249 265.5 c 128,-1,18
 212 251 212 251 174 239.5 c 128,-1,19
 136 228 136 228 115 223 c 1,20,21
 115 208 115 208 122 181 c 128,-1,22
 129 154 129 154 141.5 128.5 c 128,-1,23
 154 103 154 103 170 84 c 128,-1,24
 186 65 186 65 204 65 c 0,25,26
 214 66 214 66 233.5 74.5 c 128,-1,27
 253 83 253 83 273.5 92.5 c 128,-1,28
 294 102 294 102 311.5 109.5 c 128,-1,29
 329 117 329 117 334 117 c 0,30,31
 343 117 343 117 346 110 c 128,-1,32
 349 103 349 103 349 96 c 256,33,34
 349 89 349 89 337.5 81 c 128,-1,35
 326 73 326 73 308.5 64 c 128,-1,36
 291 55 291 55 269.5 45.5 c 128,-1,37
 248 36 248 36 227 26 c 0,38,39
 201 14 201 14 182.5 2.5 c 128,-1,40
 164 -9 164 -9 156 -9 c 0,41,42
 141 -9 141 -9 119 8.5 c 128,-1,43
 97 26 97 26 77.5 59 c 128,-1,44
 58 92 58 92 44 140 c 128,-1,45
 30 188 30 188 30 250 c 0,0,1
240 316 m 256,46,47
 240 322 240 322 234.5 335 c 128,-1,48
 229 348 229 348 221 362.5 c 128,-1,49
 213 377 213 377 204 390.5 c 128,-1,50
 195 404 195 404 187 413 c 1,51,-1
 146 400 l 2,52,53
 135 396 135 396 128.5 387.5 c 128,-1,54
 122 379 122 379 119 363.5 c 128,-1,55
 116 348 116 348 115.5 324 c 128,-1,56
 115 300 115 300 115 266 c 1,57,58
 136 270 136 270 158.5 276 c 128,-1,59
 181 282 181 282 199 289 c 128,-1,60
 217 296 217 296 228.5 303 c 128,-1,61
 240 310 240 310 240 316 c 256,46,47
EndSplineSet
EndChar

StartChar: f
Encoding: 102 102 65
Width: 267
GlyphClass: 1
Flags: W
LayerCount: 2
Fore
SplineSet
7 408 m 0,0,1
 7 411 7 411 16.5 418 c 128,-1,2
 26 425 26 425 37.5 436 c 128,-1,3
 49 447 49 447 58.5 464.5 c 128,-1,4
 68 482 68 482 68 506 c 0,5,6
 68 526 68 526 64 548.5 c 128,-1,7
 60 571 60 571 60 591 c 0,8,9
 60 608 60 608 63.5 628.5 c 128,-1,10
 67 649 67 649 75 666.5 c 128,-1,11
 83 684 83 684 97.5 696 c 128,-1,12
 112 708 112 708 135 708 c 0,13,14
 146 708 146 708 154.5 701.5 c 128,-1,15
 163 695 163 695 171 687.5 c 128,-1,16
 179 680 179 680 187 673.5 c 128,-1,17
 195 667 195 667 205 667 c 0,18,19
 213 667 213 667 220 673.5 c 128,-1,20
 227 680 227 680 233 687.5 c 128,-1,21
 239 695 239 695 244 701.5 c 128,-1,22
 249 708 249 708 252 708 c 0,23,24
 259 708 259 708 264.5 698.5 c 128,-1,25
 270 689 270 689 270 678 c 0,26,27
 270 668 270 668 266.5 653.5 c 128,-1,28
 263 639 263 639 255.5 626 c 128,-1,29
 248 613 248 613 236 603.5 c 128,-1,30
 224 594 224 594 207 594 c 256,31,32
 190 594 190 594 179 598 c 128,-1,33
 168 602 168 602 159 607.5 c 128,-1,34
 150 613 150 613 142 617 c 128,-1,35
 134 621 134 621 123 621 c 0,36,37
 117 621 117 621 112.5 616 c 128,-1,38
 108 611 108 611 106 604 c 128,-1,39
 104 597 104 597 103 589.5 c 128,-1,40
 102 582 102 582 102 577 c 0,41,42
 102 534 102 534 115.5 506 c 128,-1,43
 129 478 129 478 149 467 c 0,44,45
 175 453 175 453 203.5 449 c 128,-1,46
 232 445 232 445 248 445 c 0,47,48
 256 445 256 445 257.5 442.5 c 128,-1,49
 259 440 259 440 259 435 c 2,50,-1
 259 404 l 2,51,52
 259 397 259 397 251 397 c 2,53,-1
 169 397 l 1,54,-1
 159 -151 l 2,55,56
 159 -165 159 -165 155 -174.5 c 128,-1,57
 151 -184 151 -184 137 -184 c 0,58,59
 121 -184 121 -184 116.5 -168.5 c 128,-1,60
 112 -153 112 -153 112 -139 c 2,61,-1
 79 386 l 2,62,63
 79 390 79 390 67.5 391 c 128,-1,64
 56 392 56 392 42.5 393 c 128,-1,65
 29 394 29 394 18 397 c 128,-1,66
 7 400 7 400 7 408 c 0,0,1
EndSplineSet
Substitution2: "Einzelne Substitution Nachschlagetabelle 9 Subtabelle" f
Substitution2: "Einzelne Substitution Nachschlagetabelle 8 Subtabelle" f
EndChar

StartChar: g
Encoding: 103 103 66
Width: 434
GlyphClass: 1
Flags: W
LayerCount: 2
Fore
SplineSet
70 -87 m 0,0,1
 70 -67 70 -67 85 -51.5 c 128,-1,2
 100 -36 100 -36 121 -36 c 0,3,4
 138 -36 138 -36 149.5 -49 c 128,-1,5
 161 -62 161 -62 161 -76 c 0,6,7
 161 -101 161 -101 138 -113 c 1,8,9
 146 -120 146 -120 157 -124 c 128,-1,10
 168 -128 168 -128 181 -131 c 128,-1,11
 194 -134 194 -134 207.5 -134 c 128,-1,12
 221 -134 221 -134 230 -134 c 0,13,14
 275 -134 275 -134 301.5 -112 c 128,-1,15
 328 -90 328 -90 328 -56 c 0,16,17
 328 -36 328 -36 317.5 -17.5 c 128,-1,18
 307 1 307 1 303 9.5 c 128,-1,19
 299 18 299 18 294 30 c 128,-1,20
 289 42 289 42 289 74 c 1,21,22
 264 71 264 71 238.5 57.5 c 128,-1,23
 213 44 213 44 191 29 c 128,-1,24
 169 14 169 14 152.5 3.5 c 128,-1,25
 136 -7 136 -7 130 -7 c 0,26,27
 122 -7 122 -7 105 3 c 128,-1,28
 88 13 88 13 71.5 41 c 128,-1,29
 55 69 55 69 42.5 114 c 128,-1,30
 30 159 30 159 30 227 c 0,31,32
 30 252 30 252 36 281 c 128,-1,33
 42 310 42 310 54.5 337.5 c 128,-1,34
 67 365 67 365 86 388 c 128,-1,35
 105 411 105 411 131 423 c 0,36,37
 138 427 138 427 152 437.5 c 128,-1,38
 166 448 166 448 180 459.5 c 128,-1,39
 194 471 194 471 206 480 c 128,-1,40
 218 489 218 489 222 489 c 0,41,42
 232 489 232 489 253.5 477 c 128,-1,43
 275 465 275 465 300.5 451 c 128,-1,44
 326 437 326 437 351.5 425 c 128,-1,45
 377 413 377 413 395 413 c 256,46,47
 413 413 413 413 413 403 c 0,48,49
 413 396 413 396 406 390.5 c 128,-1,50
 399 385 399 385 390.5 380.5 c 128,-1,51
 382 376 382 376 375 371.5 c 128,-1,52
 368 367 368 367 369 362 c 2,53,-1
 369 81 l 2,54,55
 369 72 369 72 373.5 49 c 128,-1,56
 378 26 378 26 387 10.5 c 128,-1,57
 396 -5 396 -5 402 -19 c 128,-1,58
 408 -33 408 -33 408 -53 c 0,59,60
 408 -78 408 -78 387.5 -104 c 128,-1,61
 367 -130 367 -130 336.5 -146.5 c 128,-1,62
 306 -163 306 -163 271 -166 c 128,-1,63
 236 -169 236 -169 207 -169 c 0,64,65
 185 -169 185 -169 161 -164 c 128,-1,66
 137 -159 137 -159 117 -150.5 c 128,-1,67
 97 -142 97 -142 83.5 -126.5 c 128,-1,68
 70 -111 70 -111 70 -87 c 0,0,1
112 262 m 0,69,70
 112 199 112 199 119.5 161.5 c 128,-1,71
 127 124 127 124 137.5 103.5 c 128,-1,72
 148 83 148 83 158.5 77 c 128,-1,73
 169 71 169 71 175 71 c 256,74,75
 181 71 181 71 199.5 76.5 c 128,-1,76
 218 82 218 82 238 90.5 c 128,-1,77
 258 99 258 99 273.5 107.5 c 128,-1,78
 289 116 289 116 289 122 c 2,79,-1
 289 366 l 1,80,81
 266 374 266 374 238.5 385.5 c 128,-1,82
 211 397 211 397 181 415 c 1,83,84
 141 390 141 390 126.5 353 c 128,-1,85
 112 316 112 316 112 262 c 0,69,70
EndSplineSet
EndChar

StartChar: h
Encoding: 104 104 67
Width: 476
GlyphClass: 1
Flags: W
LayerCount: 2
Fore
SplineSet
221 -147 m 0,0,1
 221 -141 221 -141 227 -134 c 128,-1,2
 233 -127 233 -127 242.5 -117 c 128,-1,3
 252 -107 252 -107 263.5 -93 c 128,-1,4
 275 -79 275 -79 286 -60 c 0,5,6
 299 -37 299 -37 308.5 -16.5 c 128,-1,7
 318 4 318 4 324 40 c 128,-1,8
 330 76 330 76 332.5 112.5 c 128,-1,9
 335 149 335 149 335 181 c 0,10,11
 335 262 335 262 326.5 309.5 c 128,-1,12
 318 357 318 357 307 382.5 c 128,-1,13
 296 408 296 408 286 415.5 c 128,-1,14
 276 423 276 423 272 423 c 0,15,16
 269 423 269 423 259 418 c 128,-1,17
 249 413 249 413 235 406.5 c 128,-1,18
 221 400 221 400 204.5 392 c 128,-1,19
 188 384 188 384 172 378 c 1,20,-1
 172 108 l 1,21,22
 179 99 179 99 189 92 c 128,-1,23
 199 85 199 85 206 84 c 0,24,25
 216 84 216 84 225.5 90.5 c 128,-1,26
 235 97 235 97 243 104.5 c 128,-1,27
 251 112 251 112 257 118.5 c 128,-1,28
 263 125 263 125 268 125 c 0,29,30
 272 125 272 125 276.5 121 c 128,-1,31
 281 117 281 117 281 113 c 0,32,33
 281 108 281 108 273.5 99.5 c 128,-1,34
 266 91 266 91 256 81 c 128,-1,35
 246 71 246 71 236 62 c 128,-1,36
 226 53 226 53 222 46 c 0,37,38
 218 41 218 41 211.5 32.5 c 128,-1,39
 205 24 205 24 198.5 15.5 c 128,-1,40
 192 7 192 7 185.5 0.5 c 128,-1,41
 179 -6 179 -6 174 -6 c 0,42,43
 170 -6 170 -6 163 -2.5 c 128,-1,44
 156 1 156 1 147.5 6.5 c 128,-1,45
 139 12 139 12 131 17.5 c 128,-1,46
 123 23 123 23 116 27 c 0,47,48
 110 31 110 31 99 35 c 128,-1,49
 88 39 88 39 77.5 43.5 c 128,-1,50
 67 48 67 48 59.5 53 c 128,-1,51
 52 58 52 58 52 63 c 0,52,53
 52 69 52 69 58 73 c 128,-1,54
 64 77 64 77 71.5 83 c 128,-1,55
 79 89 79 89 85.5 97 c 128,-1,56
 92 105 92 105 92 118 c 2,57,-1
 92 448 l 2,58,59
 92 480 92 480 78.5 509 c 128,-1,60
 65 538 65 538 49 561.5 c 128,-1,61
 33 585 33 585 19.5 602 c 128,-1,62
 6 619 6 619 6 627 c 0,63,64
 6 642 6 642 25 642 c 0,65,66
 30 642 30 642 39 634 c 128,-1,67
 48 626 48 626 58 613.5 c 128,-1,68
 68 601 68 601 78 586 c 128,-1,69
 88 571 88 571 95 557 c 1,70,71
 109 593 109 593 129.5 620.5 c 128,-1,72
 150 648 150 648 173.5 666.5 c 128,-1,73
 197 685 197 685 221.5 695 c 128,-1,74
 246 705 246 705 268 705 c 0,75,76
 280 705 280 705 280 694 c 0,77,78
 280 687 280 687 263 678 c 128,-1,79
 246 669 246 669 226 654 c 128,-1,80
 206 639 206 639 189 616 c 128,-1,81
 172 593 172 593 172 558 c 2,82,-1
 172 413 l 1,83,84
 198 422 198 422 223.5 436.5 c 128,-1,85
 249 451 249 451 269.5 464.5 c 128,-1,86
 290 478 290 478 304.5 487.5 c 128,-1,87
 319 497 319 497 324 497 c 0,88,89
 331 497 331 497 347.5 483 c 128,-1,90
 364 469 364 469 380.5 440 c 128,-1,91
 397 411 397 411 410 366.5 c 128,-1,92
 423 322 423 322 423 261 c 0,93,94
 423 147 423 147 398 74 c 128,-1,95
 373 1 373 1 341.5 -55.5 c 128,-1,96
 310 -112 310 -112 281 -140.5 c 128,-1,97
 252 -169 252 -169 243 -169 c 0,98,99
 235 -169 235 -169 228 -163.5 c 128,-1,100
 221 -158 221 -158 221 -147 c 0,0,1
EndSplineSet
EndChar

StartChar: i
Encoding: 105 105 68
Width: 256
GlyphClass: 1
Flags: W
LayerCount: 2
Fore
SplineSet
53 398 m 0,0,1
 45 398 45 398 37 393.5 c 128,-1,2
 29 389 29 389 20 389 c 0,3,4
 5 389 5 389 5 403 c 0,5,6
 5 414 5 414 20 425 c 128,-1,7
 35 436 35 436 54 444 c 0,8,9
 84 456 84 456 97.5 471 c 128,-1,10
 111 486 111 486 118 486 c 0,11,12
 123 486 123 486 135 471 c 128,-1,13
 147 456 147 456 160 443 c 0,14,15
 171 431 171 431 183 423.5 c 128,-1,16
 195 416 195 416 195 409 c 0,17,18
 195 403 195 403 189 399.5 c 128,-1,19
 183 396 183 396 175.5 392 c 128,-1,20
 168 388 168 388 162 381.5 c 128,-1,21
 156 375 156 375 156 364 c 2,22,-1
 156 107 l 2,23,24
 156 95 156 95 166.5 81.5 c 128,-1,25
 177 68 177 68 188 68 c 256,26,27
 199 68 199 68 211 76.5 c 128,-1,28
 223 85 223 85 234 85 c 0,29,30
 239 85 239 85 242.5 78.5 c 128,-1,31
 246 72 246 72 246 67 c 0,32,33
 246 59 246 59 227.5 50 c 128,-1,34
 209 41 209 41 190 27 c 0,35,36
 172 14 172 14 161 4.5 c 128,-1,37
 150 -5 150 -5 137 -5 c 0,38,39
 125 -5 125 -5 113.5 4.5 c 128,-1,40
 102 14 102 14 94 29.5 c 128,-1,41
 86 45 86 45 81 64 c 128,-1,42
 76 83 76 83 76 101 c 2,43,-1
 76 364 l 2,44,45
 76 381 76 381 71.5 389.5 c 128,-1,46
 67 398 67 398 53 398 c 0,0,1
69 655 m 0,47,48
 69 678 69 678 78 689.5 c 128,-1,49
 87 701 87 701 115 701 c 0,50,51
 136 701 136 701 149.5 689 c 128,-1,52
 163 677 163 677 163 655 c 0,53,54
 163 641 163 641 157.5 626 c 128,-1,55
 152 611 152 611 143.5 598 c 128,-1,56
 135 585 135 585 125.5 576.5 c 128,-1,57
 116 568 116 568 108 568 c 0,58,59
 99 569 99 569 94 584.5 c 128,-1,60
 89 600 89 600 81 613 c 0,61,62
 73 627 73 627 71 636.5 c 128,-1,63
 69 646 69 646 69 655 c 0,47,48
EndSplineSet
EndChar

StartChar: j
Encoding: 106 106 69
Width: 256
GlyphClass: 1
Flags: W
LayerCount: 2
Fore
SplineSet
196 409 m 0,0,1
 196 407 196 407 189.5 402 c 128,-1,2
 183 397 183 397 175.5 391 c 128,-1,3
 168 385 168 385 162 378 c 128,-1,4
 156 371 156 371 156 364 c 2,5,-1
 156 6 l 2,6,7
 156 -6 156 -6 166 -24.5 c 128,-1,8
 176 -43 176 -43 187.5 -61 c 128,-1,9
 199 -79 199 -79 209 -94 c 128,-1,10
 219 -109 219 -109 219 -113 c 0,11,12
 219 -118 219 -118 214 -123 c 128,-1,13
 209 -128 209 -128 204 -128 c 0,14,15
 200 -128 200 -128 190 -116 c 128,-1,16
 180 -104 180 -104 169 -87.5 c 128,-1,17
 158 -71 158 -71 148.5 -54 c 128,-1,18
 139 -37 139 -37 136 -26 c 1,19,20
 130 -47 130 -47 116 -73 c 128,-1,21
 102 -99 102 -99 84.5 -121.5 c 128,-1,22
 67 -144 67 -144 48.5 -159 c 128,-1,23
 30 -174 30 -174 14 -174 c 0,24,25
 0 -174 0 -174 -5.5 -169.5 c 128,-1,26
 -11 -165 -11 -165 -11 -154 c 0,27,28
 -11 -144 -11 -144 -6 -138.5 c 128,-1,29
 -1 -133 -1 -133 6.5 -128.5 c 128,-1,30
 14 -124 14 -124 23.5 -120 c 128,-1,31
 33 -116 33 -116 41 -109 c 0,32,33
 61 -92 61 -92 68.5 -63 c 128,-1,34
 76 -34 76 -34 76 -10 c 2,35,-1
 76 379 l 2,36,37
 73 398 73 398 54 398 c 0,38,39
 46 398 46 398 38 393.5 c 128,-1,40
 30 389 30 389 21 389 c 0,41,42
 6 389 6 389 6 403 c 0,43,44
 6 414 6 414 21 425 c 128,-1,45
 36 436 36 436 55 444 c 0,46,47
 85 456 85 456 98.5 471 c 128,-1,48
 112 486 112 486 119 486 c 0,49,50
 124 486 124 486 136 471 c 128,-1,51
 148 456 148 456 161 443 c 0,52,53
 172 431 172 431 184 423.5 c 128,-1,54
 196 416 196 416 196 409 c 0,0,1
70 655 m 0,55,56
 70 678 70 678 79 689.5 c 128,-1,57
 88 701 88 701 116 701 c 0,58,59
 137 701 137 701 150.5 689 c 128,-1,60
 164 677 164 677 164 655 c 0,61,62
 164 641 164 641 158.5 626 c 128,-1,63
 153 611 153 611 144.5 598 c 128,-1,64
 136 585 136 585 126.5 576.5 c 128,-1,65
 117 568 117 568 109 568 c 0,66,67
 100 569 100 569 95 584.5 c 128,-1,68
 90 600 90 600 82 613 c 0,69,70
 74 627 74 627 72 636.5 c 128,-1,71
 70 646 70 646 70 655 c 0,55,56
EndSplineSet
EndChar

StartChar: k
Encoding: 107 107 70
Width: 308
GlyphClass: 1
Flags: W
LayerCount: 2
Fore
SplineSet
55 57 m 0,0,1
 55 62 55 62 60 67.5 c 128,-1,2
 65 73 65 73 71.5 79 c 128,-1,3
 78 85 78 85 83 91 c 128,-1,4
 88 97 88 97 88 102 c 2,5,-1
 88 397 l 1,6,-1
 37 397 l 2,7,8
 29 397 29 397 26 401.5 c 128,-1,9
 23 406 23 406 23 409 c 0,10,11
 23 413 23 413 31 417.5 c 128,-1,12
 39 422 39 422 50 427.5 c 128,-1,13
 61 433 61 433 71.5 440 c 128,-1,14
 82 447 82 447 88 458 c 1,15,-1
 88 479 l 2,16,17
 88 509 88 509 75.5 537.5 c 128,-1,18
 63 566 63 566 47.5 590 c 128,-1,19
 32 614 32 614 19.5 631 c 128,-1,20
 7 648 7 648 7 655 c 0,21,22
 7 666 7 666 11.5 668 c 128,-1,23
 16 670 16 670 24 670 c 0,24,25
 31 670 31 670 40.5 660 c 128,-1,26
 50 650 50 650 60 636 c 128,-1,27
 70 622 70 622 79 606.5 c 128,-1,28
 88 591 88 591 93 580 c 1,29,30
 112 638 112 638 155.5 671 c 128,-1,31
 199 704 199 704 256 704 c 0,32,33
 272 704 272 704 275.5 699 c 128,-1,34
 279 694 279 694 279 686 c 0,35,36
 279 679 279 679 267.5 673.5 c 128,-1,37
 256 668 256 668 240 663 c 128,-1,38
 224 658 224 658 208.5 652 c 128,-1,39
 193 646 193 646 184 637 c 0,40,41
 174 627 174 627 168 617 c 128,-1,42
 162 607 162 607 159 593 c 128,-1,43
 156 579 156 579 155 560.5 c 128,-1,44
 154 542 154 542 154 516 c 1,45,46
 164 533 164 533 176 550.5 c 128,-1,47
 188 568 188 568 200.5 581.5 c 128,-1,48
 213 595 213 595 225 603.5 c 128,-1,49
 237 612 237 612 248 612 c 0,50,51
 268 612 268 612 273 597.5 c 128,-1,52
 278 583 278 583 278 569 c 0,53,54
 278 563 278 563 277.5 555.5 c 128,-1,55
 277 548 277 548 274.5 541 c 128,-1,56
 272 534 272 534 268.5 529 c 128,-1,57
 265 524 265 524 259 524 c 0,58,59
 254 524 254 524 244 528 c 128,-1,60
 234 532 234 532 229 532 c 0,61,62
 221 532 221 532 211 526.5 c 128,-1,63
 201 521 201 521 191.5 513 c 128,-1,64
 182 505 182 505 175.5 495.5 c 128,-1,65
 169 486 169 486 169 479 c 2,66,-1
 169 458 l 1,67,-1
 261 458 l 2,68,69
 272 458 272 458 275 447.5 c 128,-1,70
 278 437 278 437 278 429 c 256,71,72
 278 421 278 421 275 409 c 128,-1,73
 272 397 272 397 261 397 c 2,74,-1
 168 397 l 1,75,-1
 168 108 l 2,76,77
 168 105 168 105 173.5 100 c 128,-1,78
 179 95 179 95 187 90 c 128,-1,79
 195 85 195 85 203.5 81 c 128,-1,80
 212 77 212 77 218 77 c 0,81,82
 225 77 225 77 233.5 83 c 128,-1,83
 242 89 242 89 250 96.5 c 128,-1,84
 258 104 258 104 265.5 110.5 c 128,-1,85
 273 117 273 117 278 117 c 256,86,87
 283 117 283 117 288.5 111 c 128,-1,88
 294 105 294 105 294 100 c 0,89,90
 294 96 294 96 285 87 c 128,-1,91
 276 78 276 78 264.5 67.5 c 128,-1,92
 253 57 253 57 241.5 47 c 128,-1,93
 230 37 230 37 225 32 c 0,94,95
 209 14 209 14 196.5 0.5 c 128,-1,96
 184 -13 184 -13 178 -13 c 0,97,98
 174 -13 174 -13 166 -8 c 128,-1,99
 158 -3 158 -3 148.5 3 c 128,-1,100
 139 9 139 9 130.5 15 c 128,-1,101
 122 21 122 21 117 24 c 0,102,103
 111 28 111 28 100.5 32 c 128,-1,104
 90 36 90 36 80 40.5 c 128,-1,105
 70 45 70 45 62.5 49 c 128,-1,106
 55 53 55 53 55 57 c 0,0,1
EndSplineSet
EndChar

StartChar: l
Encoding: 108 108 71
Width: 258
GlyphClass: 1
Flags: W
LayerCount: 2
Fore
SplineSet
29 67 m 0,0,1
 29 72 29 72 36.5 77 c 128,-1,2
 44 82 44 82 53.5 88 c 128,-1,3
 63 94 63 94 70.5 101 c 128,-1,4
 78 108 78 108 78 118 c 2,5,-1
 78 485 l 2,6,7
 78 506 78 506 67.5 530.5 c 128,-1,8
 57 555 57 555 44 576 c 128,-1,9
 31 597 31 597 20.5 612.5 c 128,-1,10
 10 628 10 628 10 631 c 0,11,12
 10 636 10 636 13 639.5 c 128,-1,13
 16 643 16 643 23 643 c 0,14,15
 27 643 27 643 36 632 c 128,-1,16
 45 621 45 621 54.5 606.5 c 128,-1,17
 64 592 64 592 72.5 577 c 128,-1,18
 81 562 81 562 84 555 c 1,19,20
 92 586 92 586 107.5 614 c 128,-1,21
 123 642 123 642 143 663.5 c 128,-1,22
 163 685 163 685 187 697.5 c 128,-1,23
 211 710 211 710 237 710 c 0,24,25
 250 710 250 710 252 706.5 c 128,-1,26
 254 703 254 703 254 697 c 256,27,28
 254 691 254 691 246 684 c 128,-1,29
 238 677 238 677 227 669.5 c 128,-1,30
 216 662 216 662 205.5 654 c 128,-1,31
 195 646 195 646 189 639 c 0,32,33
 172 617 172 617 165 596.5 c 128,-1,34
 158 576 158 576 158 550 c 2,35,-1
 158 107 l 2,36,37
 158 104 158 104 162.5 99 c 128,-1,38
 167 94 167 94 174 88.5 c 128,-1,39
 181 83 181 83 187.5 79.5 c 128,-1,40
 194 76 194 76 199 76 c 0,41,42
 202 76 202 76 206 80 c 128,-1,43
 210 84 210 84 214.5 89 c 128,-1,44
 219 94 219 94 223.5 98 c 128,-1,45
 228 102 228 102 232 102 c 0,46,47
 238 102 238 102 244 95.5 c 128,-1,48
 250 89 250 89 250 83 c 0,49,50
 250 80 250 80 244.5 74 c 128,-1,51
 239 68 239 68 231.5 61 c 128,-1,52
 224 54 224 54 216.5 47.5 c 128,-1,53
 209 41 209 41 206 37 c 0,54,55
 192 21 192 21 180 7 c 128,-1,56
 168 -7 168 -7 160 -7 c 256,57,58
 152 -7 152 -7 135 8 c 128,-1,59
 118 23 118 23 101 33 c 0,60,61
 93 37 93 37 81 41 c 128,-1,62
 69 45 69 45 57.5 48.5 c 128,-1,63
 46 52 46 52 37.5 56.5 c 128,-1,64
 29 61 29 61 29 67 c 0,0,1
EndSplineSet
Substitution2: "Einzelne Substitution Nachschlagetabelle 8 Subtabelle" l
EndChar

StartChar: m
Encoding: 109 109 72
Width: 734
GlyphClass: 1
Flags: W
LayerCount: 2
Fore
SplineSet
144 -8 m 0,0,1
 140 -8 140 -8 135.5 -2.5 c 128,-1,2
 131 3 131 3 126 11 c 128,-1,3
 121 19 121 19 116 27 c 128,-1,4
 111 35 111 35 105 40 c 0,5,6
 100 44 100 44 93 48 c 128,-1,7
 86 52 86 52 79 55.5 c 128,-1,8
 72 59 72 59 67.5 63.5 c 128,-1,9
 63 68 63 68 63 73 c 0,10,11
 63 79 63 79 69 83 c 128,-1,12
 75 87 75 87 82 91.5 c 128,-1,13
 89 96 89 96 95 100 c 128,-1,14
 101 104 101 104 101 110 c 2,15,-1
 101 387 l 2,16,17
 101 395 101 395 95 397.5 c 128,-1,18
 89 400 89 400 84 400 c 0,19,20
 67 400 67 400 56.5 391 c 128,-1,21
 46 382 46 382 30 382 c 0,22,23
 23 382 23 382 16.5 389.5 c 128,-1,24
 10 397 10 397 10 404 c 256,25,26
 10 411 10 411 17 418.5 c 128,-1,27
 24 426 24 426 34 432 c 128,-1,28
 44 438 44 438 55 443.5 c 128,-1,29
 66 449 66 449 73 453 c 0,30,31
 77 455 77 455 84.5 460.5 c 128,-1,32
 92 466 92 466 100 471.5 c 128,-1,33
 108 477 108 477 116 481.5 c 128,-1,34
 124 486 124 486 128 486 c 0,35,36
 133 486 133 486 141 479.5 c 128,-1,37
 149 473 149 473 156.5 460 c 128,-1,38
 164 447 164 447 170 427.5 c 128,-1,39
 176 408 176 408 179 381 c 1,40,41
 199 391 199 391 225.5 403.5 c 128,-1,42
 252 416 252 416 269 427 c 0,43,44
 280 434 280 434 293.5 444 c 128,-1,45
 307 454 307 454 319.5 463.5 c 128,-1,46
 332 473 332 473 342 479.5 c 128,-1,47
 352 486 352 486 357 486 c 0,48,49
 360 486 360 486 366.5 480 c 128,-1,50
 373 474 373 474 380.5 461 c 128,-1,51
 388 448 388 448 395 428 c 128,-1,52
 402 408 402 408 406 381 c 1,53,54
 433 399 433 399 461 413 c 128,-1,55
 489 427 489 427 518 445 c 0,56,57
 538 458 538 458 557.5 472 c 128,-1,58
 577 486 577 486 585 486 c 0,59,60
 591 486 591 486 595.5 480.5 c 128,-1,61
 600 475 600 475 605 467.5 c 128,-1,62
 610 460 610 460 616 451.5 c 128,-1,63
 622 443 622 443 631 437 c 0,64,65
 635 434 635 434 642.5 430 c 128,-1,66
 650 426 650 426 657.5 422.5 c 128,-1,67
 665 419 665 419 670 415.5 c 128,-1,68
 675 412 675 412 675 409 c 0,69,70
 675 404 675 404 668.5 401 c 128,-1,71
 662 398 662 398 654.5 394.5 c 128,-1,72
 647 391 647 391 641 386 c 128,-1,73
 635 381 635 381 635 371 c 2,74,-1
 635 114 l 2,75,76
 635 103 635 103 642 95.5 c 128,-1,77
 649 88 649 88 660 88 c 0,78,79
 674 88 674 88 687 97 c 128,-1,80
 700 106 700 106 708 106 c 0,81,82
 712 106 712 106 717.5 100 c 128,-1,83
 723 94 723 94 723 91 c 0,84,85
 723 82 723 82 709.5 71.5 c 128,-1,86
 696 61 696 61 685 53 c 0,87,88
 676 46 676 46 665 36 c 128,-1,89
 654 26 654 26 643.5 17 c 128,-1,90
 633 8 633 8 623.5 2 c 128,-1,91
 614 -4 614 -4 609 -4 c 256,92,93
 604 -4 604 -4 595 1.5 c 128,-1,94
 586 7 586 7 577 19 c 128,-1,95
 568 31 568 31 561.5 49.5 c 128,-1,96
 555 68 555 68 555 95 c 2,97,-1
 555 361 l 2,98,99
 555 372 555 372 545.5 387 c 128,-1,100
 536 402 536 402 525 402 c 0,101,102
 519 402 519 402 505.5 398 c 128,-1,103
 492 394 492 394 475.5 386.5 c 128,-1,104
 459 379 459 379 441 369.5 c 128,-1,105
 423 360 423 360 408 348 c 1,106,-1
 408 125 l 2,107,108
 408 114 408 114 415 106.5 c 128,-1,109
 422 99 422 99 430.5 93.5 c 128,-1,110
 439 88 439 88 446 83.5 c 128,-1,111
 453 79 453 79 453 73 c 256,112,113
 453 67 453 67 440 60.5 c 128,-1,114
 427 54 427 54 413 42 c 0,115,116
 408 38 408 38 402.5 29.5 c 128,-1,117
 397 21 397 21 391 13 c 128,-1,118
 385 5 385 5 379.5 -1.5 c 128,-1,119
 374 -8 374 -8 371 -8 c 256,120,121
 368 -8 368 -8 364 -2.5 c 128,-1,122
 360 3 360 3 355 10.5 c 128,-1,123
 350 18 350 18 344.5 26.5 c 128,-1,124
 339 35 339 35 332 42 c 0,125,126
 323 51 323 51 311 57 c 128,-1,127
 299 63 299 63 299 73 c 0,128,129
 299 76 299 76 303.5 79.5 c 128,-1,130
 308 83 308 83 313.5 87.5 c 128,-1,131
 319 92 319 92 323.5 97.5 c 128,-1,132
 328 103 328 103 328 110 c 2,133,-1
 328 361 l 2,134,135
 328 373 328 373 320.5 387.5 c 128,-1,136
 313 402 313 402 305 402 c 0,137,138
 296 402 296 402 280.5 396.5 c 128,-1,139
 265 391 265 391 247.5 382.5 c 128,-1,140
 230 374 230 374 212 364.5 c 128,-1,141
 194 355 194 355 181 348 c 1,142,-1
 181 125 l 2,143,144
 181 111 181 111 187 103.5 c 128,-1,145
 193 96 193 96 199.5 91 c 128,-1,146
 206 86 206 86 212 82.5 c 128,-1,147
 218 79 218 79 218 73 c 0,148,149
 218 64 218 64 203.5 58 c 128,-1,150
 189 52 189 52 171 31 c 0,151,152
 163 21 163 21 156.5 6.5 c 128,-1,153
 150 -8 150 -8 144 -8 c 0,0,1
EndSplineSet
EndChar

StartChar: n
Encoding: 110 110 73
Width: 498
GlyphClass: 1
Flags: W
LayerCount: 2
Fore
SplineSet
51 63 m 256,0,1
 51 67 51 67 57 71 c 128,-1,2
 63 75 63 75 69.5 79.5 c 128,-1,3
 76 84 76 84 82 91 c 128,-1,4
 88 98 88 98 88 108 c 2,5,-1
 88 350 l 2,6,7
 88 367 88 367 81.5 385 c 128,-1,8
 75 403 75 403 57 403 c 0,9,10
 47 403 47 403 37 398 c 128,-1,11
 27 393 27 393 22 393 c 0,12,13
 7 393 7 393 7 408 c 0,14,15
 7 416 7 416 21 422.5 c 128,-1,16
 35 429 35 429 57 445 c 0,17,18
 76 459 76 459 91.5 472 c 128,-1,19
 107 485 107 485 113 485 c 0,20,21
 125 485 125 485 142 455.5 c 128,-1,22
 159 426 159 426 165 380 c 1,23,24
 194 389 194 389 226.5 407 c 128,-1,25
 259 425 259 425 287.5 442 c 128,-1,26
 316 459 316 459 336 472 c 128,-1,27
 356 485 356 485 360 485 c 0,28,29
 363 485 363 485 368.5 478.5 c 128,-1,30
 374 472 374 472 380.5 463 c 128,-1,31
 387 454 387 454 395 444 c 128,-1,32
 403 434 403 434 412 427 c 0,33,34
 420 421 420 421 433 415.5 c 128,-1,35
 446 410 446 410 446 403 c 0,36,37
 446 398 446 398 439.5 395.5 c 128,-1,38
 433 393 433 393 425.5 390 c 128,-1,39
 418 387 418 387 411.5 382.5 c 128,-1,40
 405 378 405 378 405 369 c 2,41,-1
 405 112 l 2,42,43
 405 97 405 97 418.5 83.5 c 128,-1,44
 432 70 432 70 443 70 c 256,45,46
 454 70 454 70 464 79.5 c 128,-1,47
 474 89 474 89 480 89 c 0,48,49
 485 89 485 89 487.5 85.5 c 128,-1,50
 490 82 490 82 490 79 c 256,51,52
 490 76 490 76 484.5 70.5 c 128,-1,53
 479 65 479 65 470 58.5 c 128,-1,54
 461 52 461 52 450.5 44.5 c 128,-1,55
 440 37 440 37 430 29 c 0,56,57
 410 12 410 12 398 0 c 128,-1,58
 386 -12 386 -12 383 -12 c 256,59,60
 380 -12 380 -12 370.5 -7.5 c 128,-1,61
 361 -3 361 -3 351 11.5 c 128,-1,62
 341 26 341 26 333 52 c 128,-1,63
 325 78 325 78 325 121 c 2,64,-1
 325 358 l 2,65,66
 325 365 325 365 321.5 372.5 c 128,-1,67
 318 380 318 380 312.5 386.5 c 128,-1,68
 307 393 307 393 301.5 397 c 128,-1,69
 296 401 296 401 293 401 c 256,70,71
 290 401 290 401 276.5 395 c 128,-1,72
 263 389 263 389 245 380.5 c 128,-1,73
 227 372 227 372 206.5 363 c 128,-1,74
 186 354 186 354 168 349 c 1,75,-1
 168 115 l 2,76,77
 168 102 168 102 174.5 93.5 c 128,-1,78
 181 85 181 85 189 79 c 128,-1,79
 197 73 197 73 203.5 69.5 c 128,-1,80
 210 66 210 66 210 63 c 0,81,82
 210 58 210 58 204.5 54 c 128,-1,83
 199 50 199 50 192 45.5 c 128,-1,84
 185 41 185 41 177.5 37 c 128,-1,85
 170 33 170 33 167 30 c 0,86,87
 162 25 162 25 156.5 18 c 128,-1,88
 151 11 151 11 145.5 4 c 128,-1,89
 140 -3 140 -3 135 -7.5 c 128,-1,90
 130 -12 130 -12 127 -12 c 0,91,92
 122 -12 122 -12 114 -1.5 c 128,-1,93
 106 9 106 9 95 23 c 0,94,95
 92 27 92 27 84.5 32.5 c 128,-1,96
 77 38 77 38 69.5 43.5 c 128,-1,97
 62 49 62 49 56.5 54 c 128,-1,98
 51 59 51 59 51 63 c 256,0,1
EndSplineSet
EndChar

StartChar: o
Encoding: 111 111 74
Width: 425
GlyphClass: 1
Flags: W
LayerCount: 2
Fore
SplineSet
4 92 m 0,0,1
 4 97 4 97 10 100 c 128,-1,2
 16 103 16 103 22.5 105 c 128,-1,3
 29 107 29 107 35 109 c 128,-1,4
 41 111 41 111 41 115 c 2,5,-1
 41 362 l 2,6,7
 41 375 41 375 36.5 388 c 128,-1,8
 32 401 32 401 32 409 c 256,9,10
 32 417 32 417 37 421.5 c 128,-1,11
 42 426 42 426 48 426 c 0,12,13
 60 426 60 426 75.5 424 c 128,-1,14
 91 422 91 422 102 422 c 0,15,16
 121 422 121 422 145.5 432.5 c 128,-1,17
 170 443 170 443 192 456 c 128,-1,18
 214 469 214 469 230 479.5 c 128,-1,19
 246 490 246 490 249 490 c 0,20,21
 253 490 253 490 273.5 479.5 c 128,-1,22
 294 469 294 469 317 442.5 c 128,-1,23
 340 416 340 416 358.5 371 c 128,-1,24
 377 326 377 326 377 257 c 0,25,26
 377 195 377 195 350 147.5 c 128,-1,27
 323 100 323 100 280 60 c 0,28,29
 275 57 275 57 263.5 46 c 128,-1,30
 252 35 252 35 239.5 23 c 128,-1,31
 227 11 227 11 215.5 1 c 128,-1,32
 204 -9 204 -9 201 -9 c 0,33,34
 197 -9 197 -9 186.5 -3.5 c 128,-1,35
 176 2 176 2 162.5 9.5 c 128,-1,36
 149 17 149 17 134 25.5 c 128,-1,37
 119 34 119 34 104 40 c 0,38,39
 95 44 95 44 78 50.5 c 128,-1,40
 61 57 61 57 44.5 64.5 c 128,-1,41
 28 72 28 72 16 79 c 128,-1,42
 4 86 4 86 4 92 c 0,0,1
208 411 m 0,43,44
 202 411 202 411 190.5 409 c 128,-1,45
 179 407 179 407 166.5 403 c 128,-1,46
 154 399 154 399 141.5 394.5 c 128,-1,47
 129 390 129 390 121 386 c 1,48,-1
 121 120 l 1,49,50
 136 116 136 116 152 108.5 c 128,-1,51
 168 101 168 101 182 94 c 128,-1,52
 196 87 196 87 207 81.5 c 128,-1,53
 218 76 218 76 224 76 c 0,54,55
 249 76 249 76 263 96 c 128,-1,56
 277 116 277 116 283.5 143.5 c 128,-1,57
 290 171 290 171 291.5 199 c 128,-1,58
 293 227 293 227 293 242 c 0,59,60
 293 289 293 289 281 321.5 c 128,-1,61
 269 354 269 354 253.5 374 c 128,-1,62
 238 394 238 394 224.5 402.5 c 128,-1,63
 211 411 211 411 208 411 c 0,43,44
EndSplineSet
EndChar

StartChar: p
Encoding: 112 112 75
Width: 477
GlyphClass: 1
Flags: W
LayerCount: 2
Fore
SplineSet
98 74 m 1,0,1
 84 80 84 80 73 80 c 0,2,3
 58 80 58 80 50 72 c 128,-1,4
 42 64 42 64 37.5 55 c 128,-1,5
 33 46 33 46 29 38 c 128,-1,6
 25 30 25 30 17 30 c 0,7,8
 5 30 5 30 6 46 c 0,9,10
 17 84 17 84 35 108.5 c 128,-1,11
 53 133 53 133 91 140 c 1,12,-1
 91 350 l 2,13,14
 91 363 91 363 84 371.5 c 128,-1,15
 77 380 77 380 68.5 387.5 c 128,-1,16
 60 395 60 395 53 404.5 c 128,-1,17
 46 414 46 414 46 430 c 0,18,19
 46 437 46 437 50 458 c 128,-1,20
 54 479 54 479 61 501.5 c 128,-1,21
 68 524 68 524 77.5 541.5 c 128,-1,22
 87 559 87 559 98 559 c 0,23,24
 103 559 103 559 108 555 c 128,-1,25
 113 551 113 551 113 542 c 0,26,27
 113 541 113 541 112 540 c 1,28,-1
 112 541 l 1,29,30
 112 524 112 524 106.5 511.5 c 128,-1,31
 101 499 101 499 101 482 c 0,32,33
 101 470 101 470 108 461 c 128,-1,34
 115 452 115 452 125 441.5 c 128,-1,35
 135 431 135 431 146 418 c 128,-1,36
 157 405 157 405 165 384 c 1,37,38
 195 397 195 397 222 414.5 c 128,-1,39
 249 432 249 432 270.5 448 c 128,-1,40
 292 464 292 464 307 474.5 c 128,-1,41
 322 485 322 485 329 485 c 256,42,43
 336 485 336 485 352.5 470 c 128,-1,44
 369 455 369 455 386 425 c 128,-1,45
 403 395 403 395 416 350 c 128,-1,46
 429 305 429 305 429 245 c 0,47,48
 429 225 429 225 424.5 201.5 c 128,-1,49
 420 178 420 178 412 155.5 c 128,-1,50
 404 133 404 133 391.5 113 c 128,-1,51
 379 93 379 93 364 81 c 0,52,53
 338 61 338 61 322.5 44.5 c 128,-1,54
 307 28 307 28 297.5 16.5 c 128,-1,55
 288 5 288 5 282.5 -1 c 128,-1,56
 277 -7 277 -7 271 -7 c 0,57,58
 266 -7 266 -7 255 -0.5 c 128,-1,59
 244 6 244 6 229.5 15.5 c 128,-1,60
 215 25 215 25 198.5 35 c 128,-1,61
 182 45 182 45 166 52 c 1,62,-1
 153 -127 l 2,63,64
 153 -138 153 -138 147.5 -145.5 c 128,-1,65
 142 -153 142 -153 131 -153 c 0,66,67
 117 -153 117 -153 111 -138 c 128,-1,68
 105 -123 105 -123 105 -109 c 2,69,-1
 98 74 l 1,0,1
285 402 m 0,70,71
 255 402 255 402 229.5 388.5 c 128,-1,72
 204 375 204 375 179 358 c 0,73,74
 176 358 176 358 173.5 353.5 c 128,-1,75
 171 349 171 349 171 347 c 2,76,-1
 171 127 l 1,77,78
 189 122 189 122 207 113.5 c 128,-1,79
 225 105 225 105 241 95.5 c 128,-1,80
 257 86 257 86 269.5 75.5 c 128,-1,81
 282 65 282 65 289 57 c 1,82,83
 308 75 308 75 320.5 89.5 c 128,-1,84
 333 104 333 104 339.5 122 c 128,-1,85
 346 140 346 140 348.5 165 c 128,-1,86
 351 190 351 190 351 229 c 0,87,88
 351 310 351 310 334 356 c 128,-1,89
 317 402 317 402 285 402 c 0,70,71
EndSplineSet
EndChar

StartChar: q
Encoding: 113 113 76
Width: 436
GlyphClass: 1
Flags: W
LayerCount: 2
Fore
SplineSet
399 408 m 0,0,1
 413 405 413 405 418 401.5 c 128,-1,2
 423 398 423 398 423 391 c 0,3,4
 423 385 423 385 415.5 382.5 c 128,-1,5
 408 380 408 380 398 377 c 0,6,7
 387 374 387 374 377 366 c 128,-1,8
 367 358 367 358 367 343 c 2,9,-1
 367 -44 l 2,10,11
 367 -63 367 -63 363.5 -82.5 c 128,-1,12
 360 -102 360 -102 355 -118 c 128,-1,13
 350 -134 350 -134 342.5 -144.5 c 128,-1,14
 335 -155 335 -155 328 -155 c 0,15,16
 322 -155 322 -155 314.5 -144.5 c 128,-1,17
 307 -134 307 -134 301 -118 c 128,-1,18
 295 -102 295 -102 290.5 -82 c 128,-1,19
 286 -62 286 -62 286 -43 c 2,20,-1
 286 84 l 1,21,22
 270 65 270 65 246 47 c 128,-1,23
 222 29 222 29 198 14.5 c 128,-1,24
 174 0 174 0 154.5 -9 c 128,-1,25
 135 -18 135 -18 128 -18 c 0,26,27
 120 -18 120 -18 104 -2.5 c 128,-1,28
 88 13 88 13 72 41.5 c 128,-1,29
 56 70 56 70 44.5 110 c 128,-1,30
 33 150 33 150 33 199 c 0,31,32
 33 255 33 255 47.5 297.5 c 128,-1,33
 62 340 62 340 84 370 c 0,34,35
 90 378 90 378 109.5 397.5 c 128,-1,36
 129 417 129 417 151 437.5 c 128,-1,37
 173 458 173 458 192.5 473.5 c 128,-1,38
 212 489 212 489 217 489 c 0,39,40
 223 489 223 489 239.5 479.5 c 128,-1,41
 256 470 256 470 279.5 456.5 c 128,-1,42
 303 443 303 443 333.5 429.5 c 128,-1,43
 364 416 364 416 399 408 c 0,0,1
287 351 m 1,44,45
 262 359 262 359 235.5 374 c 128,-1,46
 209 389 209 389 178 412 c 1,47,48
 154 392 154 392 141 373.5 c 128,-1,49
 128 355 128 355 121.5 333 c 128,-1,50
 115 311 115 311 113.5 285.5 c 128,-1,51
 112 260 112 260 112 227 c 0,52,53
 112 186 112 186 120.5 156.5 c 128,-1,54
 129 127 129 127 141 107.5 c 128,-1,55
 153 88 153 88 165.5 78.5 c 128,-1,56
 178 69 178 69 186 69 c 0,57,58
 203 69 203 69 232 86 c 128,-1,59
 261 103 261 103 287 137 c 1,60,-1
 287 351 l 1,44,45
EndSplineSet
EndChar

StartChar: roundr
Encoding: 42843 42843 77
Width: 322
GlyphClass: 2
Flags: W
LayerCount: 2
Fore
SplineSet
274 94 m 0,0,1
 279 94 279 94 285 88.5 c 128,-1,2
 291 83 291 83 291 76 c 0,3,4
 291 72 291 72 271.5 58 c 128,-1,5
 252 44 252 44 232 27 c 0,6,7
 213 11 213 11 199 -1.5 c 128,-1,8
 185 -14 185 -14 180 -14 c 0,9,10
 171 -14 171 -14 150 -4.5 c 128,-1,11
 129 5 129 5 100 18 c 0,12,13
 85 25 85 25 70 30.5 c 128,-1,14
 55 36 55 36 42.5 40.5 c 128,-1,15
 30 45 30 45 22.5 48 c 128,-1,16
 15 51 15 51 15 53 c 0,17,18
 15 58 15 58 39 76 c 128,-1,19
 63 94 63 94 91.5 124 c 128,-1,20
 120 154 120 154 144 194.5 c 128,-1,21
 168 235 168 235 168 284 c 0,22,23
 168 301 168 301 159 318 c 128,-1,24
 150 335 150 335 137 349 c 128,-1,25
 124 363 124 363 110 372 c 128,-1,26
 96 381 96 381 86 381 c 0,27,28
 69 381 69 381 55 374.5 c 128,-1,29
 41 368 41 368 24 368 c 0,30,31
 19 368 19 368 16.5 373 c 128,-1,32
 14 378 14 378 14 382 c 0,33,34
 14 389 14 389 27 404 c 128,-1,35
 40 419 40 419 56.5 434.5 c 128,-1,36
 73 450 73 450 89 461.5 c 128,-1,37
 105 473 105 473 111 473 c 0,38,39
 123 473 123 473 147.5 462.5 c 128,-1,40
 172 452 172 452 196.5 431 c 128,-1,41
 221 410 221 410 239.5 379 c 128,-1,42
 258 348 258 348 258 308 c 0,43,44
 258 260 258 260 218 207 c 128,-1,45
 178 154 178 154 113 104 c 1,46,47
 123 98 123 98 140 91.5 c 128,-1,48
 157 85 157 85 174.5 79 c 128,-1,49
 192 73 192 73 205.5 69 c 128,-1,50
 219 65 219 65 224 65 c 0,51,52
 228 65 228 65 235.5 69.5 c 128,-1,53
 243 74 243 74 251 79.5 c 128,-1,54
 259 85 259 85 265.5 89.5 c 128,-1,55
 272 94 272 94 274 94 c 0,0,1
EndSplineSet
Ligature2: "Ligaturen Substitution Nachschlagetabelle 7 Subtabelle" uni200C r
EndChar

StartChar: s
Encoding: 115 115 78
Width: 435
GlyphClass: 1
Flags: W
LayerCount: 2
Fore
SplineSet
115 48 m 0,0,1
 101 48 101 48 90.5 40.5 c 128,-1,2
 80 33 80 33 71 24 c 128,-1,3
 62 15 62 15 54.5 7.5 c 128,-1,4
 47 0 47 0 40 0 c 0,5,6
 34 0 34 0 29.5 2.5 c 128,-1,7
 25 5 25 5 25 11 c 0,8,9
 25 23 25 23 37 41 c 128,-1,10
 49 59 49 59 67.5 76 c 128,-1,11
 86 93 86 93 109 105 c 128,-1,12
 132 117 132 117 153 117 c 0,13,14
 168 117 168 117 180.5 110.5 c 128,-1,15
 193 104 193 104 204.5 96.5 c 128,-1,16
 216 89 216 89 227 83 c 128,-1,17
 238 77 238 77 252 77 c 0,18,19
 269 77 269 77 281 87 c 128,-1,20
 293 97 293 97 301 112 c 128,-1,21
 309 127 309 127 312.5 144.5 c 128,-1,22
 316 162 316 162 316 176 c 0,23,24
 316 192 316 192 310 204.5 c 128,-1,25
 304 217 304 217 294.5 226 c 128,-1,26
 285 235 285 235 273 239.5 c 128,-1,27
 261 244 261 244 250 244 c 0,28,29
 238 244 238 244 221 233.5 c 128,-1,30
 204 223 204 223 187.5 208 c 128,-1,31
 171 193 171 193 156 177 c 128,-1,32
 141 161 141 161 134 151 c 1,33,34
 128 151 128 151 111 161 c 128,-1,35
 94 171 94 171 76 187.5 c 128,-1,36
 58 204 58 204 43.5 226.5 c 128,-1,37
 29 249 29 249 29 275 c 0,38,39
 29 299 29 299 39.5 324.5 c 128,-1,40
 50 350 50 350 65.5 373.5 c 128,-1,41
 81 397 81 397 100 417.5 c 128,-1,42
 119 438 119 438 136 453.5 c 128,-1,43
 153 469 153 469 166 478 c 128,-1,44
 179 487 179 487 183 487 c 0,45,46
 188 487 188 487 196 479 c 128,-1,47
 204 471 204 471 215 462 c 128,-1,48
 226 453 226 453 240.5 445 c 128,-1,49
 255 437 255 437 273 437 c 0,50,51
 296 437 296 437 308.5 454 c 128,-1,52
 321 471 321 471 321 490 c 0,53,54
 321 508 321 508 310.5 522 c 128,-1,55
 300 536 300 536 285 545.5 c 128,-1,56
 270 555 270 555 253 560 c 128,-1,57
 236 565 236 565 223 565 c 0,58,59
 202 565 202 565 187 558 c 128,-1,60
 172 551 172 551 159.5 542.5 c 128,-1,61
 147 534 147 534 137 527 c 128,-1,62
 127 520 127 520 117 520 c 0,63,64
 91 520 91 520 91 547 c 0,65,66
 91 559 91 559 105.5 570 c 128,-1,67
 120 581 120 581 140 588.5 c 128,-1,68
 160 596 160 596 181 600.5 c 128,-1,69
 202 605 202 605 216 605 c 0,70,71
 279 605 279 605 321 572 c 128,-1,72
 363 539 363 539 363 473 c 0,73,74
 363 449 363 449 353 429 c 128,-1,75
 343 409 343 409 326.5 394.5 c 128,-1,76
 310 380 310 380 289 371.5 c 128,-1,77
 268 363 268 363 245 363 c 0,78,79
 231 363 231 363 218 367 c 128,-1,80
 205 371 205 371 192 375.5 c 128,-1,81
 179 380 179 380 166.5 384 c 128,-1,82
 154 388 154 388 142 388 c 0,83,84
 128 388 128 388 119 379.5 c 128,-1,85
 110 371 110 371 104.5 359 c 128,-1,86
 99 347 99 347 96.5 333.5 c 128,-1,87
 94 320 94 320 94 310 c 0,88,89
 94 298 94 298 100 286 c 128,-1,90
 106 274 106 274 115 264 c 128,-1,91
 124 254 124 254 135 248 c 128,-1,92
 146 242 146 242 157 242 c 0,93,94
 169 242 169 242 185.5 253.5 c 128,-1,95
 202 265 202 265 218 280.5 c 128,-1,96
 234 296 234 296 247.5 311 c 128,-1,97
 261 326 261 326 267 333 c 1,98,99
 292 333 292 333 314.5 322.5 c 128,-1,100
 337 312 337 312 354 294.5 c 128,-1,101
 371 277 371 277 381.5 254.5 c 128,-1,102
 392 232 392 232 392 209 c 256,103,104
 392 186 392 186 384.5 166 c 128,-1,105
 377 146 377 146 364 127.5 c 128,-1,106
 351 109 351 109 334 92 c 128,-1,107
 317 75 317 75 298 57 c 0,108,109
 288 48 288 48 275.5 36 c 128,-1,110
 263 24 263 24 251.5 13.5 c 128,-1,111
 240 3 240 3 231 -4 c 128,-1,112
 222 -11 222 -11 219 -11 c 0,113,114
 214 -11 214 -11 206 -2 c 128,-1,115
 198 7 198 7 185.5 18.5 c 128,-1,116
 173 30 173 30 156 39 c 128,-1,117
 139 48 139 48 115 48 c 0,0,1
EndSplineSet
Substitution2: "Einzelne Substitution Nachschlagetabelle 9 Subtabelle" s
Substitution2: "Einzelne Substitution Nachschlagetabelle 8 Subtabelle" longs
Ligature2: "Ligaturen Substitution Nachschlagetabelle 7 Subtabelle" longs uni200C
EndChar

StartChar: t
Encoding: 116 116 79
Width: 309
GlyphClass: 1
Flags: W
LayerCount: 2
Fore
SplineSet
44 70 m 256,0,1
 44 75 44 75 51 79.5 c 128,-1,2
 58 84 58 84 66.5 89 c 128,-1,3
 75 94 75 94 82 99.5 c 128,-1,4
 89 105 89 105 89 112 c 2,5,-1
 89 398 l 1,6,-1
 34 398 l 2,7,8
 21 398 21 398 15 402.5 c 128,-1,9
 9 407 9 407 9 413 c 0,10,11
 9 417 9 417 21.5 426.5 c 128,-1,12
 34 436 34 436 50 449 c 128,-1,13
 66 462 66 462 81 478 c 128,-1,14
 96 494 96 494 100 512 c 2,15,-1
 130 637 l 2,16,17
 134 664 134 664 153 664 c 0,18,19
 161 664 161 664 165 658 c 128,-1,20
 169 652 169 652 169 649 c 2,21,-1
 169 463 l 1,22,-1
 250 463 l 2,23,24
 259 463 259 463 263.5 454 c 128,-1,25
 268 445 268 445 268 432 c 0,26,27
 268 398 268 398 249 398 c 2,28,-1
 169 398 l 1,29,-1
 169 107 l 2,30,31
 169 104 169 104 173 100.5 c 128,-1,32
 177 97 177 97 182.5 93.5 c 128,-1,33
 188 90 188 90 193 87.5 c 128,-1,34
 198 85 198 85 200 85 c 0,35,36
 205 85 205 85 213.5 92.5 c 128,-1,37
 222 100 222 100 232 109.5 c 128,-1,38
 242 119 242 119 250.5 126.5 c 128,-1,39
 259 134 259 134 264 134 c 0,40,41
 272 134 272 134 280 124.5 c 128,-1,42
 288 115 288 115 288 110 c 0,43,44
 288 107 288 107 280 98 c 128,-1,45
 272 89 272 89 260.5 78.5 c 128,-1,46
 249 68 249 68 238 57.5 c 128,-1,47
 227 47 227 47 221 41 c 0,48,49
 216 36 216 36 209.5 27 c 128,-1,50
 203 18 203 18 196.5 10 c 128,-1,51
 190 2 190 2 184.5 -4 c 128,-1,52
 179 -10 179 -10 176 -10 c 256,53,54
 173 -10 173 -10 165.5 -5.5 c 128,-1,55
 158 -1 158 -1 148 6 c 128,-1,56
 138 13 138 13 127.5 20 c 128,-1,57
 117 27 117 27 109 32 c 0,58,59
 100 38 100 38 88.5 43 c 128,-1,60
 77 48 77 48 67.5 52.5 c 128,-1,61
 58 57 58 57 51 61 c 128,-1,62
 44 65 44 65 44 70 c 256,0,1
EndSplineSet
Substitution2: "Einzelne Substitution Nachschlagetabelle 9 Subtabelle" t
Substitution2: "Einzelne Substitution Nachschlagetabelle 8 Subtabelle" t
EndChar

StartChar: u
Encoding: 117 117 80
Width: 485
GlyphClass: 1
Flags: W
LayerCount: 2
Fore
SplineSet
38 74 m 0,0,1
 38 78 38 78 46 83.5 c 128,-1,2
 54 89 54 89 64 95.5 c 128,-1,3
 74 102 74 102 81.5 109.5 c 128,-1,4
 89 117 89 117 88 125 c 2,5,-1
 88 376 l 2,6,7
 88 393 88 393 79.5 401 c 128,-1,8
 71 409 71 409 57 409 c 0,9,10
 47 409 47 409 38.5 402 c 128,-1,11
 30 395 30 395 22 395 c 0,12,13
 11 395 11 395 8 400 c 128,-1,14
 5 405 5 405 5 408 c 0,15,16
 5 423 5 423 15 425.5 c 128,-1,17
 25 428 25 428 38 437 c 0,18,19
 48 443 48 443 60 451.5 c 128,-1,20
 72 460 72 460 83.5 468.5 c 128,-1,21
 95 477 95 477 105 483 c 128,-1,22
 115 489 115 489 122 489 c 256,23,24
 129 489 129 489 137.5 478 c 128,-1,25
 146 467 146 467 152.5 451.5 c 128,-1,26
 159 436 159 436 163.5 419.5 c 128,-1,27
 168 403 168 403 168 391 c 2,28,-1
 168 123 l 2,29,30
 168 104 168 104 181 89.5 c 128,-1,31
 194 75 194 75 205 75 c 0,32,33
 212 75 212 75 227.5 81.5 c 128,-1,34
 243 88 243 88 260.5 97 c 128,-1,35
 278 106 278 106 295 115.5 c 128,-1,36
 312 125 312 125 321 132 c 1,37,-1
 321 370 l 2,38,39
 321 377 321 377 315 382.5 c 128,-1,40
 309 388 309 388 301.5 392 c 128,-1,41
 294 396 294 396 288 400 c 128,-1,42
 282 404 282 404 282 410 c 0,43,44
 282 415 282 415 286.5 418 c 128,-1,45
 291 421 291 421 298 424.5 c 128,-1,46
 305 428 305 428 313 432 c 128,-1,47
 321 436 321 436 327 443 c 0,48,49
 331 447 331 447 335.5 455 c 128,-1,50
 340 463 340 463 344.5 470.5 c 128,-1,51
 349 478 349 478 354 483.5 c 128,-1,52
 359 489 359 489 364 489 c 256,53,54
 369 489 369 489 373 483.5 c 128,-1,55
 377 478 377 478 380.5 470.5 c 128,-1,56
 384 463 384 463 387 455 c 128,-1,57
 390 447 390 447 394 443 c 0,58,59
 399 436 399 436 406.5 431 c 128,-1,60
 414 426 414 426 421 422.5 c 128,-1,61
 428 419 428 419 433 416 c 128,-1,62
 438 413 438 413 438 410 c 0,63,64
 438 404 438 404 432 400 c 128,-1,65
 426 396 426 396 419.5 392 c 128,-1,66
 413 388 413 388 407 383 c 128,-1,67
 401 378 401 378 401 371 c 2,68,-1
 401 101 l 2,69,70
 401 92 401 92 409.5 81 c 128,-1,71
 418 70 418 70 426 70 c 0,72,73
 440 70 440 70 449.5 78 c 128,-1,74
 459 86 459 86 470 86 c 0,75,76
 480 86 480 86 480 76 c 0,77,78
 480 67 480 67 466 57 c 128,-1,79
 452 47 452 47 432 31 c 0,80,81
 413 16 413 16 401 2 c 128,-1,82
 389 -12 389 -12 381 -12 c 0,83,84
 374 -12 374 -12 363.5 -2.5 c 128,-1,85
 353 7 353 7 343.5 21.5 c 128,-1,86
 334 36 334 36 327.5 54 c 128,-1,87
 321 72 321 72 321 89 c 1,88,89
 302 85 302 85 273 68.5 c 128,-1,90
 244 52 244 52 215 34 c 128,-1,91
 186 16 186 16 163 2 c 128,-1,92
 140 -12 140 -12 133 -12 c 0,93,94
 127 -12 127 -12 120.5 -5 c 128,-1,95
 114 2 114 2 108 11.5 c 128,-1,96
 102 21 102 21 96 30.5 c 128,-1,97
 90 40 90 40 84 44 c 0,98,99
 81 47 81 47 73.5 50 c 128,-1,100
 66 53 66 53 58 56.5 c 128,-1,101
 50 60 50 60 44 64 c 128,-1,102
 38 68 38 68 38 74 c 0,0,1
EndSplineSet
EndChar

